<?xml version="1.0" encoding="UTF-8"?>
<!DOCTYPE svg PUBLIC "-//W3C//DTD SVG 1.1//EN" "http://www.w3.org/Graphics/SVG/1.1/DTD/svg11.dtd">
<!-- Creator: CorelDRAW X7 -->
<svg xmlns="http://www.w3.org/2000/svg" xml:space="preserve" width="0.787402in" height="0.787402in" version="1.1" style="shape-rendering:geometricPrecision; text-rendering:geometricPrecision; image-rendering:optimizeQuality; fill-rule:evenodd; clip-rule:evenodd"
viewBox="0 0 787 787"
 xmlns:xlink="http://www.w3.org/1999/xlink">
 <defs>
  <style type="text/css">
   <![CDATA[
    .fil0 {fill:black}
   ]]>
  </style>
 </defs>
 <g id="Layer_x0020_1">
  <metadata id="CorelCorpID_0Corel-Layer"/>
  <path class="fil0" d="M394 39c195,0 354,159 354,355 0,195 -159,354 -354,354 -196,0 -355,-159 -355,-354 0,-196 159,-355 355,-355zm7 339c0,-61 48,-110 108,-114l0 -93 -32 0c-3,9 -12,16 -22,16 -10,0 -18,-7 -22,-16l-33 0c-3,9 -12,16 -22,16 -10,0 -18,-7 -21,-16l-34 0c-3,9 -11,16 -21,16 -10,0 -19,-7 -22,-16l-32 0 0 292 146 0c12,0 23,10 23,23l0 23 69 0 0 -20c-49,-13 -85,-58 -85,-111zm123 -23c4,0 8,4 8,8l15 0c0,-13 -10,-23 -23,-23l0 -15 -15 0 0 15 -23 0 0 23c0,13 10,23 23,23l15 0c4,0 8,3 8,8l0 7 -23 0c-4,0 -8,-3 -8,-7l-15 0c0,12 10,23 23,23l0 15 15 0 0 -15 23 0 0 -23c0,-13 -10,-23 -23,-23l-15 0c-4,0 -8,-4 -8,-8l0 -8 23 0zm-8 -76c-55,0 -99,44 -99,99 0,55 44,100 99,100 55,0 100,-45 100,-100 0,-55 -45,-99 -100,-99zm0 176c-42,0 -76,-34 -76,-77 0,-42 34,-76 76,-76 43,0 77,34 77,76 0,43 -34,77 -77,77zm-122 23l-215 0c-4,0 -8,4 -8,8l0 23 230 0 0 -23c0,-4 -3,-8 -7,-8zm-223 131c0,4 4,7 8,7l215 0c4,0 7,-3 7,-7l0 -85 -230 0 0 85zm62 -8l-16 0 0 -15 16 0 0 15zm30 0l-15 0 0 -15 15 0 0 15zm69 -38c9,0 16,6 16,15 0,-9 7,-15 15,-15 8,0 15,6 15,15 0,8 -7,15 -15,15 -8,0 -15,-7 -15,-15 0,8 -7,15 -16,15 -8,0 -15,-7 -15,-15 0,-9 7,-15 15,-15zm-145 -8l76 0 0 15 -76 0 0 -15zm0 31l15 0 0 15 -15 0 0 -15zm314 -94l0 109c0,8 7,15 15,15 9,0 16,-7 16,-15l0 -109c-5,1 -10,1 -16,1 -5,0 -10,0 -15,-1zm-238 -213l16 0 0 15 -16 0 0 -15zm0 61l92 0 0 15 -92 0 0 -15zm16 107l-16 0 0 -15 16 0 0 15zm107 0l-92 0 0 -15 92 0 0 15zm0 -30l-123 0 0 -16 123 0 0 16zm0 -31l-123 0 0 -15 123 0 0 15zm0 -31l-15 0 0 -15 15 0 0 15zm0 -30l-123 0 0 -16 123 0 0 16zm0 -31l-92 0 0 -15 92 0 0 15zm-115 -38l0 -46 215 0 0 46 -215 0z"/>
 </g>
</svg>
