<?xml version="1.0" encoding="UTF-8"?>
<!DOCTYPE svg PUBLIC "-//W3C//DTD SVG 1.1//EN" "http://www.w3.org/Graphics/SVG/1.1/DTD/svg11.dtd">
<!-- Creator: CorelDRAW X7 -->
<svg xmlns="http://www.w3.org/2000/svg" xml:space="preserve" width="0.787402in" height="0.787402in" version="1.1" style="shape-rendering:geometricPrecision; text-rendering:geometricPrecision; image-rendering:optimizeQuality; fill-rule:evenodd; clip-rule:evenodd"
viewBox="0 0 787 787"
 xmlns:xlink="http://www.w3.org/1999/xlink">
 <defs>
  <style type="text/css">
   <![CDATA[
    .fil0 {fill:black}
   ]]>
  </style>
 </defs>
 <g id="Layer_x0020_1">
  <metadata id="CorelCorpID_0Corel-Layer"/>
  <path class="fil0" d="M491 704l140 0 0 -305c0,-12 10,-22 22,-22l61 0 -60 -54c-4,-4 -7,-10 -7,-16l0 -178 -108 0 0 39c0,9 -5,17 -13,20 -8,4 -17,2 -23,-3l-109 -100 -320 292 61 0c12,0 22,10 22,22l0 305 139 0 0 -185c0,-12 10,-22 22,-22l151 0c13,0 22,10 22,22l0 185 0 0zm162 44l-184 0c-12,0 -21,-10 -21,-22l0 -185 -108 0 0 185c0,12 -10,22 -22,22l-183 0c-13,0 -22,-10 -22,-22l0 -305 -54 0c-16,0 -30,-10 -35,-25 -6,-15 -2,-31 10,-42l334 -305c7,-6 16,-10 26,-10 9,0 18,4 25,10l76 70 0 -12c0,-13 10,-22 22,-22l152 0c12,0 22,9 22,22l0 190 63 57c12,11 16,27 10,42 -6,15 -20,25 -36,25l-53 0 0 305c0,12 -10,22 -22,22z"/>
 </g>
</svg>
