<?xml version="1.0" encoding="UTF-8"?>
<!DOCTYPE svg PUBLIC "-//W3C//DTD SVG 1.1//EN" "http://www.w3.org/Graphics/SVG/1.1/DTD/svg11.dtd">
<!-- Creator: CorelDRAW X7 -->
<svg xmlns="http://www.w3.org/2000/svg" xml:space="preserve" width="0.787402in" height="0.787402in" version="1.1" style="shape-rendering:geometricPrecision; text-rendering:geometricPrecision; image-rendering:optimizeQuality; fill-rule:evenodd; clip-rule:evenodd"
viewBox="0 0 787 787"
 xmlns:xlink="http://www.w3.org/1999/xlink">
 <defs>
  <style type="text/css">
   <![CDATA[
    .fil0 {fill:black}
   ]]>
  </style>
 </defs>
 <g id="Layer_x0020_1">
  <metadata id="CorelCorpID_0Corel-Layer"/>
  <path class="fil0" d="M394 39c195,0 354,159 354,355 0,195 -159,354 -354,354 -196,0 -355,-159 -355,-354 0,-196 159,-355 355,-355zm136 386c-4,-3 -10,-4 -15,-2 -5,3 -8,8 -8,13l0 43 -24 0c-19,0 -37,-10 -48,-27l-91 -147c-21,-33 -57,-53 -96,-53l-81 0 0 57 81 0c19,0 37,10 48,26l91 147c21,33 57,53 96,53l24 0 0 43c0,5 3,10 8,12 2,1 4,2 6,2 3,0 6,-1 9,-4l85 -70c3,-3 5,-7 5,-11 0,-4 -2,-8 -5,-11l-85 -71zm-234 27c-11,17 -29,27 -48,27l-81 0 0 56 81 0c39,0 75,-20 96,-53l5 -8 -34 -54 -19 32zm139 -117c11,-16 29,-26 48,-26l24 0 0 42c0,6 3,11 8,13 2,1 4,1 6,1 3,0 6,-1 9,-3l85 -71c3,-2 5,-6 5,-10 0,-5 -2,-9 -5,-11l-85 -71c-4,-4 -10,-4 -15,-2 -5,2 -8,7 -8,13l0 42 -24 0c-39,0 -75,20 -96,53l-5 9 33 53 20 -32z"/>
 </g>
</svg>
