<?xml version="1.0" encoding="UTF-8"?>
<!DOCTYPE svg PUBLIC "-//W3C//DTD SVG 1.1//EN" "http://www.w3.org/Graphics/SVG/1.1/DTD/svg11.dtd">
<!-- Creator: CorelDRAW X7 -->
<svg xmlns="http://www.w3.org/2000/svg" xml:space="preserve" width="0.787402in" height="0.787402in" version="1.1" style="shape-rendering:geometricPrecision; text-rendering:geometricPrecision; image-rendering:optimizeQuality; fill-rule:evenodd; clip-rule:evenodd"
viewBox="0 0 787 787"
 xmlns:xlink="http://www.w3.org/1999/xlink">
 <defs>
  <style type="text/css">
   <![CDATA[
    .fil0 {fill:black}
   ]]>
  </style>
 </defs>
 <g id="Layer_x0020_1">
  <metadata id="CorelCorpID_0Corel-Layer"/>
  <path class="fil0" d="M394 39c195,0 354,159 354,355 0,195 -159,354 -354,354 -196,0 -355,-159 -355,-354 0,-196 159,-355 355,-355zm-36 528l-99 0 0 -37 62 0 0 -25 -62 0 0 -37 38 0 0 -25 -38 0 0 -37 62 0 0 -25 -62 0 0 -37 38 0 0 -25 -38 0 0 -37 62 0 0 -24 -62 0 0 -37 99 0 0 346zm136 -18l0 -311 41 41 18 -18 -62 -62c-3,-2 -6,-3 -9,-3 -3,0 -6,1 -9,3l-62 62 18 18 41 -41 0 311 -41 -40 -17 17 61 62c3,2 6,4 9,4l0 0c3,0 6,-2 9,-4l62 -62 -18 -17 -41 40zm-123 -353l-124 0c-7,0 -12,5 -12,12l0 371c0,7 5,13 12,13l124 0c7,0 12,-6 12,-13l0 -371c0,-7 -5,-12 -12,-12z"/>
 </g>
</svg>
