<?xml version="1.0" encoding="UTF-8"?>
<!DOCTYPE svg PUBLIC "-//W3C//DTD SVG 1.1//EN" "http://www.w3.org/Graphics/SVG/1.1/DTD/svg11.dtd">
<!-- Creator: CorelDRAW X7 -->
<svg xmlns="http://www.w3.org/2000/svg" xml:space="preserve" width="0.787402in" height="0.787402in" version="1.1" style="shape-rendering:geometricPrecision; text-rendering:geometricPrecision; image-rendering:optimizeQuality; fill-rule:evenodd; clip-rule:evenodd"
viewBox="0 0 787 787"
 xmlns:xlink="http://www.w3.org/1999/xlink">
 <defs>
  <style type="text/css">
   <![CDATA[
    .fil0 {fill:black}
   ]]>
  </style>
 </defs>
 <g id="Layer_x0020_1">
  <metadata id="CorelCorpID_0Corel-Layer"/>
  <g id="_2232333075456">
   <path class="fil0" d="M267 316c-7,0 -14,-4 -18,-10 -21,-31 -32,-67 -32,-104 0,-38 11,-74 32,-104 7,-11 20,-13 31,-6 10,7 12,20 5,30 -16,24 -24,51 -24,80 0,28 8,56 24,79 7,10 5,24 -5,31 -4,3 -9,4 -13,4z"/>
   <path class="fil0" d="M194 364c-7,0 -14,-3 -18,-9 -31,-46 -48,-98 -48,-153 0,-55 17,-108 48,-153 7,-10 21,-13 31,-6 10,7 12,21 5,31 -26,38 -40,82 -40,128 0,46 14,90 40,127 7,10 5,24 -5,31 -4,3 -8,4 -13,4z"/>
   <path class="fil0" d="M520 316c-4,0 -8,-1 -12,-4 -10,-7 -13,-21 -6,-31 16,-23 25,-51 25,-79 0,-29 -9,-56 -25,-80 -7,-10 -4,-23 6,-30 10,-7 24,-5 31,6 21,30 32,66 32,104 0,37 -11,73 -32,104 -5,6 -12,10 -19,10z"/>
   <path class="fil0" d="M593 364c-4,0 -9,-1 -12,-4 -10,-7 -13,-21 -6,-31 26,-37 40,-81 40,-127 0,-46 -14,-90 -40,-128 -7,-10 -4,-24 6,-31 10,-7 24,-4 30,6 32,45 48,98 48,153 0,55 -16,107 -48,153 -4,6 -11,9 -18,9z"/>
   <path class="fil0" d="M394 276c-41,0 -74,-34 -74,-74 0,-41 33,-74 74,-74 40,0 74,33 74,74 0,40 -34,74 -74,74zm0 -104c-17,0 -30,14 -30,30 0,16 13,29 30,29 16,0 29,-13 29,-29 0,-16 -13,-30 -29,-30z"/>
   <path class="fil0" d="M536 748l-285 0c-17,0 -33,-8 -42,-22 -10,-14 -12,-31 -7,-47l152 -429c4,-11 17,-17 29,-13 4,1 8,5 11,9 2,-4 6,-8 11,-9 11,-4 24,2 28,13l152 429c6,16 3,33 -6,47 -10,14 -26,22 -43,22zm-142 -477l-150 423c-1,3 0,5 1,7 1,1 3,3 6,3l285 0c4,0 6,-2 6,-3 1,-2 2,-4 1,-7l-149 -423z"/>
   <path class="fil0" d="M231 732c-8,0 -16,-5 -20,-14 -5,-11 0,-24 12,-29l240 -104 -175 -69c-8,-3 -14,-10 -14,-19 -1,-8 3,-17 11,-21l164 -94c11,-6 24,-3 30,8 6,11 3,24 -8,30l-124 72 182 71c8,3 14,11 14,20 0,9 -5,17 -13,21l-290 126c-3,1 -6,2 -9,2z"/>
  </g>
 </g>
</svg>
