<?xml version="1.0" encoding="UTF-8"?>
<!DOCTYPE svg PUBLIC "-//W3C//DTD SVG 1.1//EN" "http://www.w3.org/Graphics/SVG/1.1/DTD/svg11.dtd">
<!-- Creator: CorelDRAW X7 -->
<svg xmlns="http://www.w3.org/2000/svg" xml:space="preserve" width="0.787402in" height="0.787402in" version="1.1" style="shape-rendering:geometricPrecision; text-rendering:geometricPrecision; image-rendering:optimizeQuality; fill-rule:evenodd; clip-rule:evenodd"
viewBox="0 0 787 787"
 xmlns:xlink="http://www.w3.org/1999/xlink">
 <defs>
  <style type="text/css">
   <![CDATA[
    .fil0 {fill:black}
   ]]>
  </style>
 </defs>
 <g id="Layer_x0020_1">
  <metadata id="CorelCorpID_0Corel-Layer"/>
  <path class="fil0" d="M564 315c-15,-16 -40,-16 -55,0l-112 111c-5,-1 -11,-2 -17,-2 -41,0 -74,34 -74,75 0,41 33,74 74,74 41,0 75,-33 75,-74 0,-6 -1,-12 -2,-17l111 -112c15,-15 15,-40 0,-55zm6 355l-353 0c-21,0 -39,17 -39,39 0,21 18,39 39,39l353 0c22,0 39,-18 39,-39 0,-22 -17,-39 -39,-39zm128 -505c-84,-84 -194,-126 -304,-126l0 0c-111,0 -221,42 -305,126 -145,145 -167,374 -53,544 12,18 36,23 54,11 18,-12 23,-37 11,-55 -32,-47 -51,-101 -57,-155l37 0c21,0 39,-18 39,-39 0,-22 -18,-39 -39,-39l-37 0c7,-65 32,-129 74,-182l27 27c7,8 17,12 27,12 10,0 20,-4 28,-12 15,-15 15,-40 0,-55l-27 -27c54,-43 118,-68 183,-75l0 37c0,21 18,39 39,39 22,0 39,-18 39,-39l0 -37c65,7 127,32 180,75l-27 27c-15,15 -15,40 0,55 8,8 18,12 28,12 10,0 20,-4 28,-12l26 -27c42,54 68,117 75,182l-37 0c-22,0 -39,17 -39,39 0,21 17,39 39,39l36 0c-6,54 -25,108 -57,155 -12,18 -7,43 11,55 7,4 14,6 22,6 13,0 25,-6 32,-17 114,-170 92,-399 -53,-544z"/>
 </g>
</svg>
