<?xml version="1.0" encoding="UTF-8"?>
<!DOCTYPE svg PUBLIC "-//W3C//DTD SVG 1.1//EN" "http://www.w3.org/Graphics/SVG/1.1/DTD/svg11.dtd">
<!-- Creator: CorelDRAW X7 -->
<svg xmlns="http://www.w3.org/2000/svg" xml:space="preserve" width="0.787402in" height="0.787402in" version="1.1" style="shape-rendering:geometricPrecision; text-rendering:geometricPrecision; image-rendering:optimizeQuality; fill-rule:evenodd; clip-rule:evenodd"
viewBox="0 0 787 787"
 xmlns:xlink="http://www.w3.org/1999/xlink">
 <defs>
  <style type="text/css">
   <![CDATA[
    .fil0 {fill:black}
   ]]>
  </style>
 </defs>
 <g id="Layer_x0020_1">
  <metadata id="CorelCorpID_0Corel-Layer"/>
  <path class="fil0" d="M724 423c0,7 -6,13 -13,13l-635 0c-7,0 -13,-6 -13,-13l0 -188c0,-6 5,-12 12,-12l638 0c6,0 11,6 11,12l0 188zm-86 69l-16 -17c-18,17 -19,44 -2,62 0,1 1,1 2,2 3,2 4,6 4,10 -1,8 -11,17 -15,19l7 10 7 10c12,-9 21,-22 25,-37 1,-11 -4,-22 -12,-29 -8,-7 -9,-20 -2,-29 1,0 2,-1 2,-1zm-94 0l-17 -17c-18,17 -18,44 -2,62 1,1 1,1 2,2 3,2 5,6 5,10 -1,8 -11,17 -15,19l7 10 6 10c13,-9 22,-22 25,-37 1,-11 -3,-22 -11,-29 -9,-7 -10,-20 -2,-29 0,0 1,-1 2,-1zm-95 0l-16 -17c-18,17 -19,44 -2,62 0,1 1,1 2,2 3,2 4,6 4,10 -1,8 -11,17 -14,19l6 10 7 10c13,-9 22,-22 25,-37 1,-11 -4,-22 -12,-29 -8,-7 -9,-20 -2,-29 1,0 2,-1 2,-1zm-94 0l-17 -17c-18,17 -18,44 -2,62 1,1 1,1 2,2 3,2 5,6 5,10 -1,8 -11,17 -15,19l7 10 6 10c13,-9 22,-22 25,-37 1,-11 -3,-22 -11,-29 -9,-7 -9,-20 -2,-29 1,0 1,-1 2,-1zm-95 0l-16 -17c-18,17 -19,44 -2,62 0,1 1,1 2,2 3,2 4,6 4,10 -1,8 -11,17 -14,19l6 10 7 10c13,-9 22,-22 25,-37 1,-11 -4,-22 -12,-29 -8,-7 -9,-20 -1,-29 0,0 1,-1 1,-1zm-94 0l-17 -17c-17,17 -18,44 -2,62 1,1 2,1 2,2 3,2 5,6 5,10 -1,8 -11,17 -15,19l7 10 6 10c13,-9 22,-22 25,-37 1,-11 -3,-22 -11,-29 -9,-7 -9,-20 -2,-29 1,0 1,-1 2,-1zm476 -245l23 0 0 24 -23 0 0 -24zm35 36l24 0 0 23 -24 0 0 -23zm0 -36l24 0 0 24 -24 0 0 -24zm-508 24l24 0 0 23 -24 0 0 -23zm-71 0l48 0 0 23 -48 0 0 -23zm567 130l-71 0 0 -24 71 0 0 24zm-165 -24l71 0 0 24 -71 0 0 -24zm-94 0l70 0 0 24 -70 0 0 -24zm-95 0l71 0 0 24 -71 0 0 -24zm-94 0l70 0 0 24 -70 0 0 -24zm-95 0l71 0 0 24 -71 0 0 -24zm555 -24l-567 0c-6,0 -12,6 -12,12l0 47c0,7 6,12 12,12l567 0c7,0 12,-5 12,-12l0 -47c0,-6 -5,-12 -12,-12zm36 -153l-638 0c-20,0 -36,16 -36,35l0 188c0,20 17,37 37,37l635 0c21,0 37,-17 37,-37l0 -188c0,-19 -16,-35 -35,-35z"/>
 </g>
</svg>
