<?xml version="1.0" encoding="UTF-8"?>
<!DOCTYPE svg PUBLIC "-//W3C//DTD SVG 1.1//EN" "http://www.w3.org/Graphics/SVG/1.1/DTD/svg11.dtd">
<!-- Creator: CorelDRAW X7 -->
<svg xmlns="http://www.w3.org/2000/svg" xml:space="preserve" width="0.787402in" height="0.787402in" version="1.1" style="shape-rendering:geometricPrecision; text-rendering:geometricPrecision; image-rendering:optimizeQuality; fill-rule:evenodd; clip-rule:evenodd"
viewBox="0 0 787 787"
 xmlns:xlink="http://www.w3.org/1999/xlink">
 <defs>
  <style type="text/css">
   <![CDATA[
    .fil0 {fill:black}
   ]]>
  </style>
 </defs>
 <g id="Layer_x0020_1">
  <metadata id="CorelCorpID_0Corel-Layer"/>
  <path class="fil0" d="M99 398c27,0 51,13 57,31l156 0 -43 -69c-14,-23 -21,-49 -21,-76 0,-81 65,-146 146,-146 80,0 146,65 146,146 0,26 -7,52 -21,74l-42 71 154 0c7,-18 30,-31 58,-31 32,0 59,18 59,42 0,23 -27,42 -59,42 -14,0 -27,-4 -37,-9l-106 60 -99 57c4,5 6,11 6,18 0,23 -27,42 -59,42 -33,0 -60,-19 -60,-42 0,-7 3,-13 6,-18l-99 -57 -106 -60c-10,5 -22,9 -36,9 -33,0 -60,-19 -60,-42 0,-24 27,-42 60,-42zm295 168c14,0 26,3 36,9l106 -60 99 -57c-1,-2 -3,-5 -4,-8l-167 0 -58 97c-2,4 -6,6 -10,6 0,0 0,0 0,0 -4,0 -8,-2 -11,-6l-60 -97 -169 0c-1,3 -2,6 -4,8l99 57 106 60c10,-6 23,-9 37,-9zm0 -234c-27,0 -49,-21 -49,-48 0,-27 22,-49 49,-49 27,0 48,22 48,49 0,26 -21,48 -48,48zm0 -121c-41,0 -73,32 -73,73 0,40 32,73 73,73 41,0 73,-34 73,-73 0,-41 -33,-73 -73,-73zm-53 218l53 0 0 0 54 0 50 -83c11,-19 17,-40 17,-62 0,-67 -54,-122 -121,-122 -67,0 -122,55 -122,122 0,22 6,44 18,64l51 81zm95 21l-40 67 -42 -67 40 0 0 0 42 0z"/>
 </g>
</svg>
