<?xml version="1.0" encoding="UTF-8"?>
<!DOCTYPE svg PUBLIC "-//W3C//DTD SVG 1.1//EN" "http://www.w3.org/Graphics/SVG/1.1/DTD/svg11.dtd">
<!-- Creator: CorelDRAW X7 -->
<svg xmlns="http://www.w3.org/2000/svg" xml:space="preserve" width="0.787402in" height="0.787402in" version="1.1" style="shape-rendering:geometricPrecision; text-rendering:geometricPrecision; image-rendering:optimizeQuality; fill-rule:evenodd; clip-rule:evenodd"
viewBox="0 0 787 787"
 xmlns:xlink="http://www.w3.org/1999/xlink">
 <defs>
  <style type="text/css">
   <![CDATA[
    .fil0 {fill:black}
   ]]>
  </style>
 </defs>
 <g id="Layer_x0020_1">
  <metadata id="CorelCorpID_0Corel-Layer"/>
  <g id="_2232378061536">
   <path class="fil0" d="M392 594c26,0 46,20 46,45 0,26 -20,46 -46,46 -25,0 -45,-20 -45,-46 0,-25 20,-45 45,-45z"/>
   <path class="fil0" d="M720 300c-7,0 -15,-3 -20,-9 -80,-86 -189,-133 -306,-133 -117,0 -226,47 -307,133 -10,12 -28,12 -39,2 -11,-11 -12,-28 -1,-39 91,-98 214,-152 347,-152 132,0 256,54 347,152 10,11 9,28 -2,39 -5,5 -12,7 -19,7z"/>
   <path class="fil0" d="M619 415c-7,0 -14,-3 -19,-8 -57,-57 -130,-89 -206,-89 -76,0 -149,32 -206,89 -11,11 -29,11 -39,0 -11,-11 -11,-28 -1,-39 68,-68 155,-105 246,-105 91,0 178,37 245,105 11,11 11,28 0,39 -6,6 -13,8 -20,8z"/>
   <path class="fil0" d="M276 530c-7,0 -14,-3 -19,-8 -11,-11 -11,-29 0,-39 36,-36 87,-58 134,-58 0,0 0,0 0,0l2 0c0,0 0,0 0,0 48,0 99,22 135,58 11,10 11,28 0,39 -10,11 -28,11 -39,0 -25,-25 -63,-42 -96,-42 0,0 0,0 0,0l-2 0c0,0 0,0 0,0 -32,0 -70,17 -95,42 -6,5 -13,8 -20,8z"/>
  </g>
 </g>
</svg>
