<?xml version="1.0" encoding="UTF-8"?>
<!DOCTYPE svg PUBLIC "-//W3C//DTD SVG 1.1//EN" "http://www.w3.org/Graphics/SVG/1.1/DTD/svg11.dtd">
<!-- Creator: CorelDRAW X7 -->
<svg xmlns="http://www.w3.org/2000/svg" xml:space="preserve" width="0.787402in" height="0.787402in" version="1.1" style="shape-rendering:geometricPrecision; text-rendering:geometricPrecision; image-rendering:optimizeQuality; fill-rule:evenodd; clip-rule:evenodd"
viewBox="0 0 787 787"
 xmlns:xlink="http://www.w3.org/1999/xlink">
 <defs>
  <style type="text/css">
   <![CDATA[
    .fil0 {fill:black}
   ]]>
  </style>
 </defs>
 <g id="Layer_x0020_1">
  <metadata id="CorelCorpID_0Corel-Layer"/>
  <path class="fil0" d="M685 533l-583 0c-9,0 -16,-7 -16,-17l0 -3 616 0 0 3c0,10 -8,17 -17,17zm-84 -168c1,0 6,1 6,5 0,6 -9,8 -19,8l-4 0 0 18 4 0c14,0 21,2 21,8 0,4 -5,6 -10,6 -11,0 -14,-7 -15,-8l-11 15c5,9 14,13 26,13 16,0 33,-6 33,-23 0,-11 -6,-20 -16,-22 8,-1 15,-7 15,-16 0,-13 -13,-23 -30,-23 -11,0 -23,4 -29,11l14 16c2,-3 6,-8 15,-8zm-81 25c-17,8 -20,18 -20,39l63 0 0 -19 -30 0c0,-5 7,-9 14,-13 10,-6 16,-12 16,-24 0,-17 -10,-27 -29,-27 -15,0 -28,7 -34,13l14 15c4,-4 11,-8 17,-8 4,0 7,2 7,7 0,9 -8,13 -18,17zm-64 -22l0 42 -16 0 0 19 53 0 0 -19 -14 0 0 -63 -23 0c0,0 -11,11 -19,11l0 20c6,0 17,-7 19,-10zm-66 20l36 0 0 19 -36 0 0 -19zm-40 42c13,0 28,-7 33,-19l-18 -11c-3,7 -9,10 -14,10 -11,0 -17,-10 -17,-22 0,-10 5,-21 16,-21 6,0 12,2 15,10l17 -12c-5,-11 -17,-18 -31,-18 -25,0 -40,21 -40,41 0,21 16,42 39,42zm-91 -33l18 0c4,0 6,3 6,7 0,4 -3,6 -7,6l-17 0 0 -13zm0 -31l16 0c3,0 5,2 5,7 0,5 -3,6 -6,6l-15 0 0 -13zm47 42c0,-11 -6,-18 -15,-21 8,-3 11,-11 11,-19 0,-10 -7,-21 -18,-21l-48 0 0 82 40 0c17,0 30,-6 30,-21zm-116 -37l8 27 -15 0 7 -27zm-16 58l5 -16 22 0 5 16 24 0 -31 -82 -18 0 -31 82 24 0zm528 -108l0 146 -616 0 0 -146 616 0zm-600 -66l583 0c9,0 17,7 17,16l0 3 -616 0 0 -3c0,-9 7,-16 16,-16zm583 -47l-583 0c-34,0 -63,28 -63,63l0 245c0,35 29,63 63,63l583 0c35,0 63,-28 63,-63l0 -245c0,-35 -28,-63 -63,-63z"/>
 </g>
</svg>
