<?xml version="1.0" encoding="UTF-8"?>
<!DOCTYPE svg PUBLIC "-//W3C//DTD SVG 1.1//EN" "http://www.w3.org/Graphics/SVG/1.1/DTD/svg11.dtd">
<!-- Creator: CorelDRAW X7 -->
<svg xmlns="http://www.w3.org/2000/svg" xml:space="preserve" width="0.787402in" height="0.787402in" version="1.1" style="shape-rendering:geometricPrecision; text-rendering:geometricPrecision; image-rendering:optimizeQuality; fill-rule:evenodd; clip-rule:evenodd"
viewBox="0 0 787 787"
 xmlns:xlink="http://www.w3.org/1999/xlink">
 <defs>
  <style type="text/css">
   <![CDATA[
    .fil0 {fill:black}
   ]]>
  </style>
 </defs>
 <g id="Layer_x0020_1">
  <metadata id="CorelCorpID_0Corel-Layer"/>
  <path class="fil0" d="M330 555c0,35 28,63 63,63 36,0 64,-28 64,-63 0,-36 -64,-199 -64,-199 0,0 -63,163 -63,199zm-233 -268l87 50c17,-25 39,-47 65,-65l-50 -86c-41,26 -75,61 -102,101zm-58 216c4,57 20,110 47,157l87 -50c-19,-32 -30,-68 -34,-107l-100 0zm550 -317l-50 86c25,18 47,40 65,65l86 -50c-26,-40 -61,-75 -101,-101zm59 317c-3,39 -15,75 -33,107l86 50c27,-47 44,-100 47,-157l-100 0zm-485 -130l-87 -50c-21,42 -34,89 -37,138l100 0c3,-31 11,-61 24,-88zm210 -245c-50,3 -96,16 -138,37l50 86c27,-12 56,-21 88,-23l0 -100zm275 333l100 0c-3,-49 -16,-96 -37,-138l-87 50c13,27 22,57 24,88zm-234 -333l0 100c32,2 62,11 89,23l50 -86c-42,-21 -89,-34 -139,-37z"/>
 </g>
</svg>
