<?xml version="1.0" encoding="UTF-8"?>
<!DOCTYPE svg PUBLIC "-//W3C//DTD SVG 1.1//EN" "http://www.w3.org/Graphics/SVG/1.1/DTD/svg11.dtd">
<!-- Creator: CorelDRAW X7 -->
<svg xmlns="http://www.w3.org/2000/svg" xml:space="preserve" width="0.787402in" height="0.787402in" version="1.1" style="shape-rendering:geometricPrecision; text-rendering:geometricPrecision; image-rendering:optimizeQuality; fill-rule:evenodd; clip-rule:evenodd"
viewBox="0 0 787 787"
 xmlns:xlink="http://www.w3.org/1999/xlink">
 <defs>
  <style type="text/css">
   <![CDATA[
    .fil0 {fill:black}
   ]]>
  </style>
 </defs>
 <g id="Layer_x0020_1">
  <metadata id="CorelCorpID_0Corel-Layer"/>
  <path class="fil0" d="M565 131l-240 0 0 -23 12 0c6,0 11,-5 11,-11l0 -46c0,-6 -5,-12 -11,-12l-160 0c-7,0 -12,6 -12,12l0 46c0,6 5,11 12,11l11 0 0 31c-27,13 -46,40 -46,72l0 457c0,44 36,80 80,80l343 0c44,0 80,-36 80,-80l0 -457c0,-44 -36,-80 -80,-80zm-137 423l-23 0c0,12 -10,23 -23,23l0 22c25,0 46,-20 46,-45zm-126 -3c0,42 31,77 71,82 3,0 6,1 9,1 20,0 39,-7 53,-21 17,-15 27,-36 27,-59l0 -3c0,-23 -5,-45 -16,-65l-54 -98c-4,-7 -16,-7 -20,0l-53 98c-11,20 -17,42 -17,65zm37 -54l43 -79 44 79c9,17 13,35 13,54l0 3c0,16 -7,32 -19,42 -12,11 -28,16 -45,14 -28,-3 -50,-29 -50,-59 0,-19 5,-37 14,-54zm6 -317c-2,-2 -5,-3 -8,-3l-103 0c-25,0 -46,20 -46,45l0 435c0,25 21,45 46,45l320 0c25,0 45,-20 45,-45l0 -218c0,-3 -1,-6 -3,-8l-251 -251zm232 477c0,12 -11,22 -23,22l-320 0c-13,0 -23,-10 -23,-22l0 -435c0,-12 10,-23 23,-23l98 0 245 245 0 213zm45 -446l0 178 -45 -46 0 -109c0,-19 -16,-35 -35,-35l-109 0 -46 -45 178 0c32,0 57,25 57,57zm-68 109l-98 -98 86 0c7,0 12,5 12,12l0 86zm-366 -258l137 0 0 23 -137 0 0 -23zm23 46l91 0 0 23 -80 0c-4,0 -7,0 -11,1l0 -24zm354 617l-343 0c-31,0 -57,-26 -57,-57l0 -457c0,-32 26,-57 57,-57l133 0 267 267 0 247c0,31 -25,57 -57,57z"/>
 </g>
</svg>
