<?xml version="1.0" encoding="UTF-8"?>
<!DOCTYPE svg PUBLIC "-//W3C//DTD SVG 1.1//EN" "http://www.w3.org/Graphics/SVG/1.1/DTD/svg11.dtd">
<!-- Creator: CorelDRAW X7 -->
<svg xmlns="http://www.w3.org/2000/svg" xml:space="preserve" width="0.787402in" height="0.787402in" version="1.1" style="shape-rendering:geometricPrecision; text-rendering:geometricPrecision; image-rendering:optimizeQuality; fill-rule:evenodd; clip-rule:evenodd"
viewBox="0 0 787 787"
 xmlns:xlink="http://www.w3.org/1999/xlink">
 <defs>
  <style type="text/css">
   <![CDATA[
    .fil0 {fill:black}
   ]]>
  </style>
 </defs>
 <g id="Layer_x0020_1">
  <metadata id="CorelCorpID_0Corel-Layer"/>
  <path class="fil0" d="M394 39c195,0 354,159 354,355 0,195 -159,354 -354,354 -196,0 -355,-159 -355,-354 0,-196 159,-355 355,-355zm-201 405l0 -184c0,-10 8,-18 18,-18l184 0c10,0 19,8 19,18l0 184c0,4 -3,6 -7,6l-208 0c-4,0 -6,-2 -6,-6zm148 63c0,21 -17,39 -38,39 -21,0 -39,-18 -39,-39 0,-21 18,-38 39,-38 21,0 38,17 38,38zm-19 0c0,-10 -9,-19 -19,-19 -11,0 -19,9 -19,19 0,11 8,19 19,19 10,0 19,-8 19,-19zm-52 -38l-86 0c-4,0 -6,3 -6,6l0 19c0,3 2,6 6,6l69 0c1,-12 8,-23 17,-31zm272 38c0,21 -17,39 -38,39 -22,0 -39,-18 -39,-39 0,-21 17,-38 39,-38 21,0 38,17 38,38zm-19 0c0,-10 -9,-19 -19,-19 -11,0 -20,9 -20,19 0,11 9,19 20,19 10,0 19,-8 19,-19zm87 -32l0 19c0,3 -3,6 -6,6l-50 0c-4,-25 -25,-43 -50,-43 -26,0 -47,18 -51,43l-100 0c-2,-12 -8,-23 -17,-31l95 0 0 -177c0,-6 6,-12 13,-12l58 0c16,0 31,8 41,22l37 55c6,9 9,18 9,28l0 84 15 0c3,0 6,3 6,6zm-63 -116l-30 -43c-1,-1 -3,-2 -5,-2l-47 0c-3,0 -6,2 -6,6l0 42c0,4 3,7 6,7l77 0c5,0 8,-6 5,-10z"/>
 </g>
</svg>
