<?xml version="1.0" encoding="UTF-8"?>
<!DOCTYPE svg PUBLIC "-//W3C//DTD SVG 1.1//EN" "http://www.w3.org/Graphics/SVG/1.1/DTD/svg11.dtd">
<!-- Creator: CorelDRAW X7 -->
<svg xmlns="http://www.w3.org/2000/svg" xml:space="preserve" width="0.787402in" height="0.787402in" version="1.1" style="shape-rendering:geometricPrecision; text-rendering:geometricPrecision; image-rendering:optimizeQuality; fill-rule:evenodd; clip-rule:evenodd"
viewBox="0 0 787 787"
 xmlns:xlink="http://www.w3.org/1999/xlink">
 <defs>
  <style type="text/css">
   <![CDATA[
    .fil0 {fill:black}
   ]]>
  </style>
 </defs>
 <g id="Layer_x0020_1">
  <metadata id="CorelCorpID_0Corel-Layer"/>
  <path class="fil0" d="M724 566l-16 17 -19 0 0 -213 19 0 16 17 0 179zm-519 -149l23 0 0 95 -23 0 0 -95zm0 -47l23 0 0 24 -23 0 0 -24zm261 121l0 31 -115 0c1,-12 5,-23 11,-33 6,-10 19,-24 37,-41 15,-14 24,-23 27,-28 5,-7 7,-14 7,-21 0,-7 -2,-13 -6,-16 -4,-4 -9,-6 -16,-6 -7,0 -13,2 -17,6 -4,4 -6,11 -7,20l-32 -3c2,-18 8,-31 18,-39 10,-8 23,-12 39,-12 16,0 30,5 39,14 10,9 15,21 15,34 0,8 -1,15 -4,22 -3,7 -7,15 -13,22 -4,5 -12,13 -22,22 -10,10 -17,16 -20,19 -3,3 -5,6 -6,9l65 0zm199 -3l-23 0 0 -47 23 0 0 47zm-47 -59l0 177 -24 0 0 -260 24 0 0 83zm-47 177l-277 0 -44 -65c-2,-4 -6,-6 -10,-6l-59 0 0 -189 59 0c4,0 8,-2 10,-5l44 -65 200 0 43 65c3,4 6,5 10,5l24 0 0 260zm-165 -378l0 24 -24 0 0 -24 24 0zm-119 -23l0 -24 213 0 0 24 -213 0zm-129 248l-24 0 0 -24 24 0 0 24zm-48 -36l0 118 -23 0 0 -94c0,-2 -1,-5 -2,-7l-22 -32 0 -28 18 -28 29 0 0 71zm611 -67c-2,-2 -5,-4 -8,-4l-36 0c-6,0 -12,6 -12,12l0 59 -23 0 0 -82c0,-7 -6,-12 -12,-12l-76 0 -44 -66c-2,-3 -6,-5 -10,-5l-71 0 0 -24 83 0c6,0 12,-5 12,-11l0 -48c0,-6 -6,-11 -12,-11l-236 0c-7,0 -12,5 -12,11l0 48c0,6 5,11 12,11l82 0 0 24 -71 0c-4,0 -7,2 -9,5l-44 66 -65 0c-6,0 -11,5 -11,12l0 71 -24 0 0 -71c0,-7 -5,-12 -12,-12l-47 0c-4,0 -8,2 -10,5l-24 36c-1,1 -2,4 -2,6l0 36c0,2 1,4 2,6l22 32 0 103c0,7 5,12 12,12l47 0c7,0 12,-5 12,-12l0 -71 24 0 0 71c0,7 5,12 11,12l65 0 44 66c2,3 5,5 9,5l343 0c6,0 12,-5 12,-12l0 -106 23 0 0 82c0,7 6,12 12,12l36 0c3,0 6,-1 8,-3l23 -24c3,-2 4,-5 4,-8l0 -189c0,-3 -1,-6 -4,-8l-23 -24z"/>
 </g>
</svg>
