<?xml version="1.0" encoding="UTF-8"?>
<!DOCTYPE svg PUBLIC "-//W3C//DTD SVG 1.1//EN" "http://www.w3.org/Graphics/SVG/1.1/DTD/svg11.dtd">
<!-- Creator: CorelDRAW X7 -->
<svg xmlns="http://www.w3.org/2000/svg" xml:space="preserve" width="0.787402in" height="0.787402in" version="1.1" style="shape-rendering:geometricPrecision; text-rendering:geometricPrecision; image-rendering:optimizeQuality; fill-rule:evenodd; clip-rule:evenodd"
viewBox="0 0 787 787"
 xmlns:xlink="http://www.w3.org/1999/xlink">
 <defs>
  <style type="text/css">
   <![CDATA[
    .fil0 {fill:black}
   ]]>
  </style>
 </defs>
 <g id="Layer_x0020_1">
  <metadata id="CorelCorpID_0Corel-Layer"/>
  <path class="fil0" d="M534 329c-13,-13 -33,-13 -46,0l-91 92c-5,-2 -10,-2 -15,-2 -33,0 -61,27 -61,61 0,34 28,62 61,62 34,0 62,-28 62,-62 0,-5 -1,-9 -2,-14l92 -92c13,-12 13,-33 0,-45zm5 292l-290 0c-18,0 -33,14 -33,32 0,18 15,32 33,32l290 0c18,0 32,-14 32,-32 0,-18 -14,-32 -32,-32zm105 -415c-69,-69 -160,-104 -250,-104l0 0c-91,0 -182,35 -251,104 -119,119 -138,307 -44,447 10,15 30,19 45,9 15,-10 19,-30 9,-45 -27,-39 -42,-83 -47,-128l30 0c18,0 32,-14 32,-32 0,-18 -14,-32 -32,-32l-30 0c5,-54 26,-106 61,-149l22 22c6,6 14,9 22,9 9,0 17,-3 23,-9 13,-13 13,-33 0,-46l-22 -22c45,-36 97,-56 151,-62l0 31c0,17 14,32 32,32 18,0 32,-15 32,-32l0 -31c53,6 105,27 148,62l-22 22c-12,13 -12,33 0,46 6,6 15,9 23,9 8,0 16,-3 23,-9l22 -22c34,43 55,95 61,149l-31 0c-17,0 -32,14 -32,32 0,18 15,32 32,32l31 0c-5,45 -21,89 -47,128 -10,15 -6,35 9,45 5,4 11,6 17,6 11,0 21,-5 27,-15 94,-140 76,-328 -44,-447z"/>
 </g>
</svg>
