<?xml version="1.0" encoding="UTF-8"?>
<!DOCTYPE svg PUBLIC "-//W3C//DTD SVG 1.1//EN" "http://www.w3.org/Graphics/SVG/1.1/DTD/svg11.dtd">
<!-- Creator: CorelDRAW X7 -->
<svg xmlns="http://www.w3.org/2000/svg" xml:space="preserve" width="0.787402in" height="0.787402in" version="1.1" style="shape-rendering:geometricPrecision; text-rendering:geometricPrecision; image-rendering:optimizeQuality; fill-rule:evenodd; clip-rule:evenodd"
viewBox="0 0 787 787"
 xmlns:xlink="http://www.w3.org/1999/xlink">
 <defs>
  <style type="text/css">
   <![CDATA[
    .fil0 {fill:black}
   ]]>
  </style>
 </defs>
 <g id="Layer_x0020_1">
  <metadata id="CorelCorpID_0Corel-Layer"/>
  <g id="_2232388496592">
   <path class="fil0" d="M668 725l-297 0c-32,0 -57,-26 -57,-57 0,-32 25,-57 57,-57l297 0c31,0 57,25 57,57 0,31 -26,57 -57,57zm-301 -288c1,-5 6,-9 11,-9l130 0c6,0 11,5 11,11l0 149 -148 0c-12,0 -24,3 -34,8l0 -7 30 -152zm38 -113c20,-6 34,-23 34,-45 0,-25 -20,-45 -45,-45 -9,0 -17,2 -23,6l-120 -119c3,-7 5,-15 5,-22l200 113c18,11 29,30 29,50l0 143 -80 0 0 -81zm-34 -45c0,-12 10,-22 23,-22 12,0 23,10 23,22 0,13 -11,23 -23,23 -13,0 -23,-10 -23,-23zm-214 151c-1,0 -2,-1 -3,-1l10 -288c10,8 22,13 35,13 3,0 5,-1 8,-1l-50 277zm46 219l31 24 0 6 -23 0 0 23 23 0 0 23 -75 0c-15,0 -29,-6 -40,-17l-34 -34c-15,-14 -23,-33 -23,-54 0,-18 7,-35 19,-49l32 -37c8,5 18,8 29,8 9,0 17,-2 25,-6l7 59c2,22 12,41 29,54zm-61 -198c19,0 35,15 35,34 0,19 -16,34 -35,34 -19,0 -34,-15 -34,-34 0,-19 15,-34 34,-34zm57 -389c19,0 35,16 35,35 0,18 -16,34 -35,34 -18,0 -34,-16 -34,-34 0,-19 16,-35 34,-35zm480 400l0 12 -91 0 0 23 103 0c6,0 11,5 11,11l0 88c-10,-5 -22,-8 -34,-8l-126 0 0 -91 23 0 0 -23 -23 0 0 -23 126 0c6,0 11,5 11,11zm46 150l0 -104c0,-15 -10,-27 -23,-32l0 -14c0,-19 -15,-34 -34,-34l-128 0c-5,-13 -17,-23 -32,-23l0 -143c0,-29 -16,-55 -40,-69l-219 -125c-10,-17 -29,-29 -50,-29 -31,0 -56,26 -57,57l0 0 -11 333c-26,5 -46,28 -46,56 0,12 4,24 11,33l-33 38c-15,18 -24,41 -24,64 0,27 11,52 29,70l35 35c15,15 35,23 56,23l86 0 12 0 22 0 0 -23 -22 0 0 -63 -40 -31c-12,-9 -19,-23 -21,-38l-8 -74c7,-9 11,-21 11,-34 0,-18 -8,-33 -21,-44l54 -297c2,-2 3,-3 5,-5l117 117c-4,7 -6,15 -6,23 0,22 15,39 34,45l0 81 -4 0c-16,0 -30,12 -33,28l-31 153 0 26c-14,14 -23,34 -23,56 0,44 36,80 80,80l297 0c44,0 80,-36 80,-80 0,-22 -9,-41 -23,-56z"/>
   <path class="fil0" d="M657 691c-13,0 -23,-10 -23,-23 0,-13 10,-23 23,-23 12,0 22,10 22,23 0,13 -10,23 -22,23zm-69 0c-13,0 -23,-10 -23,-23 0,-13 10,-23 23,-23 13,0 23,10 23,23 0,13 -10,23 -23,23zm-69 0c-12,0 -22,-10 -22,-23 0,-13 10,-23 22,-23 13,0 23,10 23,23 0,13 -10,23 -23,23zm-68 0c-13,0 -23,-10 -23,-23 0,-13 10,-23 23,-23 12,0 23,10 23,23 0,13 -11,23 -23,23zm-69 0c-12,0 -23,-10 -23,-23 0,-13 11,-23 23,-23 13,0 23,10 23,23 0,13 -10,23 -23,23zm275 -69c-14,0 -26,6 -35,16 -8,-10 -20,-16 -34,-16 -14,0 -26,6 -34,16 -9,-10 -21,-16 -35,-16 -13,0 -25,6 -34,16 -8,-10 -20,-16 -34,-16 -14,0 -26,6 -34,16 -9,-10 -21,-16 -35,-16 -25,0 -45,21 -45,46 0,25 20,46 45,46 14,0 26,-7 35,-16 8,9 20,16 34,16 14,0 26,-7 34,-16 9,9 21,16 34,16 14,0 26,-7 35,-16 8,9 20,16 34,16 14,0 26,-7 34,-16 9,9 21,16 35,16 25,0 45,-21 45,-46 0,-25 -20,-46 -45,-46z"/>
   <path class="fil0" d="M485 519l-91 0 9 -45 82 0 0 45zm23 -68l-124 0 -13 66 0 25 137 0 0 -91z"/>
   <polygon class="fil0" points="634,519 679,519 679,542 634,542 "/>
   <polygon class="fil0" points="565,519 611,519 611,542 565,542 "/>
  </g>
 </g>
</svg>
