<?xml version="1.0" encoding="UTF-8"?>
<!DOCTYPE svg PUBLIC "-//W3C//DTD SVG 1.1//EN" "http://www.w3.org/Graphics/SVG/1.1/DTD/svg11.dtd">
<!-- Creator: CorelDRAW X7 -->
<svg xmlns="http://www.w3.org/2000/svg" xml:space="preserve" width="0.787402in" height="0.787402in" version="1.1" style="shape-rendering:geometricPrecision; text-rendering:geometricPrecision; image-rendering:optimizeQuality; fill-rule:evenodd; clip-rule:evenodd"
viewBox="0 0 787 787"
 xmlns:xlink="http://www.w3.org/1999/xlink">
 <defs>
  <style type="text/css">
   <![CDATA[
    .fil0 {fill:black}
   ]]>
  </style>
 </defs>
 <g id="Layer_x0020_1">
  <metadata id="CorelCorpID_0Corel-Layer"/>
  <path class="fil0" d="M487 333c0,52 -42,93 -93,93 -52,0 -94,-41 -94,-93 0,-52 42,-93 94,-93 51,0 93,41 93,93zm114 207c56,-55 86,-129 86,-207 0,-162 -131,-294 -293,-294 -162,0 -294,132 -294,294 0,78 31,152 86,207l208 208 207 -208zm-381 -207c0,-96 78,-173 174,-173 95,0 173,77 173,173 0,96 -78,173 -173,173 -96,0 -174,-77 -174,-173z"/>
 </g>
</svg>
