<?xml version="1.0" encoding="UTF-8"?>
<!DOCTYPE svg PUBLIC "-//W3C//DTD SVG 1.1//EN" "http://www.w3.org/Graphics/SVG/1.1/DTD/svg11.dtd">
<!-- Creator: CorelDRAW X7 -->
<svg xmlns="http://www.w3.org/2000/svg" xml:space="preserve" width="0.787402in" height="0.787402in" version="1.1" style="shape-rendering:geometricPrecision; text-rendering:geometricPrecision; image-rendering:optimizeQuality; fill-rule:evenodd; clip-rule:evenodd"
viewBox="0 0 787 787"
 xmlns:xlink="http://www.w3.org/1999/xlink">
 <defs>
  <style type="text/css">
   <![CDATA[
    .fil0 {fill:black}
   ]]>
  </style>
 </defs>
 <g id="Layer_x0020_1">
  <metadata id="CorelCorpID_0Corel-Layer"/>
  <path class="fil0" d="M456 65c18,18 26,40 26,63l0 0c0,23 -8,45 -26,63 -34,34 -90,34 -125,0 -17,-18 -26,-40 -26,-63l0 0c0,-23 9,-45 26,-63 17,-17 40,-25 63,-26l0 0c22,1 45,9 62,26zm0 532c18,17 26,40 26,62l0 1c0,22 -8,45 -26,62 -17,17 -40,26 -62,26l0 0c-23,0 -46,-9 -63,-26 -17,-17 -26,-40 -26,-62l0 -1c0,-22 9,-45 26,-62 35,-35 91,-35 125,0zm0 -266c18,17 26,40 26,63l0 0c0,22 -8,45 -26,62 -34,35 -90,35 -125,0 -17,-17 -26,-40 -26,-62l0 0c0,-23 9,-46 26,-63 35,-35 91,-35 125,0z"/>
 </g>
</svg>
