<?xml version="1.0" encoding="UTF-8"?>
<!DOCTYPE svg PUBLIC "-//W3C//DTD SVG 1.1//EN" "http://www.w3.org/Graphics/SVG/1.1/DTD/svg11.dtd">
<!-- Creator: CorelDRAW X7 -->
<svg xmlns="http://www.w3.org/2000/svg" xml:space="preserve" width="0.787402in" height="0.787402in" version="1.1" style="shape-rendering:geometricPrecision; text-rendering:geometricPrecision; image-rendering:optimizeQuality; fill-rule:evenodd; clip-rule:evenodd"
viewBox="0 0 787 787"
 xmlns:xlink="http://www.w3.org/1999/xlink">
 <defs>
  <style type="text/css">
   <![CDATA[
    .fil0 {fill:black}
   ]]>
  </style>
 </defs>
 <g id="Layer_x0020_1">
  <metadata id="CorelCorpID_0Corel-Layer"/>
  <path class="fil0" d="M394 39c195,0 354,159 354,355 0,195 -159,354 -354,354 -196,0 -355,-159 -355,-354 0,-196 159,-355 355,-355zm-18 161c65,0 125,32 161,86 7,11 4,25 -7,33 -10,7 -25,4 -32,-7 -28,-40 -73,-65 -122,-65 -81,0 -146,66 -146,147 0,80 65,146 146,146 49,0 94,-24 121,-64 8,-11 22,-14 33,-7 11,7 14,22 7,33 -36,53 -97,85 -161,85 -107,0 -194,-86 -194,-193 0,-107 87,-194 194,-194zm246 217l-274 0c-13,0 -24,-10 -24,-23 0,-13 11,-24 24,-24l274 0 -30 -31c-9,-9 -9,-24 0,-33 9,-9 24,-9 33,0l71 71c1,0 1,1 2,2 0,0 0,0 0,0 1,1 1,1 1,2 0,0 0,0 1,0 0,0 0,1 0,2 1,0 1,0 1,0 0,0 0,1 0,2 1,0 1,0 1,0 0,0 0,1 0,2 0,0 0,0 0,0 1,1 1,1 1,2 0,0 0,0 0,1 0,0 0,1 0,1 0,1 0,2 0,3 0,0 0,1 0,2 0,1 0,1 0,2 0,0 0,0 0,0 0,1 0,2 -1,2 0,0 0,1 0,1 0,0 0,1 0,2 0,0 0,0 -1,0 0,0 0,1 0,2 0,0 0,0 -1,0 0,0 0,1 0,1 -1,1 -1,1 -1,1 0,0 0,1 -1,1 0,0 0,1 0,1 -1,0 -1,1 -2,1l-71 71c-4,5 -10,7 -16,7 -6,0 -13,-2 -17,-7 -9,-9 -9,-24 0,-33l30 -31z"/>
 </g>
</svg>
