<?xml version="1.0" encoding="UTF-8"?>
<!DOCTYPE svg PUBLIC "-//W3C//DTD SVG 1.1//EN" "http://www.w3.org/Graphics/SVG/1.1/DTD/svg11.dtd">
<!-- Creator: CorelDRAW X7 -->
<svg xmlns="http://www.w3.org/2000/svg" xml:space="preserve" width="0.787402in" height="0.787402in" version="1.1" style="shape-rendering:geometricPrecision; text-rendering:geometricPrecision; image-rendering:optimizeQuality; fill-rule:evenodd; clip-rule:evenodd"
viewBox="0 0 787 787"
 xmlns:xlink="http://www.w3.org/1999/xlink">
 <defs>
  <style type="text/css">
   <![CDATA[
    .fil0 {fill:black}
   ]]>
  </style>
 </defs>
 <g id="Layer_x0020_1">
  <metadata id="CorelCorpID_0Corel-Layer"/>
  <path class="fil0" d="M416 748l-45 0c-36,0 -65,-29 -65,-65l0 -15c-15,-5 -30,-11 -44,-19l-11 11c-26,26 -67,25 -92,0l-32 -32c-25,-25 -25,-66 0,-92l11 -10c-7,-15 -13,-30 -18,-45l-15 0c-36,0 -66,-29 -66,-65l0 -45c0,-36 30,-65 66,-65l15 0c5,-15 11,-30 18,-44l-11 -11c-25,-26 -25,-67 0,-92l32 -32c25,-25 66,-25 92,0l11 11c14,-7 29,-13 44,-18l0 -15c0,-36 29,-66 65,-66l45 0c36,0 65,30 65,66l0 15c15,5 30,11 45,18l10 -11c26,-25 67,-25 92,0l32 32c25,25 26,66 0,92l-11 11c8,14 14,29 19,44l15 0c36,0 65,29 65,65l0 45c0,36 -29,65 -65,65l-15 0c-5,15 -11,30 -19,45l11 10c26,26 25,67 0,92l-32 32c-25,25 -66,26 -92,0l-10 -11c-15,8 -30,14 -45,19l0 15c0,36 -29,65 -65,65zm-22 -200c-85,0 -154,-69 -154,-154 0,-85 69,-154 154,-154 85,0 154,69 154,154 0,85 -69,154 -154,154zm0 -267c-62,0 -113,51 -113,113 0,62 51,112 113,112 62,0 112,-50 112,-112 0,-62 -50,-113 -112,-113zm-125 325c20,11 41,20 63,26 9,2 16,11 16,20l0 31c0,13 10,23 23,23l45 0c13,0 24,-10 24,-23l0 -31c0,-9 6,-18 15,-20 22,-6 44,-15 64,-26 8,-5 18,-4 25,3l22 22c9,9 24,9 33,0l32 -32c9,-9 9,-24 0,-33l-22 -22c-7,-7 -8,-17 -3,-25 11,-20 20,-42 26,-64 2,-9 11,-15 20,-15l31 0c13,0 23,-11 23,-24l0 -45c0,-13 -10,-23 -23,-23l-31 0c-9,0 -18,-7 -20,-16 -6,-22 -15,-43 -26,-63 -5,-8 -4,-19 3,-25l22 -22c9,-10 9,-25 0,-34l-32 -31c-9,-9 -24,-10 -33,0l-22 22c-7,6 -17,8 -25,3 -20,-12 -42,-21 -64,-27 -9,-2 -15,-10 -15,-20l0 -30c0,-13 -11,-24 -24,-24l-45 0c-13,0 -23,11 -23,24l0 30c0,10 -7,18 -16,20 -22,6 -43,15 -63,27 -8,5 -19,3 -25,-3l-22 -22c-10,-10 -25,-9 -34,0l-31 31c-9,9 -10,24 0,34l22 22c6,6 8,17 3,25 -12,20 -21,41 -27,63 -2,9 -10,16 -20,16l-30 0c-13,0 -24,10 -24,23l0 45c0,13 11,24 24,24l30 0c10,0 18,6 20,15 6,22 15,44 27,64 5,8 3,18 -3,25l-22 22c-10,9 -9,24 0,33l31 32c9,9 24,9 34,0l22 -22c4,-5 15,-9 25,-3z"/>
 </g>
</svg>
