<?xml version="1.0" encoding="UTF-8"?>
<!DOCTYPE svg PUBLIC "-//W3C//DTD SVG 1.1//EN" "http://www.w3.org/Graphics/SVG/1.1/DTD/svg11.dtd">
<!-- Creator: CorelDRAW X7 -->
<svg xmlns="http://www.w3.org/2000/svg" xml:space="preserve" width="0.787402in" height="0.787402in" version="1.1" style="shape-rendering:geometricPrecision; text-rendering:geometricPrecision; image-rendering:optimizeQuality; fill-rule:evenodd; clip-rule:evenodd"
viewBox="0 0 787 787"
 xmlns:xlink="http://www.w3.org/1999/xlink">
 <defs>
  <style type="text/css">
   <![CDATA[
    .fil0 {fill:black}
   ]]>
  </style>
 </defs>
 <g id="Layer_x0020_1">
  <metadata id="CorelCorpID_0Corel-Layer"/>
  <g>
   <path class="fil0" d="M394 39c195,0 354,159 354,355 0,195 -159,354 -354,354 -196,0 -355,-159 -355,-354 0,-196 159,-355 355,-355zm-108 382l0 0 0 0 0 -54 0 0 0 0 -61 0 0 0 0 0 0 0 0 0 31 27 30 27zm108 -106c-29,0 -52,-23 -52,-52 0,-28 23,-52 52,-52 28,0 52,24 52,52 0,29 -24,52 -52,52l0 0zm0 130c-29,0 -52,-23 -52,-52 0,-28 23,-52 52,-52 28,0 52,24 52,52l0 0c0,29 -24,52 -52,52l0 0zm0 130c-29,0 -52,-23 -52,-52 0,-29 23,-52 52,-52 28,0 52,23 52,52 0,0 0,0 0,0 -1,29 -24,52 -52,52zm88 -352c0,-15 -12,-27 -27,-27 0,0 0,0 0,0l-125 0c-14,0 -26,12 -26,27 0,0 0,0 0,0l0 342c0,15 12,27 26,27 0,0 0,0 0,0l125 0c15,0 27,-12 27,-27 0,0 0,0 0,0l0 -342zm17 144l0 0 0 0 0 54 0 0 0 0 31 -27 33 -27 -1 0 1 0 0 0 0 0 -64 0zm-82 52c-1,1 -1,1 -2,2l2 -2zm-2 2c0,0 -1,1 -1,1l1 -1zm-1 1c-1,0 -2,1 -2,1l2 -1zm-2 1c-1,1 -1,1 -2,1l2 -1zm-4 2c-1,1 -2,1 -2,1l2 -1zm-2 1c-1,1 -2,1 -3,1l3 -1zm-5 2c-1,0 -1,0 -2,0l2 0zm-2 0c-1,0 -1,0 -2,0l2 0zm-2 0c0,0 -1,0 -2,0l2 0zm-2 0c0,0 -1,0 -1,0 -1,0 -1,0 -2,0l3 0zm-3 0c-1,0 -1,0 -2,0l2 0zm-2 0c0,0 -1,0 -2,0l2 0zm-2 0c0,0 -1,0 -1,0l1 0zm-3 -1c-1,0 -2,0 -3,-1l3 1zm-3 -1c-1,0 -1,0 -2,0l2 0zm-2 0c0,-1 -1,-1 -1,-1l1 1zm-1 -1c-2,-1 -4,-2 -5,-3l5 3zm-6 -4c-1,0 -2,-1 -3,-2l3 2zm-3 -2c-1,-1 -1,-1 -1,-1l1 1zm-3 -3c0,-1 -1,-1 -1,-2l1 2zm-5 -36l0 0 0 0zm0 0l0 0 0 0zm0 -1l0 0 0 0zm0 0l0 0 0 0zm0 0l0 0 0 0zm0 0l0 0 0 0zm0 0l0 0 0 0zm25 -19c1,0 1,-1 2,-1l-2 1zm3 -1c1,0 3,0 4,0 1,0 2,0 3,0l-7 0zm8 0c1,0 2,1 3,1l-3 -1zm4 1c4,1 7,3 10,4l-10 -4zm10 4c1,1 1,1 2,1l-2 -1zm2 1c1,1 1,1 2,2l-2 -2zm2 2c1,1 1,1 2,2l-2 -2zm2 2c0,0 0,0 1,1l-1 -1zm1 1c0,0 1,1 1,1l-1 -1zm1 2c1,0 1,1 1,1l-1 -1zm2 2c0,0 1,1 1,1l-1 -1zm1 1c0,0 0,1 1,1l-1 -1zm1 2c0,0 0,0 1,1l-1 -1zm-62 3l0 0 0 0zm0 0l0 0 0 0zm0 -1l0 0 0 0zm0 0l0 0 0 0z"/>
  </g>
 </g>
</svg>
