<?xml version="1.0" encoding="UTF-8"?>
<!DOCTYPE svg PUBLIC "-//W3C//DTD SVG 1.1//EN" "http://www.w3.org/Graphics/SVG/1.1/DTD/svg11.dtd">
<!-- Creator: CorelDRAW X7 -->
<svg xmlns="http://www.w3.org/2000/svg" xml:space="preserve" width="0.787402in" height="0.787402in" version="1.1" style="shape-rendering:geometricPrecision; text-rendering:geometricPrecision; image-rendering:optimizeQuality; fill-rule:evenodd; clip-rule:evenodd"
viewBox="0 0 787 787"
 xmlns:xlink="http://www.w3.org/1999/xlink">
 <defs>
  <style type="text/css">
   <![CDATA[
    .fil0 {fill:#2B2A29}
   ]]>
  </style>
 </defs>
 <g id="Layer_x0020_1">
  <metadata id="CorelCorpID_0Corel-Layer"/>
  <path class="fil0" d="M394 39c195,0 354,159 354,355 0,195 -159,354 -354,354 -196,0 -355,-159 -355,-354 0,-196 159,-355 355,-355zm197 527l-99 0 0 -33c0,-5 0,-10 0,-15 -1,-1 -1,-3 -1,-4 0,-4 -1,-7 -2,-11 0,-2 0,-3 -1,-5 0,-3 -1,-7 -2,-10 -1,-2 -1,-3 -1,-4 -5,-15 -12,-29 -20,-42l-1 0c-3,-5 -6,-9 -9,-13l0 0c-3,-4 -7,-8 -11,-12 1,0 1,0 1,0 5,1 9,1 14,1l1 0c4,0 9,0 13,0 1,-1 3,-1 4,-1 3,-1 7,-1 10,-2 1,0 2,-1 3,-1 5,-1 9,-3 13,-4 53,18 88,68 88,123l0 33zm-394 -33c-1,-55 34,-105 87,-123 28,11 60,11 88,0 6,2 11,4 16,7 3,1 7,3 10,5 2,2 4,3 6,5 3,2 6,4 9,7 2,1 4,3 6,5 3,2 5,5 8,8 1,2 3,4 5,6 2,3 4,6 6,8 1,3 3,5 4,8 2,3 4,6 5,9 1,3 2,6 4,9 1,3 2,5 3,8 1,4 2,8 2,12 1,2 2,4 2,7 1,6 1,13 1,19l0 33 -262 0 0 -33zm49 -230c0,-45 36,-82 82,-82 21,0 41,8 56,23 1,1 2,2 3,3 3,3 6,6 8,9 1,1 1,2 2,4 2,3 4,7 6,11 1,1 1,1 1,2 2,5 3,9 4,14 0,0 0,1 1,1 2,10 2,21 0,31 -1,0 -1,1 -1,1 -1,5 -2,9 -4,14 0,1 0,1 -1,2 -2,4 -4,8 -6,11 -1,2 -1,3 -2,4 -2,3 -5,6 -8,9 -1,1 -2,2 -3,3 -6,6 -14,11 -22,15 -2,1 -3,1 -4,2 -4,1 -8,3 -12,4 -1,0 -3,0 -4,0 -4,1 -9,1 -13,2l-2 0c-4,-1 -9,-1 -13,-2 -2,0 -3,0 -4,0 -4,-1 -8,-3 -12,-4 -1,-1 -3,-1 -4,-2 -29,-13 -48,-42 -48,-75zm213 -82c46,0 83,37 83,82 0,33 -19,62 -49,75 -1,1 -2,1 -4,2 -4,1 -8,3 -12,4 -1,0 -2,0 -3,0 -4,1 -9,2 -14,2 -2,0 -4,-1 -7,-1 0,0 -1,0 -2,0 -9,-1 -19,-4 -27,-8 0,0 -1,0 -1,0 -2,-1 -3,-2 -5,-3 0,0 1,0 1,0 7,-10 13,-21 17,-32l1 -1c2,-6 3,-12 4,-17 0,-1 0,-2 0,-3 1,-6 2,-12 2,-18 0,-5 -1,-11 -2,-17 0,-1 0,-2 0,-3 -1,-5 -2,-11 -4,-17l-1 -1c-4,-12 -10,-22 -17,-32 0,0 -1,0 -1,-1 13,-7 27,-11 41,-11zm78 167c47,-42 51,-115 8,-162 -39,-43 -104,-50 -151,-17 -52,-36 -124,-24 -160,28 -34,47 -27,113 17,151 -54,29 -88,85 -87,145l0 50c0,9 7,16 16,16l427 0c9,0 17,-7 17,-16l0 -50c0,-60 -34,-116 -87,-145z"/>
 </g>
</svg>
