<?xml version="1.0" encoding="UTF-8"?>
<!DOCTYPE svg PUBLIC "-//W3C//DTD SVG 1.1//EN" "http://www.w3.org/Graphics/SVG/1.1/DTD/svg11.dtd">
<!-- Creator: CorelDRAW X7 -->
<svg xmlns="http://www.w3.org/2000/svg" xml:space="preserve" width="0.787402in" height="0.787402in" version="1.1" style="shape-rendering:geometricPrecision; text-rendering:geometricPrecision; image-rendering:optimizeQuality; fill-rule:evenodd; clip-rule:evenodd"
viewBox="0 0 787 787"
 xmlns:xlink="http://www.w3.org/1999/xlink">
 <defs>
  <style type="text/css">
   <![CDATA[
    .fil0 {fill:black}
   ]]>
  </style>
 </defs>
 <g id="Layer_x0020_1">
  <metadata id="CorelCorpID_0Corel-Layer"/>
  <path class="fil0" d="M394 39c195,0 354,159 354,355 0,195 -159,354 -354,354 -196,0 -355,-159 -355,-354 0,-196 159,-355 355,-355zm167 492c0,42 -87,61 -167,61 -81,0 -168,-19 -168,-61 0,-32 48,-48 88,-55 9,-1 16,4 18,13 1,8 -4,16 -12,17 -49,9 -63,22 -63,25 2,8 48,30 137,30 89,0 134,-22 137,-31 -1,-2 -15,-15 -64,-24 -8,-1 -13,-9 -12,-17 1,-9 9,-14 18,-13 40,7 88,22 88,55zm-228 -92l15 0 0 92c0,8 7,15 15,15l61 0c9,0 15,-7 15,-15l0 -92 16 0c8,0 15,-6 15,-15l0 -91c0,-8 -12,-25 -34,-28 -8,-1 -25,-2 -42,-2 -17,0 -34,1 -43,2 -21,3 -33,20 -33,28l0 91c0,9 6,15 15,15zm61 -152c25,0 45,-20 45,-46 0,-25 -20,-45 -45,-45 -25,0 -46,20 -46,45 0,26 21,46 46,46z"/>
 </g>
</svg>
