<?xml version="1.0" encoding="UTF-8"?>
<!DOCTYPE svg PUBLIC "-//W3C//DTD SVG 1.1//EN" "http://www.w3.org/Graphics/SVG/1.1/DTD/svg11.dtd">
<!-- Creator: CorelDRAW X7 -->
<svg xmlns="http://www.w3.org/2000/svg" xml:space="preserve" width="0.787402in" height="0.787402in" version="1.1" style="shape-rendering:geometricPrecision; text-rendering:geometricPrecision; image-rendering:optimizeQuality; fill-rule:evenodd; clip-rule:evenodd"
viewBox="0 0 787 787"
 xmlns:xlink="http://www.w3.org/1999/xlink">
 <defs>
  <style type="text/css">
   <![CDATA[
    .fil0 {fill:black}
   ]]>
  </style>
 </defs>
 <g id="Layer_x0020_1">
  <metadata id="CorelCorpID_0Corel-Layer"/>
  <path class="fil0" d="M394 39c195,0 354,159 354,355 0,195 -159,354 -354,354 -196,0 -355,-159 -355,-354 0,-196 159,-355 355,-355zm-191 375l35 0c9,71 65,126 135,135l0 36c0,4 3,7 7,7l27 0c4,0 7,-3 7,-7l0 -36c71,-9 126,-64 135,-135l36 0c4,0 7,-3 7,-7l0 -27c0,-4 -3,-7 -7,-7l-36 0c-9,-70 -64,-126 -135,-135l0 -35c0,-4 -3,-7 -7,-7l-27 0c-4,0 -7,3 -7,7l0 35c-70,9 -126,65 -135,135l-35 0c-4,0 -7,3 -7,7l0 27c0,4 3,7 7,7zm191 -136c64,0 116,52 116,116 0,64 -52,116 -116,116 -64,0 -116,-52 -116,-116 0,-64 52,-116 116,-116zm54 116c0,30 -24,54 -54,54 -30,0 -55,-24 -55,-54 0,-30 25,-55 55,-55 30,0 54,25 54,55z"/>
 </g>
</svg>
