<?xml version="1.0" encoding="UTF-8"?>
<!DOCTYPE svg PUBLIC "-//W3C//DTD SVG 1.1//EN" "http://www.w3.org/Graphics/SVG/1.1/DTD/svg11.dtd">
<!-- Creator: CorelDRAW X7 -->
<svg xmlns="http://www.w3.org/2000/svg" xml:space="preserve" width="0.787402in" height="0.787402in" version="1.1" style="shape-rendering:geometricPrecision; text-rendering:geometricPrecision; image-rendering:optimizeQuality; fill-rule:evenodd; clip-rule:evenodd"
viewBox="0 0 787 787"
 xmlns:xlink="http://www.w3.org/1999/xlink">
 <defs>
  <style type="text/css">
   <![CDATA[
    .fil0 {fill:#2B2A29}
   ]]>
  </style>
 </defs>
 <g id="Layer_x0020_1">
  <metadata id="CorelCorpID_0Corel-Layer"/>
  <path class="fil0" d="M394 39c195,0 354,159 354,355 0,195 -159,354 -354,354 -196,0 -355,-159 -355,-354 0,-196 159,-355 355,-355zm-24 552c-31,0 -57,-23 -64,-52l-79 0c-17,0 -30,-14 -30,-31 0,-9 4,-17 10,-23 1,0 1,-1 2,-1 25,-22 40,-54 40,-88l0 -48c0,-56 38,-105 93,-118 7,-1 14,3 15,10 2,7 -2,14 -9,15 -43,11 -73,49 -73,93l0 48c0,42 -18,82 -50,109 -1,0 -1,0 -1,1 -1,0 -1,1 -1,2 0,3 2,5 4,5l91 0 0 0 0 0 104 0 0 0 0 0 91 0c2,0 4,-2 4,-5 0,-1 0,-2 -1,-2 0,-1 0,-1 0,-1 -16,-13 -28,-29 -37,-48 -3,-6 0,-14 6,-17 7,-3 15,0 18,6 7,15 16,28 28,38 1,1 1,1 2,1 7,6 10,14 10,23 0,17 -13,31 -30,31l-79 0c-6,29 -32,52 -64,52zm134 -252c-7,0 -13,-6 -13,-13l0 -56 -8 0c-7,0 -13,-6 -13,-13 0,-7 6,-13 13,-13l21 0c8,0 13,6 13,13l0 69c0,7 -5,13 -13,13zm-4 61c-62,0 -113,-51 -113,-113 0,-62 51,-112 113,-112 62,0 113,50 113,112 0,62 -51,113 -113,113zm0 -199c-48,0 -87,39 -87,86 0,48 39,87 87,87 48,0 87,-39 87,-87 0,-47 -39,-86 -87,-86zm-167 338c6,15 20,26 37,26 17,0 32,-11 37,-26l-74 0z"/>
 </g>
</svg>
