<?xml version="1.0" encoding="UTF-8"?>
<!DOCTYPE svg PUBLIC "-//W3C//DTD SVG 1.1//EN" "http://www.w3.org/Graphics/SVG/1.1/DTD/svg11.dtd">
<!-- Creator: CorelDRAW X7 -->
<svg xmlns="http://www.w3.org/2000/svg" xml:space="preserve" width="0.787402in" height="0.787402in" version="1.1" style="shape-rendering:geometricPrecision; text-rendering:geometricPrecision; image-rendering:optimizeQuality; fill-rule:evenodd; clip-rule:evenodd"
viewBox="0 0 787 787"
 xmlns:xlink="http://www.w3.org/1999/xlink">
 <defs>
  <style type="text/css">
   <![CDATA[
    .fil0 {fill:black}
   ]]>
  </style>
 </defs>
 <g id="Layer_x0020_1">
  <metadata id="CorelCorpID_0Corel-Layer"/>
  <path class="fil0" d="M394 39c-196,0 -355,159 -355,355 0,195 159,354 355,354 195,0 354,-159 354,-354 0,-196 -159,-355 -354,-355zm22 133l-44 0 0 231 139 139 31 -31 -126 -126 0 -213zm-22 532c-171,0 -310,-139 -310,-310 0,-171 139,-310 310,-310 171,0 310,139 310,310 0,171 -139,310 -310,310z"/>
 </g>
</svg>
