<?xml version="1.0" encoding="UTF-8"?>
<!DOCTYPE svg PUBLIC "-//W3C//DTD SVG 1.1//EN" "http://www.w3.org/Graphics/SVG/1.1/DTD/svg11.dtd">
<!-- Creator: CorelDRAW X7 -->
<svg xmlns="http://www.w3.org/2000/svg" xml:space="preserve" width="0.787402in" height="0.787402in" version="1.1" style="shape-rendering:geometricPrecision; text-rendering:geometricPrecision; image-rendering:optimizeQuality; fill-rule:evenodd; clip-rule:evenodd"
viewBox="0 0 787 787"
 xmlns:xlink="http://www.w3.org/1999/xlink">
 <defs>
  <style type="text/css">
   <![CDATA[
    .fil0 {fill:black}
   ]]>
  </style>
 </defs>
 <g id="Layer_x0020_1">
  <metadata id="CorelCorpID_0Corel-Layer"/>
  <path class="fil0" d="M600 276c-34,0 -65,-15 -86,-38l-214 121c3,11 5,23 5,35 0,12 -2,23 -5,34l214 122c21,-24 52,-38 86,-38 65,0 118,53 118,118 0,65 -53,118 -118,118 -65,0 -118,-53 -118,-118 0,-10 1,-19 4,-28l-217 -124c-21,21 -50,34 -82,34 -65,0 -118,-53 -118,-118 0,-65 53,-118 118,-118 32,0 61,12 82,33l217 -123c-3,-9 -4,-19 -4,-28 0,-66 53,-119 118,-119 65,0 118,53 118,119 0,65 -53,118 -118,118z"/>
 </g>
</svg>
