<?xml version="1.0" encoding="UTF-8"?>
<!DOCTYPE svg PUBLIC "-//W3C//DTD SVG 1.1//EN" "http://www.w3.org/Graphics/SVG/1.1/DTD/svg11.dtd">
<!-- Creator: CorelDRAW X7 -->
<svg xmlns="http://www.w3.org/2000/svg" xml:space="preserve" width="0.787402in" height="0.787402in" version="1.1" style="shape-rendering:geometricPrecision; text-rendering:geometricPrecision; image-rendering:optimizeQuality; fill-rule:evenodd; clip-rule:evenodd"
viewBox="0 0 787 787"
 xmlns:xlink="http://www.w3.org/1999/xlink">
 <defs>
  <style type="text/css">
   <![CDATA[
    .fil0 {fill:#2B2A29}
   ]]>
  </style>
 </defs>
 <g id="Layer_x0020_1">
  <metadata id="CorelCorpID_0Corel-Layer"/>
  <path class="fil0" d="M394 39c195,0 354,159 354,355 0,195 -159,354 -354,354 -196,0 -355,-159 -355,-354 0,-196 159,-355 355,-355zm-61 256c0,-9 7,-16 16,-16l154 0c21,1 21,31 0,32l-154 0c-9,0 -16,-7 -16,-16zm54 182l-38 0c-21,1 -21,31 0,32l38 0c22,-1 22,-31 0,-32zm-38 -70l86 0c21,-1 21,-31 0,-32l-86 0c-21,1 -21,31 0,32zm-64 -32c-9,0 -16,7 -16,16 1,22 31,22 32,0 0,-9 -7,-16 -16,-16zm314 160c0,25 -19,48 -45,48l-34 0c-1,21 -31,21 -32,0l-34 0c-26,0 -45,-23 -45,-48 0,-7 4,-13 10,-15 2,-1 13,-6 13,-18l0 -16c0,-34 24,-63 56,-70l0 -11c1,-21 31,-21 32,0l0 11c32,7 56,36 56,70l0 16c0,12 11,17 12,18 7,2 11,8 11,15zm-34 8c-11,-8 -21,-21 -21,-41l0 -16c0,-22 -18,-40 -40,-40 0,0 0,0 0,0 0,0 0,0 0,0 -22,0 -40,18 -40,40l0 16c0,20 -10,33 -21,41 2,4 5,8 11,8l100 0c6,0 9,-4 11,-8zm-280 -264c-9,0 -16,7 -16,16 1,21 31,21 32,0 0,-9 -7,-16 -16,-16zm0 198c-9,0 -16,7 -16,16 1,21 31,21 32,0 0,-9 -7,-16 -16,-16zm250 -288l-282 0c-36,0 -64,28 -64,64l0 282c0,35 28,64 64,64l121 0c22,-1 22,-31 0,-32l-121 0c-18,0 -32,-15 -32,-32l0 -282c0,-18 14,-32 32,-32l282 0c17,0 32,14 32,32l0 144c1,21 31,21 32,0l0 -144c0,-36 -29,-64 -64,-64z"/>
 </g>
</svg>
