<?xml version="1.0" encoding="UTF-8"?>
<!DOCTYPE svg PUBLIC "-//W3C//DTD SVG 1.1//EN" "http://www.w3.org/Graphics/SVG/1.1/DTD/svg11.dtd">
<!-- Creator: CorelDRAW X7 -->
<svg xmlns="http://www.w3.org/2000/svg" xml:space="preserve" width="0.787402in" height="0.787402in" version="1.1" style="shape-rendering:geometricPrecision; text-rendering:geometricPrecision; image-rendering:optimizeQuality; fill-rule:evenodd; clip-rule:evenodd"
viewBox="0 0 787 787"
 xmlns:xlink="http://www.w3.org/1999/xlink">
 <defs>
  <style type="text/css">
   <![CDATA[
    .fil0 {fill:black}
   ]]>
  </style>
 </defs>
 <g id="Layer_x0020_1">
  <metadata id="CorelCorpID_0Corel-Layer"/>
  <g id="_2232378080224">
   <path class="fil0" d="M499 236l-211 0c-29,0 -52,23 -52,52l0 211c0,29 23,52 52,52l211 0c29,0 52,-23 52,-52l0 -211c0,-29 -23,-52 -52,-52zm7 263c0,4 -3,7 -7,7l-211 0c-4,0 -7,-3 -7,-7l0 -211c0,-4 3,-7 7,-7l211 0c4,0 7,3 7,7l0 211z"/>
   <path class="fil0" d="M725 345c13,0 23,-10 23,-22 0,-12 -10,-23 -23,-23l-71 0 0 -46 71 0c13,0 23,-10 23,-22 0,-13 -10,-23 -23,-23l-72 0c-5,-39 -36,-69 -75,-74l0 -73c0,-12 -10,-23 -22,-23 -13,0 -23,11 -23,23l0 72 -46 0 0 -72c0,-12 -10,-23 -22,-23 -13,0 -23,11 -23,23l0 72 -97 0 0 -72c0,-12 -10,-23 -22,-23 -12,0 -23,11 -23,23l0 72 -46 0 0 -72c0,-12 -10,-23 -22,-23 -13,0 -23,11 -23,23l0 73c-39,5 -69,35 -74,74l-73 0c-12,0 -23,10 -23,23 0,12 11,22 23,22l72 0 0 46 -72 0c-12,0 -23,11 -23,23 0,12 11,22 23,22l72 0 0 97 -72 0c-12,0 -23,10 -23,23 0,12 11,22 23,22l72 0 0 46 -72 0c-12,0 -23,10 -23,23 0,12 11,22 23,22l73 0c5,39 35,70 74,75l0 72c0,13 10,23 23,23 12,0 22,-10 22,-23l0 -71 46 0 0 71c0,13 11,23 23,23 12,0 22,-10 22,-23l0 -71 97 0 0 71c0,13 10,23 23,23 12,0 22,-10 22,-23l0 -71 46 0 0 71c0,13 10,23 23,23 12,0 22,-10 22,-23l0 -72c39,-5 70,-36 75,-75l72 0c13,0 23,-10 23,-22 0,-13 -10,-23 -23,-23l-71 0 0 -46 71 0c13,0 23,-10 23,-22 0,-13 -10,-23 -23,-23l-71 0 0 -97 71 0zm-116 222c0,23 -19,42 -42,42l-346 0c-23,0 -42,-19 -42,-42l0 -346c0,-23 19,-42 42,-42l346 0c23,0 42,19 42,42l0 346z"/>
  </g>
 </g>
</svg>
