<?xml version="1.0" encoding="UTF-8"?>
<!DOCTYPE svg PUBLIC "-//W3C//DTD SVG 1.1//EN" "http://www.w3.org/Graphics/SVG/1.1/DTD/svg11.dtd">
<!-- Creator: CorelDRAW X7 -->
<svg xmlns="http://www.w3.org/2000/svg" xml:space="preserve" width="0.787402in" height="0.787402in" version="1.1" style="shape-rendering:geometricPrecision; text-rendering:geometricPrecision; image-rendering:optimizeQuality; fill-rule:evenodd; clip-rule:evenodd"
viewBox="0 0 787 787"
 xmlns:xlink="http://www.w3.org/1999/xlink">
 <defs>
  <style type="text/css">
   <![CDATA[
    .fil0 {fill:black}
   ]]>
  </style>
 </defs>
 <g id="Layer_x0020_1">
  <metadata id="CorelCorpID_0Corel-Layer"/>
  <path class="fil0" d="M394 247c38,0 69,-31 69,-69 0,-38 -31,-69 -69,-69 -38,0 -69,31 -69,69 0,38 31,69 69,69zm11 160l44 -61c4,-6 2,-15 -4,-19 -2,-2 -5,-3 -8,-3 -4,0 -8,2 -11,6l-32 45 -66 -92c-2,-3 -7,-6 -11,-6 -3,0 -6,1 -8,3 -6,4 -8,13 -3,19l0 0 76 108c3,4 7,6 12,6 4,0 8,-2 11,-6zm53 -122c-4,6 -3,15 3,19 3,2 5,3 8,3 5,0 9,-2 12,-6 4,-6 3,-15 -4,-19 -2,-2 -5,-3 -8,-3 -4,0 -8,2 -11,6zm290 208c0,-3 -2,-6 -4,-8l-35 -35c-5,-5 -14,-5 -19,0 -6,6 -6,15 0,20l11 11 -171 0c-6,-24 -28,-43 -60,-56 6,-7 12,-15 18,-23 57,-78 86,-139 86,-181 0,-100 -81,-182 -180,-182 -99,0 -180,82 -180,182 0,42 29,103 85,181 6,8 12,16 18,23 -31,13 -54,32 -60,56l-170 0 11 -11c5,-5 5,-14 0,-20 -6,-5 -14,-5 -20,0 -1,2 -33,34 -34,35 -3,3 -5,6 -5,10l0 0c0,3 2,7 5,10 0,0 34,34 34,34 5,5 14,5 20,0 5,-5 5,-14 0,-19l-11 -11 170 0c10,37 60,65 123,68l0 124 -11 -11c-6,-6 -14,-6 -20,0 -5,5 -5,14 0,19l35 35c0,0 0,0 0,0 3,2 6,4 10,4l0 0c3,0 7,-2 9,-4l35 -35c5,-5 5,-14 0,-19 -5,-6 -14,-6 -19,0l-11 11 0 -124c63,-3 112,-31 122,-68l171 0 -11 11c-6,5 -6,14 0,19 5,5 14,5 19,0l35 -34c0,-1 0,-1 0,-1 2,-2 3,-5 4,-7 0,-1 0,-1 0,-1 0,0 0,-1 0,-1l0 0c0,-1 0,-1 0,-2zm-507 -272c0,-85 69,-154 153,-154 84,0 152,69 152,154 0,67 -102,197 -152,254 -51,-57 -153,-187 -153,-254zm234 311c-21,11 -50,18 -81,18 -31,0 -60,-7 -82,-18 -18,-11 -29,-24 -29,-37 0,-13 11,-27 29,-37 7,-4 15,-7 23,-10 27,34 48,57 48,57 3,3 7,5 11,5 4,0 7,-2 10,-5 0,0 21,-23 48,-57 9,3 16,6 23,10 19,10 29,24 29,37 0,13 -10,26 -29,37zm-81 -396c23,0 41,19 41,42 0,23 -18,41 -41,41 -23,0 -42,-18 -42,-41 0,-23 19,-42 42,-42z"/>
 </g>
</svg>
