<?xml version="1.0" encoding="UTF-8"?>
<!DOCTYPE svg PUBLIC "-//W3C//DTD SVG 1.1//EN" "http://www.w3.org/Graphics/SVG/1.1/DTD/svg11.dtd">
<!-- Creator: CorelDRAW X7 -->
<svg xmlns="http://www.w3.org/2000/svg" xml:space="preserve" width="0.787402in" height="0.787402in" version="1.1" style="shape-rendering:geometricPrecision; text-rendering:geometricPrecision; image-rendering:optimizeQuality; fill-rule:evenodd; clip-rule:evenodd"
viewBox="0 0 787 787"
 xmlns:xlink="http://www.w3.org/1999/xlink">
 <defs>
  <style type="text/css">
   <![CDATA[
    .fil0 {fill:black}
   ]]>
  </style>
 </defs>
 <g id="Layer_x0020_1">
  <metadata id="CorelCorpID_0Corel-Layer"/>
  <path class="fil0" d="M313 276l-222 0c-28,0 -52,-24 -52,-52l0 -133c0,-28 24,-52 52,-52l222 0c28,0 51,24 51,52l0 133c0,28 -23,52 -51,52zm383 177l-221 0c-29,0 -52,-23 -52,-52l0 -310c0,-28 23,-52 52,-52l221 0c29,0 52,24 52,52l0 310c0,29 -23,52 -52,52zm-221 -369c-4,0 -8,3 -8,7l0 310c0,4 4,7 8,7l221 0c4,0 8,-3 8,-7l0 -310c0,-4 -4,-7 -8,-7l-221 0zm221 664l-221 0c-29,0 -52,-23 -52,-52l0 -133c0,-28 23,-51 52,-51l221 0c29,0 52,23 52,51l0 133c0,29 -23,52 -52,52zm-221 -192c-4,0 -8,3 -8,7l0 133c0,4 4,8 8,8l221 0c4,0 8,-4 8,-8l0 -133c0,-4 -4,-7 -8,-7l-221 0zm-162 192l-222 0c-28,0 -52,-23 -52,-52l0 -310c0,-28 24,-51 52,-51l222 0c28,0 51,23 51,51l0 310c0,29 -23,52 -51,52zm-222 -369c-4,0 -7,3 -7,7l0 310c0,4 3,8 7,8l222 0c4,0 7,-4 7,-8l0 -310c0,-4 -3,-7 -7,-7l-222 0zm0 -295c-4,0 -7,3 -7,7l0 133c0,4 3,7 7,7l222 0c4,0 7,-3 7,-7l0 -133c0,-4 -3,-7 -7,-7l-222 0z"/>
 </g>
</svg>
