<?xml version="1.0" encoding="UTF-8"?>
<!DOCTYPE svg PUBLIC "-//W3C//DTD SVG 1.1//EN" "http://www.w3.org/Graphics/SVG/1.1/DTD/svg11.dtd">
<!-- Creator: CorelDRAW X7 -->
<svg xmlns="http://www.w3.org/2000/svg" xml:space="preserve" width="0.787402in" height="0.787402in" version="1.1" style="shape-rendering:geometricPrecision; text-rendering:geometricPrecision; image-rendering:optimizeQuality; fill-rule:evenodd; clip-rule:evenodd"
viewBox="0 0 787 787"
 xmlns:xlink="http://www.w3.org/1999/xlink">
 <defs>
  <style type="text/css">
   <![CDATA[
    .fil0 {fill:black}
   ]]>
  </style>
 </defs>
 <g id="Layer_x0020_1">
  <metadata id="CorelCorpID_0Corel-Layer"/>
  <path class="fil0" d="M382 405l24 0c6,0 11,-5 11,-12 0,-6 -5,-12 -11,-12l-24 0c-7,0 -12,6 -12,12 0,7 5,12 12,12zm98 -215c4,4 12,4 16,0 3,-3 4,-6 4,-9 0,-6 -5,-12 -12,-12 -3,0 -6,2 -8,4 -2,2 -4,5 -4,8 0,3 2,6 4,9zm-47 0c4,4 12,4 16,0 2,-3 4,-6 4,-9 0,-6 -6,-12 -12,-12 -7,0 -12,6 -12,12 0,3 1,6 4,9zm-48 0c5,4 12,4 17,0 3,-4 4,-9 3,-13 -1,-2 -2,-3 -3,-4 -1,-1 -2,-2 -4,-3 -4,-2 -9,-1 -13,3 -1,1 -2,2 -2,4 -1,1 -1,3 -1,4 0,3 1,6 3,9zm-47 0c5,4 12,4 17,0 2,-3 3,-6 3,-9 0,-3 -1,-6 -3,-8 -1,-1 -1,-1 -2,-2 -1,0 -1,0 -2,-1 -1,0 -2,0 -2,0 -4,-1 -8,0 -11,3 -1,1 -2,2 -2,4 -1,1 -1,3 -1,4 0,3 1,6 3,9zm-47 0c5,4 12,4 17,0 2,-3 3,-6 3,-9 0,-1 0,-3 -1,-4 0,-2 -1,-3 -2,-4 -5,-5 -12,-5 -17,0 -1,1 -2,2 -3,4 0,1 -1,3 -1,4 0,3 2,6 4,9zm-27 -9c0,-3 -1,-6 -4,-8 -2,-3 -6,-4 -10,-3 -1,0 -2,0 -2,0 -1,1 -2,1 -3,1 0,1 -1,1 -1,2 -1,1 -2,2 -3,4 0,1 -1,3 -1,4 0,7 5,12 12,12 0,0 0,0 0,0 6,0 12,-5 12,-12zm243 -13c2,1 3,1 5,1 6,0 12,-5 12,-11 0,0 0,0 0,0 0,-7 -6,-12 -12,-12 -3,0 -6,1 -9,3 -2,2 -3,5 -3,9 0,3 1,6 3,8 2,1 3,2 4,2zm-42 1c1,0 3,0 4,-1 1,0 3,-1 4,-2 2,-2 3,-5 3,-8 0,-4 -1,-7 -3,-9 -3,-3 -7,-4 -11,-3 -1,0 -1,0 -2,1 -1,0 -1,0 -2,1 -1,0 -1,1 -2,1 -2,2 -3,5 -3,9 0,6 5,11 11,11 0,0 0,0 1,0zm-95 0c7,0 12,-5 12,-11 0,0 0,0 0,0 0,-7 -5,-12 -12,-12 -3,0 -6,1 -8,3 -5,5 -5,12 0,17 2,2 5,3 8,3zm43 -1c6,3 13,0 15,-6 1,-1 1,-3 1,-4 0,-4 -1,-7 -3,-9 -1,0 -2,-1 -2,-1 -1,-1 -1,-1 -2,-1 -1,-1 -2,-1 -2,-1 -4,-1 -8,0 -11,3 -2,2 -3,5 -3,9 -1,3 1,6 3,8 1,1 2,2 4,2zm-90 1c6,0 12,-5 12,-11 0,-4 -2,-7 -4,-9 0,0 -1,-1 -2,-1 0,-1 -1,-1 -2,-1 0,-1 -1,-1 -2,-1 -4,-1 -8,0 -11,3 -2,2 -3,5 -3,9 0,6 5,11 12,11 0,0 0,0 0,0zm-56 -3c1,1 3,2 4,2 5,2 10,1 13,-2 1,-1 2,-3 2,-4 1,-1 1,-3 1,-4 0,-4 -1,-7 -3,-9 -1,-1 -2,-2 -4,-2 -3,-2 -6,-2 -9,0 -1,0 -3,1 -4,2 -2,2 -3,5 -3,9 0,1 0,3 1,4 0,1 1,3 2,4zm387 553c-2,3 -5,5 -9,5l-75 0c-3,-43 -21,-83 -51,-113 -4,-4 -8,-8 -12,-11l21 -18c16,0 31,3 46,9 4,2 8,4 12,6 23,17 26,19 27,20 12,12 21,27 27,43l16 48c1,4 1,8 -2,11zm-131 5c-4,-43 -29,-81 -67,-102 -7,-4 -16,-8 -25,-10 0,0 0,0 0,0 0,0 0,0 -1,0 0,-1 -1,-1 -2,0 0,-1 -1,-1 -2,0 -1,0 -1,0 -2,0 -1,1 -3,1 -4,3 0,0 -1,1 -1,1 -1,1 -1,1 -1,2 -1,1 -1,1 -1,2 0,0 0,0 0,0 0,1 0,1 -1,1l-20 103 -5 0 -20 -103c0,0 0,0 0,-1 0,0 0,0 0,0 -1,-1 -1,-1 -1,-2 0,-1 -1,-1 -1,-2 -1,0 -1,-1 -2,-1 -1,-2 -2,-2 -4,-3 0,0 -1,0 -2,0 -1,-1 -1,-1 -2,0 -1,-1 -1,-1 -2,0 0,0 0,0 0,0 -1,0 -1,0 -1,0 -9,2 -17,6 -25,10 -38,21 -62,59 -67,102l-23 0c3,-37 18,-71 44,-96 7,-7 14,-13 21,-18 53,-36 123,-36 175,0 8,5 15,11 21,18 26,25 42,59 45,96l-24 0zm-103 0l17 -85c3,1 5,3 8,4 30,17 50,47 54,81l-79 0zm-70 -85l17 85 -79 0c4,-34 24,-64 54,-81 3,-1 6,-3 8,-4l0 0zm-217 80c-2,-3 -3,-7 -2,-11l16 -48c6,-16 15,-31 27,-43 1,-1 4,-3 28,-20 4,-2 7,-4 11,-6 15,-6 31,-9 46,-9l21 18c-4,3 -8,7 -12,11 -30,30 -48,70 -51,113l-74 0c-4,0 -8,-2 -10,-5zm179 -180l32 27c-16,5 -30,11 -44,20l-19 -16 31 -31zm-33 -261c-2,-7 -3,-15 -3,-23 0,-2 0,-3 0,-4 25,15 68,25 118,25 49,0 92,-10 117,-25 1,1 1,3 1,4 0,8 -1,16 -3,23 -10,35 -13,71 -9,106 0,3 0,6 0,8 0,23 -25,56 -70,92 -21,17 -52,17 -73,0 -45,-36 -70,-69 -70,-92 0,-2 1,-5 1,-8 3,-35 0,-71 -9,-106l0 0zm-19 91c-3,-5 -8,-22 -8,-59 0,-5 0,-11 2,-17 2,1 3,1 4,2 6,23 8,46 7,69 -1,2 -3,3 -5,5zm243 -141c-18,13 -57,24 -109,24 -53,0 -92,-11 -109,-24l218 0zm-275 -75c0,-49 76,-90 166,-90 89,0 165,41 165,90 0,13 -6,26 -15,36 1,-1 2,-2 2,-3 2,-3 2,-6 0,-9 0,-2 -1,-3 -2,-4 -1,-1 -1,-1 -2,-2 -1,0 -1,0 -2,-1 -1,0 -2,0 -2,0 -6,-2 -11,1 -13,7 -2,3 -2,6 0,9 0,1 1,2 2,4 5,4 12,4 17,0 -5,5 -11,11 -17,15 -1,0 -2,0 -3,0l-260 0c-1,0 -2,0 -3,0 -21,-15 -33,-33 -33,-52zm299 216c-2,-2 -3,-3 -5,-5 0,-23 2,-46 7,-69 1,-1 3,-1 4,-2 2,6 3,12 2,17 0,37 -5,54 -8,59zm-154 191l-52 -44c0,-10 0,-20 -2,-31 0,-1 0,-2 0,-3 7,7 15,13 23,20 30,25 73,25 103,0 9,-7 16,-13 24,-20 -1,1 -1,2 -1,3 -1,11 -2,21 -2,31l-51 44c-14,-1 -28,-1 -42,0zm114 26c-13,-9 -28,-15 -43,-20l32 -27 30 31 -19 16zm176 66c-7,-19 -19,-37 -33,-51 -10,-9 -20,-17 -31,-24l-1 0c-5,-3 -10,-6 -15,-8 -17,-7 -36,-10 -54,-11l-39 -38c0,-11 0,-21 1,-32 2,-12 4,-25 7,-37 14,-16 23,-36 26,-58 1,0 3,1 4,1 2,0 4,-1 6,-1 7,-2 25,-9 25,-83 0,-8 0,-32 -16,-39 -3,-1 -6,-2 -9,-2 2,-13 1,-26 -2,-39 33,-21 51,-48 51,-77 0,-64 -83,-114 -189,-114 -106,0 -189,50 -189,114 0,29 18,56 50,77 -3,13 -4,26 -2,39 -3,0 -6,1 -8,2 -17,7 -17,31 -17,39 0,74 19,81 25,83 2,0 4,1 6,1 2,0 3,-1 5,-1 2,22 11,42 26,58 2,12 4,25 6,37 1,11 2,21 2,32l-39 38c-19,1 -37,4 -55,11 -5,2 -10,5 -14,8l-1 0c-11,7 -22,15 -31,24 -15,14 -26,32 -34,51l-15 49c-6,19 4,39 23,45 3,1 7,1 11,1l235 0c1,1 3,1 4,1l0 0 24 0c1,0 2,0 3,-1l236 0c19,0 35,-15 35,-35 0,-4 0,-7 -1,-11l-16 -49zm-234 -330l12 0 0 12c0,7 5,12 12,12 6,0 12,-5 12,-12l0 -12 11 0c7,0 12,-5 12,-12 0,-6 -5,-11 -12,-11l-47 0c-6,0 -12,5 -12,11 0,7 6,12 12,12zm-118 0l12 0 0 12c0,7 5,12 12,12 6,0 11,-5 11,-12l0 -12 12 0c7,0 12,-5 12,-12 0,-6 -5,-11 -12,-11l-47 0c-6,0 -12,5 -12,11 0,7 6,12 12,12zm106 107l-47 0c-6,0 -12,5 -12,11 0,7 6,12 12,12l47 0c7,0 12,-5 12,-12 0,-6 -5,-11 -12,-11z"/>
 </g>
</svg>
