<?xml version="1.0" encoding="UTF-8"?>
<!DOCTYPE svg PUBLIC "-//W3C//DTD SVG 1.1//EN" "http://www.w3.org/Graphics/SVG/1.1/DTD/svg11.dtd">
<!-- Creator: CorelDRAW X7 -->
<svg xmlns="http://www.w3.org/2000/svg" xml:space="preserve" width="0.787402in" height="0.787402in" version="1.1" style="shape-rendering:geometricPrecision; text-rendering:geometricPrecision; image-rendering:optimizeQuality; fill-rule:evenodd; clip-rule:evenodd"
viewBox="0 0 787 787"
 xmlns:xlink="http://www.w3.org/1999/xlink">
 <defs>
  <style type="text/css">
   <![CDATA[
    .fil0 {fill:black}
   ]]>
  </style>
 </defs>
 <g id="Layer_x0020_1">
  <metadata id="CorelCorpID_0Corel-Layer"/>
  <path class="fil0" d="M457 662c1,8 6,15 14,19 7,4 16,4 23,1l114 -50c5,-2 8,-9 6,-15l-57 -168c-9,-27 -36,-43 -64,-38l-17 3c-31,5 -51,34 -47,64l28 184zm-69 -325l17 71c1,5 6,9 11,9 1,0 2,0 3,-1 6,-1 10,-8 9,-14l-17 -71c-1,-4 -4,-7 -8,-9 -4,-1 -8,0 -12,3 -3,3 -4,7 -3,12l0 0zm-10 -77c-3,1 -6,3 -7,6 -2,2 -2,6 -2,9l6 23c2,5 6,9 12,9 1,0 2,0 3,-1 6,-1 10,-8 8,-14l-6 -23c0,-3 -2,-6 -5,-8 -3,-1 -6,-2 -9,-1zm-257 186c23,1 44,-8 60,-23 15,-16 24,-37 23,-60 0,-37 -46,-105 -65,-128 -4,-5 -11,-7 -18,-7 -6,0 -13,2 -17,7 -20,23 -65,91 -65,128 -1,23 8,44 23,60 16,15 37,24 59,23zm0 -195c21,24 60,85 60,112 0,16 -6,32 -17,43 -11,11 -27,17 -43,17 -15,0 -31,-6 -42,-17 -11,-11 -17,-27 -17,-43 0,-27 39,-88 59,-112zm-52 -101l177 52c2,1 4,2 6,4l63 52 10 8 81 424c4,21 18,40 37,50 20,10 43,11 63,2l113 -50c11,13 30,17 45,11l60 -25c20,-8 30,-31 22,-51l-109 -267 8 -9c15,-17 13,-44 -4,-59l-125 -108c-9,-7 -20,-11 -31,-10 -11,0 -21,6 -28,14l-20 23 -46 -37 0 0 -84 -69c-4,-3 -9,-6 -15,-7l-191 -57c-22,-6 -45,6 -52,29l-8 28c-4,11 -2,22 3,32 5,10 14,17 25,20zm378 86l28 -32c3,-4 7,-6 12,-7 5,0 10,2 13,5l125 108c8,6 9,18 2,26l-13 14c-3,4 -4,8 -2,13l112 273c3,8 -1,17 -9,20l-60 25c-3,1 -8,1 -12,0 -4,-2 -7,-5 -8,-9 -1,-3 -4,-5 -7,-6 -3,-2 -6,-2 -9,0l-123 54c-13,6 -29,5 -42,-1 -13,-7 -22,-20 -25,-34l-82 -427c0,-3 -2,-6 -4,-7l-4 -3 46 -49 45 38c5,4 13,4 17,-1l0 0zm-384 -131l9 -29c1,-4 4,-8 8,-11 5,-2 10,-2 14,-1l192 56c2,1 4,2 6,4l74 60 -45 48 -54 -44c-4,-4 -9,-7 -15,-8l-176 -52c-10,-3 -16,-13 -13,-23zm422 555c-1,1 -2,1 -3,0 -1,0 -1,-1 -2,-2l-27 -183c-1,-4 -1,-8 0,-12l20 16c10,8 17,18 21,29l43 129 -52 23zm-5 -223l18 -3c1,0 3,0 5,0 15,0 27,9 32,22l53 159 -29 13 -43 -127c-5,-16 -15,-30 -28,-41l-22 -17c4,-3 9,-5 14,-6z"/>
 </g>
</svg>
