<?xml version="1.0" encoding="UTF-8"?>
<!DOCTYPE svg PUBLIC "-//W3C//DTD SVG 1.1//EN" "http://www.w3.org/Graphics/SVG/1.1/DTD/svg11.dtd">
<!-- Creator: CorelDRAW X7 -->
<svg xmlns="http://www.w3.org/2000/svg" xml:space="preserve" width="0.787402in" height="0.787402in" version="1.1" style="shape-rendering:geometricPrecision; text-rendering:geometricPrecision; image-rendering:optimizeQuality; fill-rule:evenodd; clip-rule:evenodd"
viewBox="0 0 787 787"
 xmlns:xlink="http://www.w3.org/1999/xlink">
 <defs>
  <style type="text/css">
   <![CDATA[
    .fil0 {fill:black}
   ]]>
  </style>
 </defs>
 <g id="Layer_x0020_1">
  <metadata id="CorelCorpID_0Corel-Layer"/>
  <path class="fil0" d="M394 39c195,0 354,159 354,355 0,195 -159,354 -354,354 -196,0 -355,-159 -355,-354 0,-196 159,-355 355,-355zm0 249c27,0 49,-22 49,-50 0,-27 -22,-49 -49,-49 -28,0 -50,22 -50,49 0,28 22,50 50,50zm8 115l31 -44c3,-4 2,-10 -2,-13 -2,-2 -4,-2 -6,-2 -3,0 -6,1 -8,4l-23 33 -47 -67c-2,-2 -5,-4 -9,-4 -2,0 -4,1 -5,2 -5,3 -6,9 -3,14l0 0 56 77c1,3 4,5 8,5 3,0 6,-2 8,-5zm38 -88c-3,5 -2,11 2,14 2,2 4,2 6,2 3,0 6,-1 8,-4 3,-4 2,-11 -2,-14 -2,-1 -4,-2 -6,-2 -3,0 -6,2 -8,4zm208 150c0,-2 -1,-4 -2,-6l-25 -25c-4,-3 -11,-3 -14,0 -4,4 -4,11 0,15l8 7 -123 0c-5,-16 -21,-31 -43,-40 4,-5 8,-11 12,-17 41,-56 62,-99 62,-129 0,-72 -58,-131 -129,-131 -72,0 -130,59 -130,131 0,30 21,73 62,129 4,6 8,12 13,17 -23,9 -39,24 -44,40l-122 0 8 -7c4,-4 4,-11 0,-15 -4,-3 -10,-3 -14,0 -1,1 -24,24 -25,25 -2,2 -3,5 -3,7l0 0c0,3 1,6 3,7 0,0 25,25 25,25 3,4 10,4 14,0 4,-4 4,-10 0,-14l-8 -8 122 0c8,27 43,47 89,50l0 89 -8 -8c-4,-4 -10,-4 -14,0 -4,3 -4,10 0,14l25 25c0,0 0,0 0,0 2,1 4,2 7,2l0 0c2,0 5,-1 7,-2l25 -25c3,-4 3,-10 0,-14 -4,-4 -11,-4 -14,0l-8 8 0 -89c45,-3 81,-23 88,-50l123 0 -8 8c-4,4 -4,10 0,14 3,4 10,4 14,0l25 -25c0,0 0,0 0,0 1,-1 2,-3 2,-5 0,0 0,-1 0,-1 0,0 0,0 0,0l0 -1c0,0 0,0 0,-1zm-364 -195c0,-61 49,-111 110,-111 60,0 109,50 109,111 0,48 -73,141 -109,182 -37,-41 -110,-134 -110,-182zm168 223c-15,8 -36,13 -58,13 -23,0 -43,-5 -59,-13 -13,-8 -21,-17 -21,-27 0,-9 8,-19 21,-26 5,-3 11,-5 17,-7 19,24 34,41 34,41 2,2 5,3 8,3 2,0 5,-1 7,-3 0,0 15,-17 35,-41 6,2 11,4 16,7 14,7 21,17 21,26 0,10 -7,19 -21,27zm-58 -284c16,0 30,13 30,29 0,17 -14,30 -30,30 -17,0 -30,-13 -30,-30 0,-16 13,-29 30,-29z"/>
 </g>
</svg>
