<?xml version="1.0" encoding="UTF-8"?>
<!DOCTYPE svg PUBLIC "-//W3C//DTD SVG 1.1//EN" "http://www.w3.org/Graphics/SVG/1.1/DTD/svg11.dtd">
<!-- Creator: CorelDRAW X7 -->
<svg xmlns="http://www.w3.org/2000/svg" xml:space="preserve" width="0.787402in" height="0.787402in" version="1.1" style="shape-rendering:geometricPrecision; text-rendering:geometricPrecision; image-rendering:optimizeQuality; fill-rule:evenodd; clip-rule:evenodd"
viewBox="0 0 787 787"
 xmlns:xlink="http://www.w3.org/1999/xlink">
 <defs>
  <style type="text/css">
   <![CDATA[
    .fil0 {fill:black}
   ]]>
  </style>
 </defs>
 <g id="Layer_x0020_1">
  <metadata id="CorelCorpID_0Corel-Layer"/>
  <path class="fil0" d="M596 130l0 30 -117 0 0 -30 117 0zm-49 65l-68 0 0 31 68 0 0 -31zm-68 96l117 0 0 -30 -117 0 0 30zm68 36l-68 0 0 30 68 0 0 -30zm-68 96l117 0 0 -30 -117 0 0 30zm18 172c0,84 -68,153 -153,153 -84,0 -153,-69 -153,-153 0,-55 29,-104 76,-132l0 -346c0,-43 35,-78 77,-78 43,0 78,35 78,78l0 346c46,28 75,77 75,132zm-30 0c0,-46 -26,-88 -67,-109l-9 -4 0 -365c0,-26 -21,-47 -47,-47 -26,0 -47,21 -47,47l0 365 -8 4c-42,21 -67,63 -67,109 0,68 55,123 122,123 68,0 123,-55 123,-123zm-25 0c0,54 -44,98 -98,98 -53,0 -97,-44 -97,-98 0,-44 30,-83 72,-94l6 -2 0 -335 39 0 0 335 5 2c43,11 73,50 73,94zm-93 -65c-2,-10 -13,-17 -23,-15 -37,9 -63,41 -63,79 0,11 9,19 20,19 10,0 19,-8 19,-19 0,-19 14,-36 32,-41 11,-2 18,-12 15,-23z"/>
 </g>
</svg>
