<?xml version="1.0" encoding="UTF-8"?>
<!DOCTYPE svg PUBLIC "-//W3C//DTD SVG 1.1//EN" "http://www.w3.org/Graphics/SVG/1.1/DTD/svg11.dtd">
<!-- Creator: CorelDRAW X7 -->
<svg xmlns="http://www.w3.org/2000/svg" xml:space="preserve" width="0.787402in" height="0.787402in" version="1.1" style="shape-rendering:geometricPrecision; text-rendering:geometricPrecision; image-rendering:optimizeQuality; fill-rule:evenodd; clip-rule:evenodd"
viewBox="0 0 787 787"
 xmlns:xlink="http://www.w3.org/1999/xlink">
 <defs>
  <style type="text/css">
   <![CDATA[
    .fil0 {fill:black}
   ]]>
  </style>
 </defs>
 <g id="Layer_x0020_1">
  <metadata id="CorelCorpID_0Corel-Layer"/>
  <path class="fil0" d="M394 39c195,0 354,159 354,355 0,195 -159,354 -354,354 -196,0 -355,-159 -355,-354 0,-196 159,-355 355,-355zm207 446c-1,0 -1,-1 -1,-1 -10,-15 -25,-27 -42,-34l0 -228c0,-31 -26,-57 -57,-57l-272 0c-31,0 -56,26 -56,57l0 58c0,15 12,27 26,27l59 0 0 245c0,15 13,27 27,27l165 0c16,26 44,43 76,43 70,0 112,-78 75,-137zm-132 -184c-13,-4 -26,-8 -34,-14 -2,-2 -3,-6 -2,-8 2,-16 26,-15 36,-8l0 0 0 0c8,8 22,2 22,-10 0,-4 -2,-8 -5,-10 -5,-4 -12,-8 -22,-10l0 -5c0,-7 -6,-13 -14,-13 -7,0 -13,6 -13,13l0 5c-34,9 -41,51 -18,68 9,6 21,11 41,18 13,4 14,13 13,18 -1,8 -9,17 -23,17 -13,0 -18,0 -28,-6 -6,-4 -14,-2 -18,4 -4,6 -2,15 4,19 11,6 19,9 29,10l0 5c0,7 6,13 13,13 8,0 14,-6 14,-13l0 -6c43,-12 52,-71 5,-87zm-61 172l-79 0c-7,0 -13,6 -13,14 0,7 6,13 13,13l79 0c7,0 13,-6 13,-13 0,-8 -6,-14 -13,-14zm0 -57l-79 0c-7,0 -13,6 -13,14 0,7 6,13 13,13l79 0c7,0 13,-6 13,-13 0,-8 -6,-14 -13,-14zm-79 -30l29 0c7,0 13,-6 13,-14 0,-7 -6,-13 -13,-13l-29 0c-7,0 -13,6 -13,13 0,8 6,14 13,14zm0 -58l29 0c7,0 13,-6 13,-13 0,-8 -6,-14 -13,-14l-29 0c-7,0 -13,6 -13,14 0,7 6,13 13,13zm0 -50l29 0c7,0 13,-6 13,-13 0,-8 -6,-14 -13,-14l-29 0c-7,0 -13,6 -13,14 0,7 6,13 13,13zm-71 2l-59 0 0 -58c0,-17 14,-30 30,-30 16,0 29,13 29,30l0 58zm182 272l-155 0c0,-14 0,-309 0,-323 0,-10 1,-22 -8,-37l224 0c16,0 30,13 30,30l0 223c-58,-3 -104,50 -91,107zm86 43c-34,0 -62,-28 -62,-62 0,-55 69,-83 107,-42l-41 41 -12 -12c-5,-5 -14,-5 -19,0 -5,6 -5,14 0,19l21 22c6,5 14,5 19,0l46 -46c13,40 -17,80 -59,80z"/>
 </g>
</svg>
