<?xml version="1.0" encoding="UTF-8"?>
<!DOCTYPE svg PUBLIC "-//W3C//DTD SVG 1.1//EN" "http://www.w3.org/Graphics/SVG/1.1/DTD/svg11.dtd">
<!-- Creator: CorelDRAW X7 -->
<svg xmlns="http://www.w3.org/2000/svg" xml:space="preserve" width="0.5in" height="0.5in" version="1.1" style="shape-rendering:geometricPrecision; text-rendering:geometricPrecision; image-rendering:optimizeQuality; fill-rule:evenodd; clip-rule:evenodd"
viewBox="0 0 500 500"
 xmlns:xlink="http://www.w3.org/1999/xlink">
 <defs>
  <style type="text/css">
   <![CDATA[
    .fil0 {fill:#1F1B20}
   ]]>
  </style>
 </defs>
 <g id="Layer_x0020_1">
  <metadata id="CorelCorpID_0Corel-Layer"/>
  <path class="fil0" d="M250 125c-4,0 -7,3 -7,7 0,4 3,7 7,7 61,0 111,50 111,111 0,61 -50,111 -111,111 -61,0 -111,-50 -111,-111 0,-30 13,-58 34,-79l0 13c0,4 3,7 7,7 4,0 8,-3 8,-7l0 -30c0,-4 -4,-7 -8,-7l-29 0c-4,0 -8,3 -8,7 0,4 4,8 8,8l11 0c-24,23 -38,55 -38,88 0,69 57,126 126,126 69,0 126,-57 126,-126 0,-69 -57,-125 -126,-125zm10 145c2,3 7,3 10,0 3,-3 3,-8 0,-10l-13 -13 0 -26c0,-4 -3,-8 -7,-8 -4,0 -7,4 -7,8l0 29c0,2 0,4 2,5l15 15zm-69 -27l-7 0c2,-13 7,-25 14,-34l5 5c3,2 8,2 11,0 2,-3 2,-8 0,-11l-5 -5c9,-7 21,-12 34,-14l0 7c0,4 3,8 7,8 4,0 7,-4 7,-8l0 -7c13,2 25,7 34,14l-5 5c-2,3 -2,8 0,11 3,2 8,2 11,0l5 -5c7,9 12,21 14,34l-7 0c-4,0 -8,3 -8,7 0,4 4,7 8,7l7 0c-2,13 -7,25 -14,34l-5 -5c-3,-2 -8,-2 -11,0 -2,3 -2,8 0,11l5 5c-9,7 -21,12 -34,14l0 -7c0,-4 -3,-8 -7,-8 -4,0 -7,4 -7,8l0 7c-13,-2 -25,-7 -34,-14l5 -5c2,-3 2,-8 0,-11 -3,-2 -8,-2 -11,0l-5 5c-7,-9 -12,-21 -14,-34l7 0c4,0 8,-3 8,-7 0,-4 -4,-7 -8,-7zm59 88c45,0 81,-36 81,-81 0,-45 -36,-81 -81,-81 -45,0 -81,36 -81,81 0,45 36,81 81,81z"/>
 </g>
</svg>
