<?xml version="1.0" encoding="UTF-8"?>
<!DOCTYPE svg PUBLIC "-//W3C//DTD SVG 1.1//EN" "http://www.w3.org/Graphics/SVG/1.1/DTD/svg11.dtd">
<!-- Creator: CorelDRAW X7 -->
<svg xmlns="http://www.w3.org/2000/svg" xml:space="preserve" width="0.5in" height="0.5in" version="1.1" style="shape-rendering:geometricPrecision; text-rendering:geometricPrecision; image-rendering:optimizeQuality; fill-rule:evenodd; clip-rule:evenodd"
viewBox="0 0 500 500"
 xmlns:xlink="http://www.w3.org/1999/xlink">
 <defs>
  <style type="text/css">
   <![CDATA[
    .fil0 {fill:#1F1B20;fill-rule:nonzero}
   ]]>
  </style>
 </defs>
 <g id="Layer_x0020_1">
  <metadata id="CorelCorpID_0Corel-Layer"/>
  <path class="fil0" d="M161 125l178 0c10,0 19,4 26,10 6,7 10,16 10,26l0 178c0,10 -4,19 -10,26l0 0c-7,6 -16,11 -26,11l-178 0c-10,0 -19,-5 -26,-11l0 0 0 0c-6,-7 -10,-16 -10,-26l0 -178c0,-10 4,-19 10,-26l0 0c7,-6 16,-10 26,-10zm26 47l39 0 8 0 0 8 0 140 0 8 -8 0 -39 0 -8 0 0 -8 0 -140 0 -8 8 0zm31 15l-23 0 0 126 23 0 0 -126zm56 -15l39 0 8 0 0 8 0 140 0 8 -8 0 -39 0 -8 0 0 -8 0 -140 0 -8 8 0zm32 15l-24 0 0 126 24 0 0 -126zm33 -47l-178 0c-6,0 -11,3 -15,6l0 0c-3,4 -6,9 -6,15l0 178c0,6 3,11 6,15l0 0c4,3 9,6 15,6l178 0c6,0 11,-3 15,-6l0 0c3,-4 6,-9 6,-15l0 -178c0,-6 -3,-11 -6,-15 -4,-3 -9,-6 -15,-6z"/>
 </g>
</svg>
