<?xml version="1.0" encoding="UTF-8"?>
<!DOCTYPE svg PUBLIC "-//W3C//DTD SVG 1.1//EN" "http://www.w3.org/Graphics/SVG/1.1/DTD/svg11.dtd">
<!-- Creator: CorelDRAW X7 -->
<svg xmlns="http://www.w3.org/2000/svg" xml:space="preserve" width="0.5in" height="0.5in" version="1.1" style="shape-rendering:geometricPrecision; text-rendering:geometricPrecision; image-rendering:optimizeQuality; fill-rule:evenodd; clip-rule:evenodd"
viewBox="0 0 500 500"
 xmlns:xlink="http://www.w3.org/1999/xlink">
 <defs>
  <style type="text/css">
   <![CDATA[
    .fil0 {fill:#1F1B20}
   ]]>
  </style>
 </defs>
 <g id="Layer_x0020_1">
  <metadata id="CorelCorpID_0Corel-Layer"/>
  <path class="fil0" d="M285 360l49 0 0 -108c0,-4 4,-8 8,-8l21 0 -21 -19c-1,-2 -2,-4 -2,-6l0 -63 -38 0 0 14c0,3 -2,6 -5,7 -3,2 -6,1 -8,-1l-39 -35 -113 103 21 0c4,0 8,4 8,8l0 108 49 0 0 -66c0,-4 4,-7 8,-7l54 0c4,0 8,3 8,7l0 66 0 0zm57 16l-65 0c-4,0 -8,-4 -8,-8l0 -66 -38 0 0 66c0,4 -4,8 -8,8l-65 0c-4,0 -8,-4 -8,-8l0 -108 -18 0c-6,0 -11,-4 -13,-9 -2,-5 -1,-11 3,-15l119 -108c2,-2 6,-3 9,-3 3,0 7,1 9,3l27 25 0 -5c0,-4 4,-7 8,-7l54 0c4,0 7,3 7,7l0 68 23 20c4,4 5,10 3,15 -2,5 -7,9 -13,9l-18 0 0 108c0,4 -4,8 -8,8z"/>
 </g>
</svg>
