<?xml version="1.0" encoding="UTF-8"?>
<!DOCTYPE svg PUBLIC "-//W3C//DTD SVG 1.1//EN" "http://www.w3.org/Graphics/SVG/1.1/DTD/svg11.dtd">
<!-- Creator: CorelDRAW X7 -->
<svg xmlns="http://www.w3.org/2000/svg" xml:space="preserve" width="0.5in" height="0.5in" version="1.1" style="shape-rendering:geometricPrecision; text-rendering:geometricPrecision; image-rendering:optimizeQuality; fill-rule:evenodd; clip-rule:evenodd"
viewBox="0 0 500 500"
 xmlns:xlink="http://www.w3.org/1999/xlink">
 <defs>
  <style type="text/css">
   <![CDATA[
    .fil0 {fill:#1F1B20}
   ]]>
  </style>
 </defs>
 <g id="Layer_x0020_1">
  <metadata id="CorelCorpID_0Corel-Layer"/>
  <path class="fil0" d="M327 306c-13,0 -23,10 -23,23 0,13 10,23 23,23 12,0 23,-10 23,-23 0,-13 -11,-23 -23,-23zm123 -174l-61 0c-9,0 -16,7 -16,16l0 61c0,9 7,16 16,16l24 0 0 137c0,4 3,6 6,6 4,0 7,-2 7,-6l0 -137 24 0c9,0 16,-7 16,-16l0 -61c0,-9 -7,-16 -16,-16zm-14 50c-3,3 -8,5 -15,5l-9 0c-1,0 -2,1 -2,2l0 15c0,2 -1,3 -3,3l-7 0c-1,0 -3,-1 -3,-3l0 -51c0,-2 2,-3 3,-3l17 0c11,0 16,1 19,4 4,3 6,8 6,14 0,6 -2,11 -6,14zm-55 102c-14,-16 -33,-25 -54,-25 -4,0 -7,0 -10,1 -3,-15 -17,-35 -31,-51l0 -48c0,-2 0,-4 -2,-5 -1,-1 -3,-1 -5,-1l-9 3c-5,1 -9,4 -13,7l-5 -22c0,-3 -2,-5 -5,-5l-10 0 0 -8c0,-3 -3,-5 -6,-5 -3,0 -5,2 -5,5l0 29c0,3 2,6 5,6 3,0 6,-3 6,-6l0 -9 5 0 7 32c-3,3 -5,7 -6,11l-16 18c-2,3 -2,6 0,8 2,1 3,2 4,2 2,0 3,-1 5,-2l9 -11c1,2 2,3 3,4 6,9 15,21 21,34 7,14 8,26 5,35 -5,13 -20,23 -39,27 -21,4 -41,0 -51,-11 -4,-4 -6,-9 -6,-14 1,-8 9,-19 23,-30 0,0 1,-2 1,-2 5,-6 5,-14 2,-21 -4,-7 -11,-12 -19,-12l-82 0c-16,0 -29,12 -30,28 -3,3 -11,11 -19,22 -13,20 -20,38 -20,54 0,3 2,6 5,6l20 0c0,0 0,1 0,1 0,26 21,47 46,47 22,0 40,-15 45,-35l132 0c5,20 23,35 45,35 25,0 46,-21 46,-47 0,-9 -3,-18 -7,-25l14 -12c1,-1 2,-2 2,-4 0,-1 0,-3 -1,-4zm-229 -54l33 0c4,0 7,2 9,5 1,2 1,5 0,8l-42 0 0 -13zm-49 0l38 0 0 13 -56 0c2,-8 10,-13 18,-13zm2 134c-19,0 -35,-16 -35,-35 0,0 0,-1 0,-1l12 0c0,0 0,1 0,1 0,13 11,23 23,23 13,0 23,-10 23,-23 0,0 0,-1 0,-1l12 0c0,0 0,1 0,1 0,19 -15,35 -35,35zm-11 -35c0,0 0,-1 0,-1l23 0c0,0 0,1 0,1 0,6 -5,12 -12,12 -6,0 -11,-6 -11,-12zm49 -13l-84 0c2,-5 5,-13 11,-21 14,-17 34,-25 60,-24 12,1 19,4 22,9 3,7 0,19 -9,36zm114 13l-105 0c0,0 0,0 0,0 0,-2 0,-3 0,-5 8,-16 17,-35 10,-49 -5,-9 -15,-14 -31,-15 -38,-3 -59,14 -70,29 -8,10 -12,21 -14,27l-2 0c4,-27 29,-55 36,-62l102 0c-10,10 -15,19 -16,29 -1,8 2,15 9,22 12,14 37,19 61,14 8,-1 16,-4 22,-7 -1,5 -2,11 -2,17 0,0 0,0 0,0zm16 -160l2 -1 0 28c-6,-6 -11,-11 -14,-14 1,-6 6,-12 12,-13zm-16 36c-2,-2 -3,-5 -3,-8 1,-2 1,-3 2,-5 16,17 48,52 49,70 -6,3 -13,6 -18,10 0,-15 -6,-37 -30,-67zm70 159c-20,0 -35,-16 -35,-35 0,-19 15,-35 35,-35 19,0 35,16 35,35 0,19 -16,35 -35,35zm31 -69c-8,-8 -19,-12 -31,-12 -26,0 -47,20 -47,46 0,0 0,0 0,0l-12 0c0,0 0,0 0,0 0,-32 27,-59 59,-59 15,0 30,7 41,17l-10 8zm-31 46c-7,0 -12,-6 -12,-12 0,-6 5,-12 12,-12 6,0 11,6 11,12 0,6 -5,12 -11,12z"/>
 </g>
</svg>
