<?xml version="1.0" encoding="UTF-8"?>
<!DOCTYPE svg PUBLIC "-//W3C//DTD SVG 1.1//EN" "http://www.w3.org/Graphics/SVG/1.1/DTD/svg11.dtd">
<!-- Creator: CorelDRAW X7 -->
<svg xmlns="http://www.w3.org/2000/svg" xml:space="preserve" width="0.5in" height="0.5in" version="1.1" style="shape-rendering:geometricPrecision; text-rendering:geometricPrecision; image-rendering:optimizeQuality; fill-rule:evenodd; clip-rule:evenodd"
viewBox="0 0 500 500"
 xmlns:xlink="http://www.w3.org/1999/xlink">
 <defs>
  <style type="text/css">
   <![CDATA[
    .fil0 {fill:#1F1B20}
   ]]>
  </style>
 </defs>
 <g id="Layer_x0020_1">
  <metadata id="CorelCorpID_0Corel-Layer"/>
  <path class="fil0" d="M351 260l0 -79c14,-2 25,-14 25,-28 0,-16 -13,-28 -29,-28 -15,0 -28,12 -28,28l-195 0 0 162 122 0c2,34 30,61 65,61 35,0 65,-30 65,-65 0,-21 -10,-39 -25,-51zm-146 39l25 0 0 -65 -25 0 0 65zm9 -57l8 0 0 48 -8 0 0 -48zm-41 57l24 0 0 -33 -24 0 0 33zm8 -25l8 0 0 16 -8 0 0 -16zm-40 25l24 0 0 -41 -24 0 0 41zm8 -33l8 0 0 24 -8 0 0 -24zm8 -48l57 0 0 8 -57 0 0 -8zm-16 0l8 0 0 8 -8 0 0 -8zm16 -17l57 0 0 9 -57 0 0 -9zm-16 0l8 0 0 9 -8 0 0 -9zm16 -16l57 0 0 8 -57 0 0 -8zm-16 0l8 0 0 8 -8 0 0 -8zm16 -16l57 0 0 8 -57 0 0 -8zm-16 0l8 0 0 8 -8 0 0 -8zm170 117c-14,0 -25,11 -25,25 0,13 11,24 25,24 13,0 24,-11 24,-24 0,-14 -11,-25 -24,-25zm0 41c-9,0 -16,-7 -16,-16 0,-9 7,-16 16,-16 9,0 16,7 16,16 0,9 -7,16 -16,16zm36 -194c11,0 20,9 20,20 0,11 -9,20 -20,20 -11,0 -20,-9 -20,-20 0,-11 9,-20 20,-20zm-214 28l187 0c1,3 3,6 4,9l-24 25c-2,-1 -4,-2 -5,-2 -2,0 -4,1 -6,2l-8 -9c1,-1 1,-3 1,-5 0,-7 -5,-12 -12,-12 -6,0 -12,5 -12,12 0,2 1,4 1,5l-20 21c-2,-1 -3,-2 -5,-2 -7,0 -12,6 -12,13 0,6 5,12 12,12 7,0 12,-6 12,-12 0,-2 -1,-4 -1,-6l20 -20c2,1 3,1 5,1 2,0 4,0 5,-1l9 8c-1,2 -2,4 -2,5 0,7 6,13 13,13 6,0 12,-6 12,-13 0,-1 -1,-3 -2,-5l25 -24c4,2 8,4 13,5l0 74c-9,-6 -20,-9 -32,-9 -20,0 -37,9 -49,22l0 -18 -24 0 0 49 9 0c0,2 -1,5 -1,8l-113 0 0 -146zm162 40c2,0 4,2 4,4 0,3 -2,5 -4,5 -3,0 -5,-2 -5,-5 0,-2 2,-4 5,-4zm-29 -20c0,-2 2,-4 4,-4 2,0 4,2 4,4 0,2 -2,4 -4,4 -2,0 -4,-2 -4,-4zm-28 37c0,2 -2,4 -4,4 -2,0 -4,-2 -4,-4 0,-3 2,-4 4,-4 2,0 4,1 4,4zm73 125c-18,0 -33,-14 -33,-32 0,-18 15,-33 33,-33 18,0 32,15 32,33 0,18 -14,32 -32,32zm-57 -64c-2,4 -3,8 -5,11l-3 0 0 -32 8 0 0 21zm53 -25l0 16c-21,2 -37,20 -37,41 0,6 2,11 4,16l-14 8c-4,-7 -6,-15 -6,-24 0,-30 23,-55 53,-57zm4 113c-20,0 -37,-9 -47,-25l14 -8c7,11 19,17 33,17 13,0 25,-6 33,-17l14 8c-11,16 -28,25 -47,25zm51 -32l-14 -8c2,-5 3,-10 3,-16 0,-21 -16,-39 -36,-41l0 -16c29,2 52,27 52,57 0,9 -2,17 -5,24z"/>
 </g>
</svg>
