<?xml version="1.0" encoding="UTF-8"?>
<!DOCTYPE svg PUBLIC "-//W3C//DTD SVG 1.1//EN" "http://www.w3.org/Graphics/SVG/1.1/DTD/svg11.dtd">
<!-- Creator: CorelDRAW X7 -->
<svg xmlns="http://www.w3.org/2000/svg" xml:space="preserve" width="0.5in" height="0.5in" version="1.1" style="shape-rendering:geometricPrecision; text-rendering:geometricPrecision; image-rendering:optimizeQuality; fill-rule:evenodd; clip-rule:evenodd"
viewBox="0 0 500 500"
 xmlns:xlink="http://www.w3.org/1999/xlink">
 <defs>
  <style type="text/css">
   <![CDATA[
    .fil0 {fill:#1F1B20}
   ]]>
  </style>
 </defs>
 <g id="Layer_x0020_1">
  <metadata id="CorelCorpID_0Corel-Layer"/>
  <path class="fil0" d="M356 287l0 -104c0,-10 -9,-19 -20,-19l-12 0 0 10c0,5 -5,9 -10,9 -6,0 -10,-4 -10,-9l0 -10 -45 0 0 10c0,5 -4,9 -9,9 -6,0 -10,-4 -10,-9l0 -10 -44 0 0 10c0,5 -5,9 -10,9 -6,0 -10,-4 -10,-9l0 -10 -12 0c-11,0 -20,9 -20,19l0 153c0,11 9,20 20,20l172 0c11,0 20,-9 20,-20 0,-5 4,-10 10,-10 5,0 10,5 10,10 0,22 -18,40 -40,40l-172 0c-22,0 -39,-18 -39,-40l0 -153c0,-21 17,-39 39,-39l12 0 0 -10c0,-5 4,-9 10,-9 5,0 10,4 10,9l0 10 44 0 0 -10c0,-5 4,-9 10,-9 5,0 9,4 9,9l0 10 45 0 0 -10c0,-5 4,-9 10,-9 5,0 10,4 10,9l0 10 12 0c22,0 40,18 40,39l0 104c0,6 -5,10 -10,10 -6,0 -10,-4 -10,-10zm-55 38c0,6 -7,9 -11,4l-89 0c-10,0 -19,-8 -19,-19 0,-10 9,-19 19,-19l43 0c6,0 10,-5 10,-10 0,-6 -4,-11 -10,-11l-34 0c-4,5 -11,2 -11,-4 0,-6 7,-9 11,-4l34 0c10,0 19,8 19,19 0,10 -9,19 -19,19l-43 0c-6,0 -10,4 -10,10 0,6 4,11 10,11l89 0c4,-5 11,-2 11,4zm-89 -106c0,4 -3,6 -6,6 -4,0 -7,-2 -7,-6 0,-3 3,-6 7,-6 3,0 6,3 6,6zm-9 35c1,1 4,1 5,0 1,0 5,-5 10,-11 7,-9 11,-17 11,-24 0,-13 -11,-23 -23,-23 -13,0 -24,10 -24,23 0,7 4,15 11,24 5,6 10,11 10,11zm3 -50c8,0 14,7 14,15 0,9 -9,20 -14,26 -6,-6 -15,-17 -15,-26 0,-8 6,-15 15,-15zm88 68c-5,0 -8,7 -4,11 3,3 9,2 10,-2 2,-4 -1,-9 -6,-9zm0 -17c-12,0 -23,11 -23,24 0,7 4,15 11,23 5,7 9,11 10,11 1,2 4,2 5,0 1,0 5,-4 10,-11 6,-6 11,-15 11,-23 0,-13 -11,-24 -24,-24zm0 49c-5,-6 -14,-17 -14,-25 0,-9 6,-15 14,-15 9,0 15,6 15,15 0,8 -9,19 -15,25z"/>
 </g>
</svg>
