<?xml version="1.0" encoding="UTF-8"?>
<!DOCTYPE svg PUBLIC "-//W3C//DTD SVG 1.1//EN" "http://www.w3.org/Graphics/SVG/1.1/DTD/svg11.dtd">
<!-- Creator: CorelDRAW X7 -->
<svg xmlns="http://www.w3.org/2000/svg" xml:space="preserve" width="0.5in" height="0.5in" version="1.1" style="shape-rendering:geometricPrecision; text-rendering:geometricPrecision; image-rendering:optimizeQuality; fill-rule:evenodd; clip-rule:evenodd"
viewBox="0 0 500 500"
 xmlns:xlink="http://www.w3.org/1999/xlink">
 <defs>
  <style type="text/css">
   <![CDATA[
    .fil0 {fill:#1F1B20}
   ]]>
  </style>
 </defs>
 <g id="Layer_x0020_1">
  <metadata id="CorelCorpID_0Corel-Layer"/>
  <path class="fil0" d="M250 128c68,0 122,54 122,122 0,68 -54,122 -122,122 -68,0 -122,-54 -122,-122 0,-68 54,-122 122,-122zm-17 184c-1,-1 -1,-1 -2,-1 -1,0 -1,0 -2,0 -1,0 -2,1 -2,3l-1 5c-36,-12 -58,-51 -47,-90 8,-25 28,-44 53,-50l2 -1c2,0 3,-2 3,-4l-2 -7c0,-2 -2,-4 -4,-3l-1 0c-33,9 -60,35 -66,69 -10,46 19,90 62,102 0,0 1,0 1,0 7,2 15,3 23,3 1,0 3,-1 3,-2 1,-1 1,-3 0,-4l-20 -20zm-3 -98c-1,0 -2,2 -2,3l0 66c0,1 1,3 2,3 0,1 1,1 2,1 0,0 1,0 2,-1l51 -33c1,-1 2,-2 2,-3 0,-1 -1,-2 -2,-3l-51 -33c-2,-1 -3,-1 -4,0zm44 -49c0,0 -1,0 -1,0 -7,-2 -15,-3 -23,-3 -1,0 -3,1 -3,2 -1,1 -1,3 0,4l20 20c1,1 1,1 2,1 1,0 1,0 2,0 1,0 2,-1 2,-3l1 -5c36,12 58,51 47,90 -8,25 -28,44 -53,50l-2 1c-2,0 -3,2 -3,4l2 7c0,2 2,4 4,3l1 0c33,-9 60,-35 66,-69 10,-46 -19,-90 -62,-102z"/>
 </g>
</svg>
