<?xml version="1.0" encoding="UTF-8"?>
<!DOCTYPE svg PUBLIC "-//W3C//DTD SVG 1.1//EN" "http://www.w3.org/Graphics/SVG/1.1/DTD/svg11.dtd">
<!-- Creator: CorelDRAW X7 -->
<svg xmlns="http://www.w3.org/2000/svg" xml:space="preserve" width="0.5in" height="0.5in" version="1.1" style="shape-rendering:geometricPrecision; text-rendering:geometricPrecision; image-rendering:optimizeQuality; fill-rule:evenodd; clip-rule:evenodd"
viewBox="0 0 500 500"
 xmlns:xlink="http://www.w3.org/1999/xlink">
 <defs>
  <style type="text/css">
   <![CDATA[
    .fil0 {fill:#1F1B20}
   ]]>
  </style>
 </defs>
 <g id="Layer_x0020_1">
  <metadata id="CorelCorpID_0Corel-Layer"/>
  <path class="fil0" d="M170 353l54 0 0 -206 -54 0 0 15 35 0 3 0 0 4 0 15 0 4 -3 0 -35 0 0 15 19 0 4 0 0 4 0 16 0 3 -4 0 -19 0 0 16 35 0 3 0 0 3 0 16 0 3 -3 0 -35 0 0 16 19 0 4 0 0 3 0 16 0 4 -4 0 -19 0 0 15 35 0 3 0 0 4 0 15 0 4 -3 0 -35 0 0 15zm145 -190l0 174 19 -19 2 -3 3 3 11 11 2 3 -2 2 -38 38 0 0c-3,3 -5,4 -8,4l0 0c-2,0 -3,-1 -5,-1l0 0c-1,-1 -2,-2 -3,-3l0 0 -38 -38 -3 -2 3 -3 10 -11 3 -3 3 3 18 19 0 -174 -18 19 -3 3 -3 -3 -11 -11 -2 -3 2 -2 39 -38 0 0c2,-3 5,-4 8,-4 1,0 3,1 4,1l0 0c1,1 3,2 4,3l0 0 38 38 2 2 -2 3 -11 11 -3 3 -2 -3 -19 -19zm-156 -39l76 0c3,0 6,2 8,4 2,2 4,5 4,8l0 0 0 228 0 0c0,3 -2,6 -4,8l0 0c-2,2 -5,4 -8,4l-76 0c-3,0 -6,-2 -8,-4l0 0c-2,-2 -3,-5 -3,-8l0 -228c0,-3 1,-6 3,-8l0 0c2,-2 5,-4 8,-4z"/>
 </g>
</svg>
