<?xml version="1.0" encoding="UTF-8"?>
<!DOCTYPE svg PUBLIC "-//W3C//DTD SVG 1.1//EN" "http://www.w3.org/Graphics/SVG/1.1/DTD/svg11.dtd">
<!-- Creator: CorelDRAW X7 -->
<svg xmlns="http://www.w3.org/2000/svg" xml:space="preserve" width="0.5in" height="0.5in" version="1.1" style="shape-rendering:geometricPrecision; text-rendering:geometricPrecision; image-rendering:optimizeQuality; fill-rule:evenodd; clip-rule:evenodd"
viewBox="0 0 500 500"
 xmlns:xlink="http://www.w3.org/1999/xlink">
 <defs>
  <style type="text/css">
   <![CDATA[
    .fil0 {fill:#1F1B20}
   ]]>
  </style>
 </defs>
 <g id="Layer_x0020_1">
  <metadata id="CorelCorpID_0Corel-Layer"/>
  <path class="fil0" d="M226 338c-1,-1 -2,-1 -4,-1 0,0 -1,0 -1,0 -2,0 -3,2 -4,4l-1 8c-51,-18 -82,-73 -66,-128 10,-36 39,-63 75,-72l3 -1c3,-1 4,-4 3,-7l-2 -10c-1,-3 -4,-4 -7,-3l-1 0c-47,13 -85,50 -94,97 -13,66 27,128 89,146 0,0 1,0 1,0 11,3 22,5 33,5 2,0 4,-2 5,-4 1,-2 0,-4 -1,-5l-28 -29zm-5 -140c-1,1 -2,3 -2,5l0 94c0,2 1,4 2,5 1,0 2,0 3,0 1,0 2,0 3,-1l73 -47c1,-1 2,-2 2,-4 0,-2 -1,-3 -2,-4l-73 -47c-2,-2 -4,-2 -6,-1zm63 -69c0,0 -1,0 -1,0 -11,-3 -22,-4 -33,-4 -2,0 -4,1 -5,3 -1,2 0,4 1,5l28 29c1,1 2,2 4,2 0,0 1,-1 1,-1 2,0 3,-2 4,-4l1 -8c51,18 82,73 66,128 -10,36 -39,63 -75,72l-3 1c-3,1 -4,4 -3,7l2 10c1,3 4,4 7,3l1 0c47,-13 85,-50 94,-97 13,-66 -27,-128 -89,-146z"/>
 </g>
</svg>
