<?xml version="1.0" encoding="UTF-8"?>
<!DOCTYPE svg PUBLIC "-//W3C//DTD SVG 1.1//EN" "http://www.w3.org/Graphics/SVG/1.1/DTD/svg11.dtd">
<!-- Creator: CorelDRAW X7 -->
<svg xmlns="http://www.w3.org/2000/svg" xml:space="preserve" width="0.5in" height="0.5in" version="1.1" style="shape-rendering:geometricPrecision; text-rendering:geometricPrecision; image-rendering:optimizeQuality; fill-rule:evenodd; clip-rule:evenodd"
viewBox="0 0 500 500"
 xmlns:xlink="http://www.w3.org/1999/xlink">
 <defs>
  <style type="text/css">
   <![CDATA[
    .fil0 {fill:#1F1B20}
   ]]>
  </style>
 </defs>
 <g id="Layer_x0020_1">
  <metadata id="CorelCorpID_0Corel-Layer"/>
  <path class="fil0" d="M324 302c19,-20 30,-46 30,-74 0,-57 -47,-103 -104,-103 -57,0 -104,46 -104,103 0,28 11,54 30,74l74 74 74 -74zm-41 -74c0,19 -15,34 -33,34 -18,0 -33,-15 -33,-34 0,-18 15,-33 33,-33 18,0 33,15 33,33zm-94 0c0,-33 27,-61 61,-61 34,0 61,28 61,61 0,34 -27,62 -61,62 -34,0 -61,-28 -61,-62z"/>
 </g>
</svg>
