<?xml version="1.0" encoding="UTF-8"?>
<!DOCTYPE svg PUBLIC "-//W3C//DTD SVG 1.1//EN" "http://www.w3.org/Graphics/SVG/1.1/DTD/svg11.dtd">
<!-- Creator: CorelDRAW X7 -->
<svg xmlns="http://www.w3.org/2000/svg" xml:space="preserve" width="0.5in" height="0.5in" version="1.1" style="shape-rendering:geometricPrecision; text-rendering:geometricPrecision; image-rendering:optimizeQuality; fill-rule:evenodd; clip-rule:evenodd"
viewBox="0 0 500 500"
 xmlns:xlink="http://www.w3.org/1999/xlink">
 <defs>
  <style type="text/css">
   <![CDATA[
    .fil0 {fill:#1F1B20}
   ]]>
  </style>
 </defs>
 <g id="Layer_x0020_1">
  <metadata id="CorelCorpID_0Corel-Layer"/>
  <path class="fil0" d="M336 344l-48 0c-3,18 -19,32 -38,32 -19,0 -35,-14 -38,-32l-48 0c-10,0 -19,-8 -19,-18 0,-6 3,-11 7,-14 16,-14 25,-33 25,-54l0 -29c0,-38 28,-69 65,-73l0 -24c0,-4 4,-7 8,-7 4,0 8,3 8,7l0 24c37,4 65,35 65,73l0 29c0,21 9,40 25,54 4,3 7,8 7,14 0,10 -9,18 -19,18zm21 -107c-4,0 -8,-4 -8,-8 0,-30 -11,-58 -33,-79 -3,-3 -3,-8 0,-12 3,-3 8,-3 12,0 24,25 37,57 37,91 0,4 -3,8 -8,8zm-214 0c-5,0 -8,-4 -8,-8 0,-34 13,-66 37,-91 4,-3 9,-3 12,0 3,4 3,9 0,12 -22,21 -33,49 -33,79 0,4 -4,8 -8,8zm129 107l-44 0c3,9 12,16 22,16 10,0 19,-7 22,-16zm-22 -172c-32,0 -58,25 -58,57l0 29c0,26 -11,49 -30,66 0,0 -1,1 -1,2 0,1 1,2 3,2l55 0 62 0 55 0c2,0 3,-1 3,-2 0,-1 -1,-2 -1,-2 -19,-17 -30,-40 -30,-66l0 -29c0,-32 -26,-57 -58,-57z"/>
 </g>
</svg>
