<?xml version="1.0" encoding="UTF-8"?>
<!DOCTYPE svg PUBLIC "-//W3C//DTD SVG 1.1//EN" "http://www.w3.org/Graphics/SVG/1.1/DTD/svg11.dtd">
<!-- Creator: CorelDRAW X7 -->
<svg xmlns="http://www.w3.org/2000/svg" xml:space="preserve" width="0.5in" height="0.5in" version="1.1" style="shape-rendering:geometricPrecision; text-rendering:geometricPrecision; image-rendering:optimizeQuality; fill-rule:evenodd; clip-rule:evenodd"
viewBox="0 0 500 500"
 xmlns:xlink="http://www.w3.org/1999/xlink">
 <defs>
  <style type="text/css">
   <![CDATA[
    .fil6 {fill:#FEFEFE}
    .fil5 {fill:#FEFEFE}
    .fil4 {fill:#66B337}
    .fil2 {fill:#00713C}
    .fil1 {fill:#009846}
    .fil0 {fill:#2A3444}
    .fil3 {fill:#E6E7E8}
   ]]>
  </style>
 </defs>
 <g id="Layer_x0020_1">
  <metadata id="CorelCorpID_0Corel-Layer"/>
  <g id="_1950554120432">
   <path class="fil0" d="M322 161l3 0 0 1c1,1 2,1 3,2l0 0c1,2 2,4 2,6 0,2 -1,4 -2,5 -1,1 -2,2 -3,2l0 1 -3 0 -7 0c-1,14 -4,23 -7,30 -4,6 -8,9 -11,12 -1,3 -2,5 -3,8 -3,9 -6,19 -11,27 -1,1 -1,2 -2,2 0,1 -1,1 -1,2l0 0c-1,1 -2,2 -3,3 -1,1 -2,2 -3,2l0 72c0,4 -1,7 -4,9 -2,3 -5,4 -9,4l-2 0 0 20c0,2 -1,4 -2,5 -1,1 -3,2 -5,2 -1,0 -3,-1 -4,-2 -1,-1 -2,-3 -2,-5l0 -20 -3 0c-3,0 -6,-1 -9,-4 -2,-2 -3,-5 -3,-9l0 -68c-2,-1 -4,-2 -5,-4 -2,-1 -4,-3 -6,-5l0 0c0,-1 -1,-1 -1,-2 -1,0 -1,-1 -2,-2 -5,-8 -8,-18 -11,-27 -1,-3 -2,-5 -3,-8 -3,-3 -7,-6 -11,-12 -3,-7 -6,-16 -7,-30l-7 0 -3 0 0 -1c-1,0 -2,-1 -3,-2 -1,-1 -2,-3 -2,-5 0,-2 1,-4 2,-6l0 0c1,-1 2,-1 3,-2l0 -1 3 0 11 0c2,-1 4,-2 6,-3 3,0 6,0 9,1 1,0 2,0 3,1 0,0 0,1 1,1l7 0 2 0 0 2 0 0 14 0 0 0c0,-3 1,-7 3,-9 3,-2 6,-4 9,-4l3 0 0 -19c0,-2 1,-4 2,-5l0 0c1,-1 3,-2 4,-2 2,0 4,1 5,2 1,1 2,3 2,5l0 19 2 0c4,0 7,2 9,4 3,2 4,6 4,9l0 0 9 0 0 0 0 -2 2 0 7 0c1,0 1,-1 1,-1 1,-1 2,-1 3,-1 3,-1 6,-1 9,-1 2,1 4,2 6,3l11 0zm-120 20c0,0 -1,0 -1,1 0,2 1,5 2,7 1,2 2,4 4,6 1,0 2,-1 3,-1 3,-1 5,0 8,1 2,1 4,3 6,5 0,1 1,2 1,3l0 0c2,0 3,0 4,0l0 0c0,0 1,0 2,0l0 -4 0 -6 0 0 0 -17 -14 0 0 0 0 2 -2 0 -5 0 0 0 0 0c-1,1 -1,1 -2,1l0 0c0,1 -1,1 -1,1 -1,0 -1,0 -2,0 -1,0 -1,0 -1,0 -1,0 -1,1 -2,1l0 0zm97 1c0,-1 -1,-1 -1,-1l0 0c-1,0 -1,-1 -2,-1 0,0 0,0 -1,0 -1,0 -1,0 -2,0 0,0 -1,0 -1,-1l0 0c-1,0 -1,0 -2,-1l0 0 -5 0 -2 0 0 -2 0 0 -9 0 0 17 0 0 0 6 0 4 1 0 0 0c0,-1 1,-2 1,-3 2,-2 4,-4 6,-5 3,-1 5,-2 8,-1 1,0 2,1 3,1 2,-2 3,-4 4,-6 1,-2 2,-5 2,-7z"/>
   <rect class="fil1" x="233" y="153" width="39.4312" height="194.578" rx="11" ry="11"/>
   <rect class="fil0" x="248" y="127" width="8.10738" height="34.9174" rx="4" ry="4"/>
   <rect class="fil0" x="248" y="338" width="8.10738" height="34.9174" rx="4" ry="4"/>
   <path class="fil0" d="M178 164l0 0 0 11 0 0c-4,0 -6,-2 -6,-5l0 0c0,-3 2,-6 6,-6z"/>
   <path class="fil2" d="M178 163l37 0 0 13 -37 0 0 -13zm144 0l-37 0 0 13 37 0 0 -13z"/>
   <rect class="fil0" x="215" y="165" width="70.3864" height="8.56831"/>
   <path class="fil0" d="M322 164l0 0 0 11 0 0c4,0 6,-2 6,-5l0 0c0,-3 -2,-6 -6,-6z"/>
   <path class="fil0" d="M250 271c2,0 4,0 5,0 4,-1 6,-1 8,-2 6,-2 11,-7 15,-11 1,-1 2,-3 3,-4 7,-11 10,-24 14,-36 3,-8 6,-14 0,-19 -7,-6 -17,-2 -19,7 -8,0 -17,0 -26,0l0 65z"/>
   <path class="fil0" d="M250 271c-2,0 -4,0 -5,0 -4,-1 -6,-1 -8,-2 -6,-2 -11,-7 -15,-11 -1,-1 -2,-3 -3,-4 -7,-11 -10,-24 -14,-36 -3,-8 -6,-14 0,-19 7,-6 17,-2 19,7 8,0 17,0 26,0l0 65z"/>
   <path class="fil3" d="M239 177c0,-2 0,-3 1,-4 0,-1 1,-2 2,-2 2,-1 3,-2 4,-3 1,-1 2,-1 3,-2 0,0 1,-1 1,-1 1,-1 1,-2 2,-2 2,0 2,1 3,2 0,0 0,1 1,1 1,1 1,1 3,2 1,1 2,2 3,3 2,0 3,1 3,2 0,1 1,2 1,4 -5,-2 -9,-3 -14,-4 -4,1 -9,2 -13,4z"/>
   <path class="fil0" d="M252 170c11,0 20,10 20,23 0,1 0,2 0,3 -1,-12 -10,-20 -20,-20 -10,0 -18,8 -19,20 0,-1 0,-2 0,-3 0,-13 9,-23 19,-23z"/>
   <path class="fil4" d="M301 174l10 0c1,0 2,0 3,0 -5,50 -26,42 -28,55 -1,1 -1,1 -1,3 -1,5 -2,10 -3,15 -2,5 -11,7 -15,7 -6,1 -11,2 -17,2 -6,0 -11,-1 -17,-2 -4,0 -13,-2 -15,-7 -1,-5 -2,-10 -3,-15 0,-2 0,-2 -1,-3 -2,-13 -23,-5 -28,-55 1,0 2,0 3,0l10 0c0,2 -1,4 -1,6 0,14 13,25 27,25 11,0 21,-6 25,-15 4,9 14,15 25,15 14,0 27,-11 27,-25 0,-2 -1,-4 -1,-6z"/>
   <ellipse class="fil5" cx="252" cy="199" rx="20" ry="23"/>
   <path class="fil6" d="M302 181c0,0 -1,-1 -1,-1 -1,0 -1,-1 -2,-1 -1,-1 -2,-1 -4,-1 -1,0 -1,0 -2,-1 -2,0 -2,-1 -2,-1 0,-2 1,-3 2,-4 1,-1 1,-1 1,-2 0,-1 0,-2 0,-2 0,-1 0,-2 0,-3 0,-1 0,-1 0,-2 0,-1 1,-2 3,-2 5,-2 13,-1 16,5 1,3 1,6 1,9 0,0 0,1 0,1 0,1 -1,2 -2,2 -1,0 -2,1 -4,1 -2,1 -5,2 -6,2zm-104 0c0,0 1,-1 1,-1 1,0 1,-1 2,-1 1,-1 2,-1 4,-1 1,0 1,0 2,-1 2,0 2,-1 2,-1 0,-2 -1,-3 -2,-4 -1,-1 -1,-1 -1,-2 0,-1 0,-2 0,-2 0,-1 0,-2 0,-3 0,-1 0,-1 0,-2 0,-1 -1,-2 -3,-2 -5,-2 -13,-1 -16,5 -1,3 -1,6 -1,9 0,0 0,1 0,1 0,1 1,2 2,2 1,0 2,1 4,1 2,1 5,2 6,2z"/>
  </g>
 </g>
</svg>
