<?xml version="1.0" encoding="UTF-8"?>
<!DOCTYPE svg PUBLIC "-//W3C//DTD SVG 1.1//EN" "http://www.w3.org/Graphics/SVG/1.1/DTD/svg11.dtd">
<!-- Creator: CorelDRAW X7 -->
<svg xmlns="http://www.w3.org/2000/svg" xml:space="preserve" width="0.5in" height="0.5in" version="1.1" style="shape-rendering:geometricPrecision; text-rendering:geometricPrecision; image-rendering:optimizeQuality; fill-rule:evenodd; clip-rule:evenodd"
viewBox="0 0 500 500"
 xmlns:xlink="http://www.w3.org/1999/xlink">
 <defs>
  <style type="text/css">
   <![CDATA[
    .fil0 {fill:#1F1B20}
   ]]>
  </style>
 </defs>
 <g id="Layer_x0020_1">
  <metadata id="CorelCorpID_0Corel-Layer"/>
  <path class="fil0" d="M336 270c-2,-2 -6,-3 -9,-1 -3,1 -5,4 -5,8l0 27 -15 0c-13,0 -24,-7 -31,-17l-58 -93c-13,-21 -36,-34 -61,-34l-50 0 0 36 50 0c13,0 24,7 31,17l58 93c13,21 36,34 61,34l15 0 0 27c0,3 2,6 5,8 1,0 2,1 4,1 2,0 4,-1 5,-3l54 -44c2,-2 3,-5 3,-7 0,-3 -1,-5 -3,-7l-54 -45zm-60 -57c7,-10 18,-17 31,-17l15 0 0 27c0,4 2,7 5,8 1,1 2,1 4,1 2,0 4,-1 5,-2l54 -45c2,-2 3,-4 3,-7 0,-2 -1,-5 -3,-7l-54 -44c-2,-3 -6,-3 -9,-2 -3,2 -5,5 -5,8l0 27 -15 0c-25,0 -48,13 -61,34l-3 5 21 34 12 -20zm-88 74c-7,10 -18,17 -31,17l-50 0 0 36 50 0c25,0 48,-13 61,-34l4 -5 -22 -34 -12 20z"/>
 </g>
</svg>
