<?xml version="1.0" encoding="UTF-8"?>
<!DOCTYPE svg PUBLIC "-//W3C//DTD SVG 1.1//EN" "http://www.w3.org/Graphics/SVG/1.1/DTD/svg11.dtd">
<!-- Creator: CorelDRAW X7 -->
<svg xmlns="http://www.w3.org/2000/svg" xml:space="preserve" width="0.5in" height="0.5in" version="1.1" style="shape-rendering:geometricPrecision; text-rendering:geometricPrecision; image-rendering:optimizeQuality; fill-rule:evenodd; clip-rule:evenodd"
viewBox="0 0 500 500"
 xmlns:xlink="http://www.w3.org/1999/xlink">
 <defs>
  <style type="text/css">
   <![CDATA[
    .fil0 {fill:#1F1B20}
   ]]>
  </style>
 </defs>
 <g id="Layer_x0020_1">
  <metadata id="CorelCorpID_0Corel-Layer"/>
  <path class="fil0" d="M129 263l22 0c6,45 41,80 86,86l0 22c0,3 2,4 4,5l18 0c2,-1 4,-2 4,-5l0 -22c45,-6 80,-41 86,-86l22 0c3,0 4,-2 4,-4l0 -18c0,-2 -1,-4 -4,-4l-22 0c-6,-45 -41,-80 -86,-86l0 -22c0,-3 -2,-4 -4,-4l-18 0c-2,0 -4,1 -4,4l0 22c-45,6 -80,41 -86,86l-22 0c-3,0 -4,2 -4,4l0 18c0,2 1,4 4,4zm156 -13c0,19 -16,35 -35,35 -19,0 -35,-16 -35,-35 0,-19 16,-35 35,-35 19,0 35,16 35,35zm-35 -74c41,0 74,33 74,74 0,41 -33,74 -74,74 -41,0 -74,-33 -74,-74 0,-41 33,-74 74,-74z"/>
 </g>
</svg>
