<?xml version="1.0" encoding="UTF-8"?>
<!DOCTYPE svg PUBLIC "-//W3C//DTD SVG 1.1//EN" "http://www.w3.org/Graphics/SVG/1.1/DTD/svg11.dtd">
<!-- Creator: CorelDRAW X7 -->
<svg xmlns="http://www.w3.org/2000/svg" xml:space="preserve" width="0.5in" height="0.5in" version="1.1" style="shape-rendering:geometricPrecision; text-rendering:geometricPrecision; image-rendering:optimizeQuality; fill-rule:evenodd; clip-rule:evenodd"
viewBox="0 0 500 500"
 xmlns:xlink="http://www.w3.org/1999/xlink">
 <defs>
  <style type="text/css">
   <![CDATA[
    .fil0 {fill:#1F1B20}
   ]]>
  </style>
 </defs>
 <g id="Layer_x0020_1">
  <metadata id="CorelCorpID_0Corel-Layer"/>
  <path class="fil0" d="M269 195c-5,5 -11,8 -19,8 -8,0 -14,-3 -19,-8 -5,-5 -8,-12 -8,-19 0,-8 3,-15 8,-20l0 0c5,-5 11,-8 19,-8 8,0 14,3 19,8 5,5 8,12 8,20 0,7 -3,14 -8,19zm3 41l-15 21 0 0c-1,1 -2,2 -3,2 -1,1 -3,1 -4,1 -1,0 -3,0 -4,-1 -1,0 -2,-1 -3,-2l0 0 -26 -38 0 0c-1,-1 -2,-4 -2,-6 1,-2 2,-4 4,-5 0,0 1,-1 2,-1l0 0c1,0 2,0 3,0 1,0 2,0 3,0l0 0c1,1 2,2 3,3l20 28 8 -12c1,-1 2,-2 3,-2l0 0c1,-1 3,-1 4,-1 1,0 2,0 3,0l0 0c0,0 1,1 2,1l0 0c2,1 3,3 3,5 0,3 0,5 -1,7l0 0zm-4 -19c0,-2 0,-5 1,-6 1,-2 2,-2 3,-3l0 0c2,-1 3,-1 4,-1 1,0 2,0 3,1l0 0c0,0 1,0 2,1l0 0 0 0 0 0c2,1 3,3 3,5 0,2 0,4 -1,6l0 0 0 0 0 0c-1,1 -2,2 -3,3l0 0c-1,0 -3,0 -4,0 -1,0 -2,0 -2,0l0 0c-1,0 -2,-1 -3,-1l0 0c-1,-1 -3,-3 -3,-5zm107 64c0,1 0,2 0,3l0 0 0 1 1 0 0 0 -1 0 0 0 0 1 0 0c0,1 0,2 0,2l0 0c-1,1 -1,2 -2,2l0 1 -12 12 0 0c-1,1 -4,2 -6,2 -2,0 -4,-1 -5,-2l0 0 0 0 0 -1c-2,-1 -3,-3 -3,-5 0,-2 1,-3 1,-4l-49 0c-2,6 -7,12 -15,16 -7,4 -16,6 -26,7l0 32c1,0 3,-1 4,-1 2,0 4,1 6,3l0 0 0 0 0 0c1,1 2,3 2,5 0,3 -1,5 -2,6l0 0 -12 12c-1,1 -2,1 -3,2 -1,0 -2,0 -3,0l0 1 0 0 0 -1c-1,0 -2,0 -3,0l0 0c-1,-1 -2,-1 -3,-2l0 0 0 0 -12 -12 0 0 0 0c-1,-1 -2,-4 -2,-6 0,-2 1,-4 2,-5l0 0 0 0 0 0c2,-2 4,-3 6,-3 1,0 3,1 4,1l0 -32c-10,-1 -19,-3 -26,-7 -8,-4 -13,-10 -15,-16l-49 0c0,1 1,2 1,4 0,2 -1,4 -3,6 -1,1 -3,2 -5,2 -3,0 -5,-1 -6,-2l0 0 -12 -12c-1,-1 -1,-2 -2,-3 0,-1 0,-2 0,-3l0 0 0 0 0 0c0,-1 0,-2 0,-3 1,-1 1,-2 2,-3l0 0 4 -4 0 0 8 -8 0 0 0 0 0 0c1,-1 4,-2 6,-2 2,0 4,1 5,2l0 0 0 0 0 0c2,2 3,4 3,6l0 0c0,1 -1,2 -1,4l49 0c1,-4 3,-7 7,-10 3,-3 6,-5 10,-8l0 0 0 0 -3 -4c-10,-14 -18,-26 -23,-37 -5,-10 -7,-20 -7,-27 0,-19 7,-35 19,-47 12,-12 28,-19 46,-19 18,0 34,7 46,19 12,12 19,28 19,47 0,7 -2,17 -7,27 -5,11 -13,23 -23,37l0 0 -3 4 0 0 0 0c4,3 7,5 10,8 4,3 6,6 7,10l49 0c0,-2 -1,-3 -1,-4 0,-2 1,-4 3,-6l0 0 0 0 0 0c1,-1 3,-2 5,-2 2,0 5,1 6,2l0 0 12 12c1,1 1,1 2,2zm-160 -126c-9,9 -14,22 -14,36 0,8 5,21 13,33 11,18 26,37 36,49 10,-12 25,-31 36,-49 8,-12 13,-25 13,-33 0,-14 -5,-27 -14,-36 -9,-9 -21,-14 -35,-14 -14,0 -26,5 -35,14zm49 144c5,-1 9,-3 12,-4 3,-2 5,-4 7,-6 1,-1 2,-3 2,-4 0,-2 -1,-3 -2,-5 -2,-2 -4,-3 -7,-5l0 0c-1,0 -2,-1 -3,-2l-2 0c-8,10 -14,17 -15,18l0 0 0 0c-1,1 -2,1 -3,2 -1,0 -2,0 -3,0 -1,0 -2,0 -3,0l0 0c-1,-1 -2,-1 -3,-2l0 0c0,0 -3,-4 -8,-10 -2,-2 -5,-5 -7,-8 -1,0 -1,0 -2,0 -1,1 -2,2 -3,2 -3,2 -5,3 -7,5 -1,2 -2,3 -2,5 0,1 1,3 2,4 2,2 4,4 7,6 3,1 7,3 12,4l0 0c4,1 9,2 14,2 5,0 10,-1 14,-2l0 0zm-6 -131c-2,-2 -5,-3 -8,-3 -3,0 -6,1 -8,3l0 0c-2,2 -3,5 -3,8 0,3 1,5 3,7 2,2 5,4 8,4 3,0 6,-2 8,-4 2,-2 3,-4 3,-7 0,-3 -1,-6 -3,-8l0 0z"/>
 </g>
</svg>
