<?xml version="1.0" encoding="UTF-8"?>
<!DOCTYPE svg PUBLIC "-//W3C//DTD SVG 1.1//EN" "http://www.w3.org/Graphics/SVG/1.1/DTD/svg11.dtd">
<!-- Creator: CorelDRAW X7 -->
<svg xmlns="http://www.w3.org/2000/svg" xml:space="preserve" width="0.5in" height="0.5in" version="1.1" style="shape-rendering:geometricPrecision; text-rendering:geometricPrecision; image-rendering:optimizeQuality; fill-rule:evenodd; clip-rule:evenodd"
viewBox="0 0 500 500"
 xmlns:xlink="http://www.w3.org/1999/xlink">
 <defs>
  <style type="text/css">
   <![CDATA[
    .fil0 {fill:#1F1B20}
   ]]>
  </style>
 </defs>
 <g id="Layer_x0020_1">
  <metadata id="CorelCorpID_0Corel-Layer"/>
  <path class="fil0" d="M368 125l-63 0c-4,0 -8,3 -8,7l0 47 0 32c0,4 4,8 8,8 4,0 8,-4 8,-8l0 -24 55 0c4,0 8,-3 8,-8l0 -47c0,-4 -4,-7 -8,-7zm-212 101c0,-13 10,-23 23,-23 13,0 24,10 24,23 0,13 -11,24 -24,24 -13,0 -23,-11 -23,-24zm23 87c3,0 5,-1 6,-3 5,-5 49,-55 49,-84 0,-30 -24,-54 -55,-54 -30,0 -54,24 -54,54 0,29 44,79 49,84 1,2 3,3 5,3zm165 -16l-78 0c-9,0 -16,-7 -16,-16 0,-8 7,-15 16,-15l17 0c3,9 12,15 22,15 13,0 23,-10 23,-23 0,-13 -10,-24 -23,-24 -10,0 -19,7 -22,16l-17 0c-18,0 -32,14 -32,31 0,18 14,32 32,32l78 0c9,0 16,7 16,15 0,9 -7,16 -16,16l-143 0c-3,-9 -11,-16 -22,-16 -13,0 -23,11 -23,24 0,13 10,24 23,24 11,0 19,-7 22,-16l143 0c17,0 32,-14 32,-32 0,-17 -15,-31 -32,-31z"/>
 </g>
</svg>
