<?xml version="1.0" encoding="UTF-8"?>
<!DOCTYPE svg PUBLIC "-//W3C//DTD SVG 1.1//EN" "http://www.w3.org/Graphics/SVG/1.1/DTD/svg11.dtd">
<!-- Creator: CorelDRAW X7 -->
<svg xmlns="http://www.w3.org/2000/svg" xml:space="preserve" width="0.5in" height="0.5in" version="1.1" style="shape-rendering:geometricPrecision; text-rendering:geometricPrecision; image-rendering:optimizeQuality; fill-rule:evenodd; clip-rule:evenodd"
viewBox="0 0 500 500"
 xmlns:xlink="http://www.w3.org/1999/xlink">
 <defs>
  <style type="text/css">
   <![CDATA[
    .fil0 {fill:#1F1B20}
   ]]>
  </style>
 </defs>
 <g id="Layer_x0020_1">
  <metadata id="CorelCorpID_0Corel-Layer"/>
  <path class="fil0" d="M250 125c-80,0 -146,65 -146,145 0,39 16,75 43,103 2,2 4,3 6,3 2,0 4,-1 6,-3l26 -26c3,-3 3,-9 0,-12 -7,-7 -27,-29 -27,-65 0,-51 42,-92 92,-92 51,0 92,42 92,92 0,21 -7,41 -20,57 -13,-20 -42,-65 -53,-76 -11,-10 -28,-10 -38,0 -11,11 -10,28 0,38 13,13 74,52 85,59l25 25c2,2 4,3 6,3 2,0 4,-1 6,-3 27,-28 43,-64 43,-103 0,-80 -66,-145 -146,-145zm-83 216l-14 14c-18,-22 -29,-48 -31,-76l19 0c2,23 11,44 26,62zm-26 -79l-19 0c2,-29 13,-55 31,-77l14 14c-15,18 -24,39 -26,63zm100 -101c-23,2 -44,11 -62,26l-14 -14c22,-18 48,-29 76,-31l0 19zm2 116c-4,-4 -4,-10 0,-14 4,-4 10,-4 14,0 6,6 21,28 35,49 -21,-14 -43,-29 -49,-35zm16 -116l0 -19c28,2 54,13 76,31l-14 14c-18,-15 -39,-24 -62,-26zm74 38l14 -14c18,22 29,48 31,77l-19 0c-2,-24 -11,-45 -26,-63zm14 156l-14 -14c15,-18 24,-39 26,-62l19 0c-2,28 -13,54 -31,76z"/>
 </g>
</svg>
