<?xml version="1.0" encoding="UTF-8"?>
<!DOCTYPE svg PUBLIC "-//W3C//DTD SVG 1.1//EN" "http://www.w3.org/Graphics/SVG/1.1/DTD/svg11.dtd">
<!-- Creator: CorelDRAW X7 -->
<svg xmlns="http://www.w3.org/2000/svg" xml:space="preserve" width="0.5in" height="0.5in" version="1.1" style="shape-rendering:geometricPrecision; text-rendering:geometricPrecision; image-rendering:optimizeQuality; fill-rule:evenodd; clip-rule:evenodd"
viewBox="0 0 500 500"
 xmlns:xlink="http://www.w3.org/1999/xlink">
 <defs>
  <style type="text/css">
   <![CDATA[
    .fil0 {fill:#1F1B20}
   ]]>
  </style>
 </defs>
 <g id="Layer_x0020_1">
  <metadata id="CorelCorpID_0Corel-Layer"/>
  <path class="fil0" d="M435 275l3 -1c1,-1 2,-2 3,-3l2 -14c1,-1 0,-3 -1,-4l-14 -13c-1,0 -2,-1 -3,-1l-18 0c-3,-3 -14,-12 -18,-16 -1,0 -2,-1 -3,-1l-133 0c-1,0 -3,1 -3,2 -1,1 -1,3 -1,4 1,3 3,6 6,10 4,3 8,9 14,17 3,6 4,13 2,19 -4,10 -14,17 -21,19 -4,1 -13,2 -22,2 -14,0 -29,-2 -42,-6 -24,-6 -28,-60 -26,-69 2,-5 8,-22 14,-38 2,-5 3,-9 5,-13 1,1 1,2 1,2 1,0 2,0 3,0 1,0 3,0 3,-2 2,-2 1,-4 -1,-6 0,0 -1,-1 -3,-2 1,-3 1,-5 2,-7 0,0 0,0 0,0 1,2 2,3 3,3 6,2 12,4 12,4 1,0 1,0 2,0 2,0 3,-1 4,-3 1,-2 0,-4 -3,-5 0,0 -6,-3 -13,-4 -1,-1 -3,0 -4,1 2,-4 2,-5 2,-6 0,-8 -30,-19 -40,-19l0 0c-3,0 -5,1 -7,3 -7,8 -3,31 -2,35 0,2 2,4 4,4l11 1c-4,12 -21,50 -24,56 -1,1 -7,2 -10,3 -6,1 -11,2 -13,6 -3,4 -2,11 -2,15 -1,0 -1,0 -2,0 -20,0 -39,11 -49,29 -1,2 -2,4 -2,6l0 1c0,1 0,2 1,4 1,3 5,6 10,9 -6,8 -10,19 -10,30 0,27 21,49 48,49 27,0 48,-22 48,-49 0,-1 0,-2 0,-4 4,2 10,5 12,5 1,1 3,0 3,-1 0,-1 1,-5 1,-7 13,10 26,11 47,11l112 0c4,25 26,45 52,45 29,0 53,-24 53,-54 0,-1 0,-3 0,-4 15,-2 18,-5 19,-6 1,-2 2,-3 2,-4l0 0 0 -1c0,-9 -9,-24 -14,-32zm-308 52c0,15 -12,27 -27,27 -15,0 -27,-12 -27,-27 0,-9 5,-17 11,-21 8,2 17,4 26,6 5,2 9,3 14,4 2,3 3,7 3,11zm279 -5c0,18 -14,32 -31,32 -17,0 -31,-14 -31,-32 23,0 48,-1 62,-2 0,1 0,2 0,2z"/>
 </g>
</svg>
