<?xml version="1.0" encoding="UTF-8"?>
<!DOCTYPE svg PUBLIC "-//W3C//DTD SVG 1.1//EN" "http://www.w3.org/Graphics/SVG/1.1/DTD/svg11.dtd">
<!-- Creator: CorelDRAW X7 -->
<svg xmlns="http://www.w3.org/2000/svg" xml:space="preserve" width="0.5in" height="0.5in" version="1.1" style="shape-rendering:geometricPrecision; text-rendering:geometricPrecision; image-rendering:optimizeQuality; fill-rule:evenodd; clip-rule:evenodd"
viewBox="0 0 500 500"
 xmlns:xlink="http://www.w3.org/1999/xlink">
 <defs>
  <style type="text/css">
   <![CDATA[
    .fil0 {fill:#1F1B20}
   ]]>
  </style>
 </defs>
 <g id="Layer_x0020_1">
  <metadata id="CorelCorpID_0Corel-Layer"/>
  <path class="fil0" d="M221 208l-78 0c-10,0 -19,-8 -19,-18l0 -47c0,-10 9,-18 19,-18l78 0c10,0 19,8 19,18l0 47c0,10 -9,18 -19,18zm136 168l-78 0c-10,0 -19,-9 -19,-19l0 -47c0,-10 9,-18 19,-18l78 0c10,0 19,8 19,18l0 47c0,10 -9,19 -19,19zm-78 -68c-2,0 -3,1 -3,2l0 47c0,2 1,3 3,3l78 0c2,0 3,-1 3,-3l0 -47c0,-1 -1,-2 -3,-2l-78 0zm78 -37l-78 0c-10,0 -19,-8 -19,-18l0 -110c0,-10 9,-18 19,-18l78 0c10,0 19,8 19,18l0 110c0,10 -9,18 -19,18zm-78 -131c-2,0 -3,1 -3,3l0 110c0,1 1,2 3,2l78 0c2,0 3,-1 3,-2l0 -110c0,-2 -1,-3 -3,-3l-78 0zm-58 236l-78 0c-10,0 -19,-9 -19,-19l0 -110c0,-10 9,-18 19,-18l78 0c10,0 19,8 19,18l0 110c0,10 -9,19 -19,19zm-78 -131c-2,0 -3,1 -3,2l0 110c0,2 1,3 3,3l78 0c2,0 3,-1 3,-3l0 -110c0,-1 -1,-2 -3,-2l-78 0zm0 -105c-2,0 -3,1 -3,3l0 47c0,1 1,2 3,2l78 0c2,0 3,-1 3,-2l0 -47c0,-2 -1,-3 -3,-3l-78 0z"/>
 </g>
</svg>
