<?xml version="1.0" encoding="UTF-8"?>
<!DOCTYPE svg PUBLIC "-//W3C//DTD SVG 1.1//EN" "http://www.w3.org/Graphics/SVG/1.1/DTD/svg11.dtd">
<!-- Creator: CorelDRAW X7 -->
<svg xmlns="http://www.w3.org/2000/svg" xml:space="preserve" width="0.5in" height="0.5in" version="1.1" style="shape-rendering:geometricPrecision; text-rendering:geometricPrecision; image-rendering:optimizeQuality; fill-rule:evenodd; clip-rule:evenodd"
viewBox="0 0 500 500"
 xmlns:xlink="http://www.w3.org/1999/xlink">
 <defs>
  <style type="text/css">
   <![CDATA[
    .fil0 {fill:#1F1B20}
   ]]>
  </style>
 </defs>
 <g id="Layer_x0020_1">
  <metadata id="CorelCorpID_0Corel-Layer"/>
  <path class="fil0" d="M250 125c69,0 126,56 126,125 0,69 -57,126 -126,126 -69,0 -125,-57 -125,-126 0,-69 56,-125 125,-125zm37 97c-8,0 -15,-4 -20,-9l-51 29c0,2 1,5 1,8 0,3 -1,6 -1,8l51 29c5,-5 12,-9 20,-9 16,0 29,13 29,28 0,16 -13,29 -29,29 -15,0 -28,-13 -28,-29 0,-2 0,-4 1,-6l-52 -30c-5,5 -12,8 -19,8 -16,0 -29,-12 -29,-28 0,-16 13,-28 29,-28 7,0 14,3 19,8l52 -30c-1,-2 -1,-4 -1,-6 0,-16 13,-29 28,-29 16,0 29,13 29,29 0,15 -13,28 -29,28z"/>
 </g>
</svg>
