<?xml version="1.0" encoding="UTF-8"?>
<!DOCTYPE svg PUBLIC "-//W3C//DTD SVG 1.1//EN" "http://www.w3.org/Graphics/SVG/1.1/DTD/svg11.dtd">
<!-- Creator: CorelDRAW X7 -->
<svg xmlns="http://www.w3.org/2000/svg" xml:space="preserve" width="0.5in" height="0.5in" version="1.1" style="shape-rendering:geometricPrecision; text-rendering:geometricPrecision; image-rendering:optimizeQuality; fill-rule:evenodd; clip-rule:evenodd"
viewBox="0 0 500 500"
 xmlns:xlink="http://www.w3.org/1999/xlink">
 <defs>
  <style type="text/css">
   <![CDATA[
    .str0 {stroke:black;stroke-width:3.47244}
    .fil0 {fill:#1F1B20}
   ]]>
  </style>
 </defs>
 <g id="Layer_x0020_1">
  <metadata id="CorelCorpID_0Corel-Layer"/>
  <path class="fil0 str0" d="M218 278l21 0 0 39c0,2 2,5 5,5 0,0 1,0 1,0 2,0 4,-1 5,-2l37 -64c1,-1 1,-4 0,-5 -1,-2 -3,-3 -5,-3l-21 0 0 -39c0,-3 -2,-5 -5,-6 -2,0 -5,1 -6,3l-37 63c-1,2 -1,4 0,6 1,2 3,3 5,3zm27 -120c1,2 3,4 5,4 3,0 5,-2 5,-4 1,-2 1,-5 -1,-7 -2,-1 -5,-1 -7,0 -2,2 -3,5 -2,7zm145 33c3,0 6,-2 6,-5l0 -30c0,-3 -3,-6 -6,-6l-27 0 0 -20c0,-3 -2,-5 -5,-5l-57 0c-3,0 -6,2 -6,5l0 20 -19 0c-3,0 -6,3 -6,6 0,3 3,6 6,6l108 0 0 18 -268 0 0 -18 108 0c3,0 6,-3 6,-6 0,-3 -3,-6 -6,-6l-19 0 0 -20c0,-3 -3,-5 -6,-5l-57 0c-3,0 -5,2 -5,5l0 20 -27 0c-3,0 -6,3 -6,6l0 30c0,3 3,5 6,5l11 0 0 143 -11 0c-3,0 -6,3 -6,6l0 30c0,3 3,6 6,6l280 0c3,0 6,-3 6,-6l0 -30c0,-3 -3,-6 -6,-6l-11 0 0 -143 11 0zm-83 -41l0 -14 45 0 0 14 -45 0zm-159 -14l45 0 0 14 -45 0 0 -14zm236 228l-268 0 0 -18 268 0 0 18zm-17 -30l-234 0 0 -143 234 0 0 143zm-208 -65l23 0c4,0 6,-3 6,-6 0,-3 -2,-6 -6,-6l-23 0c-3,0 -6,3 -6,6 0,3 3,6 6,6zm159 0l6 0 0 6c0,3 2,5 5,5 3,0 6,-2 6,-5l0 -6 6 0c3,0 6,-3 6,-6 0,-3 -3,-6 -6,-6l-6 0 0 -6c0,-3 -3,-6 -6,-6 -3,0 -5,3 -5,6l0 6 -6 0c-4,0 -6,3 -6,6 0,3 2,6 6,6zm-69 -39l0 23c0,4 3,6 6,6l17 0 -21 37 0 -24c0,-3 -3,-5 -6,-5l-17 0 21 -37z"/>
 </g>
</svg>
