<?xml version="1.0" encoding="UTF-8"?>
<!DOCTYPE svg PUBLIC "-//W3C//DTD SVG 1.1//EN" "http://www.w3.org/Graphics/SVG/1.1/DTD/svg11.dtd">
<!-- Creator: CorelDRAW X7 -->
<svg xmlns="http://www.w3.org/2000/svg" xml:space="preserve" width="0.5in" height="0.5in" version="1.1" style="shape-rendering:geometricPrecision; text-rendering:geometricPrecision; image-rendering:optimizeQuality; fill-rule:evenodd; clip-rule:evenodd"
viewBox="0 0 500 500"
 xmlns:xlink="http://www.w3.org/1999/xlink">
 <defs>
  <style type="text/css">
   <![CDATA[
    .fil0 {fill:#1F1B20}
   ]]>
  </style>
 </defs>
 <g id="Layer_x0020_1">
  <metadata id="CorelCorpID_0Corel-Layer"/>
  <path class="fil0" d="M365 296l0 -20 15 0 0 -53 -15 0 0 -19c0,-12 -10,-22 -22,-22l-201 0c-12,0 -22,10 -22,22l0 92c0,12 10,22 22,22l201 0c12,0 22,-10 22,-22zm-223 7c-4,0 -7,-3 -7,-7l0 -92c0,-4 3,-7 7,-7l201 0c4,0 7,3 7,7l0 92c0,4 -3,7 -7,7l-201 0zm2 -8l0 -90 33 0 0 90 -33 0zm41 0l0 -90 33 0 0 90 -33 0zm41 0l0 -90 33 0 0 90 -33 0zm41 0l0 -90 33 0 0 90 -33 0z"/>
 </g>
</svg>
