<?xml version="1.0" encoding="UTF-8"?>
<!DOCTYPE svg PUBLIC "-//W3C//DTD SVG 1.1//EN" "http://www.w3.org/Graphics/SVG/1.1/DTD/svg11.dtd">
<!-- Creator: CorelDRAW X7 -->
<svg xmlns="http://www.w3.org/2000/svg" xml:space="preserve" width="0.5in" height="0.5in" version="1.1" style="shape-rendering:geometricPrecision; text-rendering:geometricPrecision; image-rendering:optimizeQuality; fill-rule:evenodd; clip-rule:evenodd"
viewBox="0 0 500 500"
 xmlns:xlink="http://www.w3.org/1999/xlink">
 <defs>
  <style type="text/css">
   <![CDATA[
    .fil0 {fill:#1F1B20}
   ]]>
  </style>
 </defs>
 <g id="Layer_x0020_1">
  <metadata id="CorelCorpID_0Corel-Layer"/>
  <path class="fil0" d="M258 376l-16 0c-13,0 -23,-11 -23,-24l0 -5c-5,-2 -11,-4 -16,-6l-3 3c-10,9 -24,9 -33,0l-11 -11c-9,-9 -9,-23 0,-33l3 -3c-2,-5 -4,-11 -6,-16l-5 0c-13,0 -23,-10 -23,-23l0 -16c0,-13 10,-23 23,-23l5 0c2,-5 4,-11 6,-16l-3 -3c-9,-10 -9,-24 0,-33l11 -11c9,-9 23,-9 33,0l3 3c5,-2 11,-4 16,-6l0 -5c0,-13 10,-23 23,-23l16 0c13,0 23,10 23,23l0 5c5,2 11,4 16,6l3 -3c10,-9 24,-9 33,0l11 11c9,9 9,23 0,33l-3 3c2,5 4,11 6,16l5 0c13,0 24,10 24,23l0 16c0,13 -11,23 -24,23l-5 0c-2,5 -4,11 -6,16l3 3c9,10 9,24 0,33l-11 11c-9,9 -23,9 -33,0l-3 -3c-5,2 -11,4 -16,6l0 5c0,13 -10,24 -23,24zm-8 -71c-30,0 -55,-25 -55,-55 0,-30 25,-55 55,-55 30,0 55,25 55,55 0,30 -25,55 -55,55zm0 -95c-22,0 -40,18 -40,40 0,22 18,40 40,40 22,0 40,-18 40,-40 0,-22 -18,-40 -40,-40zm-44 115c7,4 14,7 22,9 3,1 6,4 6,8l0 10c0,5 3,9 8,9l16 0c5,0 8,-4 8,-9l0 -10c0,-4 3,-7 6,-8 8,-2 15,-5 22,-9 3,-2 7,-1 9,1l8 8c3,3 9,3 12,0l11 -11c3,-3 3,-9 0,-12l-8 -8c-2,-2 -3,-6 -1,-9 4,-7 7,-14 9,-22 1,-3 4,-6 8,-6l10 0c5,0 9,-3 9,-8l0 -16c0,-5 -4,-8 -9,-8l-10 0c-4,0 -7,-3 -8,-6 -2,-8 -5,-15 -9,-22 -2,-3 -1,-7 1,-9l8 -8c3,-3 3,-9 0,-12l-11 -11c-3,-3 -9,-3 -12,0l-8 8c-2,2 -6,3 -9,1 -7,-4 -14,-7 -22,-9 -3,-1 -6,-4 -6,-8l0 -10c0,-5 -3,-9 -8,-9l-16 0c-5,0 -8,4 -8,9l0 10c0,4 -3,7 -6,8 -8,2 -15,5 -22,9 -3,2 -7,1 -9,-1l-8 -8c-3,-3 -9,-3 -12,0l-11 11c-3,3 -3,9 0,12l8 8c2,2 3,6 1,9 -4,7 -7,14 -9,22 -1,3 -4,6 -8,6l-10 0c-5,0 -9,3 -9,8l0 16c0,5 4,8 9,8l10 0c4,0 7,3 8,6 2,8 5,15 9,22 2,3 1,7 -1,9l-8 8c-3,3 -3,9 0,12l11 11c3,3 9,3 12,0l8 -8c2,-2 5,-3 9,-1z"/>
 </g>
</svg>
