<?xml version="1.0" encoding="UTF-8"?>
<!DOCTYPE svg PUBLIC "-//W3C//DTD SVG 1.1//EN" "http://www.w3.org/Graphics/SVG/1.1/DTD/svg11.dtd">
<!-- Creator: CorelDRAW X7 -->
<svg xmlns="http://www.w3.org/2000/svg" xml:space="preserve" width="0.5in" height="0.5in" version="1.1" style="shape-rendering:geometricPrecision; text-rendering:geometricPrecision; image-rendering:optimizeQuality; fill-rule:evenodd; clip-rule:evenodd"
viewBox="0 0 500 500"
 xmlns:xlink="http://www.w3.org/1999/xlink">
 <defs>
  <style type="text/css">
   <![CDATA[
    .fil0 {fill:#1F1B20}
   ]]>
  </style>
 </defs>
 <g id="Layer_x0020_1">
  <metadata id="CorelCorpID_0Corel-Layer"/>
  <path class="fil0" d="M313 250l-62 104 -64 -103c-7,-11 -11,-25 -11,-38 0,-41 33,-74 74,-74 41,0 74,33 74,74 0,13 -4,26 -11,37zm-63 -8c-16,0 -30,-13 -30,-29 0,-16 14,-30 30,-30 16,0 29,14 29,30 0,16 -12,29 -29,29zm0 -73c-24,0 -44,19 -44,44 0,24 19,44 44,44 25,0 44,-20 44,-44 0,-25 -20,-44 -44,-44zm0 -45c-49,0 -88,40 -88,89 0,16 4,32 13,46l70 113c1,2 4,4 6,4 0,0 0,0 0,0 3,-1 5,-2 7,-4l68 -114c8,-14 12,-29 12,-45 0,-49 -39,-89 -88,-89z"/>
 </g>
</svg>
