<?xml version="1.0" encoding="UTF-8"?>
<!DOCTYPE svg PUBLIC "-//W3C//DTD SVG 1.1//EN" "http://www.w3.org/Graphics/SVG/1.1/DTD/svg11.dtd">
<!-- Creator: CorelDRAW X7 -->
<svg xmlns="http://www.w3.org/2000/svg" xml:space="preserve" width="0.5in" height="0.5in" version="1.1" style="shape-rendering:geometricPrecision; text-rendering:geometricPrecision; image-rendering:optimizeQuality; fill-rule:evenodd; clip-rule:evenodd"
viewBox="0 0 500 500"
 xmlns:xlink="http://www.w3.org/1999/xlink">
 <defs>
  <style type="text/css">
   <![CDATA[
    .fil0 {fill:#1F1B20}
   ]]>
  </style>
 </defs>
 <g id="Layer_x0020_1">
  <metadata id="CorelCorpID_0Corel-Layer"/>
  <path fill="white" d="M162 242c6,0 11,-2 15,-6l22 11c0,1 0,2 0,3 0,12 9,22 22,22 12,0 22,-10 22,-22 0,-4 -1,-7 -3,-10l30 -29c3,1 6,2 9,2 13,0 23,-10 22,-22 0,-3 0,-5 -1,-7l26 -19c4,2 8,4 12,4 12,0 22,-10 22,-22 0,-13 -10,-22 -22,-23 -12,0 -22,10 -22,23 0,2 1,4 1,6l-25 19c-4,-2 -8,-3 -13,-3 -12,0 -22,10 -22,22 0,3 1,6 3,9l-30 30c-3,-2 -6,-3 -9,-3 -6,0 -12,3 -16,7l-21 -11c0,-1 0,-2 0,-3 0,-12 -10,-22 -22,-22 -12,0 -22,10 -22,22 0,12 10,22 22,22zm206 119l-8 0 0 -156c0,-4 -3,-7 -7,-7l-29 0c-5,0 -8,3 -8,7l0 156 -15 0 0 -111c0,-5 -3,-8 -7,-8l-29 0c-4,0 -8,3 -8,8l0 111 -14 0 0 -53c0,-4 -4,-7 -8,-7l-29 0c-4,0 -7,3 -7,7l0 53 -15 0 0 -82c0,-4 -3,-7 -8,-7l-29 0c-4,0 -7,3 -7,7l0 82 -8 0c-4,0 -8,3 -7,7 0,4 3,8 7,7l236 1c4,0 8,-4 7,-8 1,-4 -3,-7 -7,-7zm-37 -148l15 0 0 148 -15 0 0 -148zm-59 44l15 0 0 104 -15 0 0 -104zm-59 59l15 0 0 45 -15 0 0 -45zm-59 -30l15 0 0 75 -15 0 0 -75zm184 -147c4,0 8,4 8,8 0,4 -4,7 -8,7 -4,0 -7,-3 -7,-7 0,-5 3,-8 7,-8zm-59 44c4,0 8,4 8,8 0,4 -3,7 -8,7 -4,0 -7,-3 -7,-7 0,-4 3,-8 7,-8zm-58 59c4,0 7,3 7,8 0,4 -3,7 -7,7 -4,0 -8,-3 -8,-7 0,-5 4,-8 8,-8zm-59 -29c4,0 7,3 7,7 0,4 -3,7 -7,7 -4,0 -8,-3 -8,-7 0,-4 4,-7 8,-7z"/>
 </g>
</svg>
