<?xml version="1.0" encoding="UTF-8"?>
<!DOCTYPE svg PUBLIC "-//W3C//DTD SVG 1.1//EN" "http://www.w3.org/Graphics/SVG/1.1/DTD/svg11.dtd">
<!-- Creator: CorelDRAW X7 -->
<svg xmlns="http://www.w3.org/2000/svg" xml:space="preserve" width="0.787402in" height="0.787402in" version="1.1" style="shape-rendering:geometricPrecision; text-rendering:geometricPrecision; image-rendering:optimizeQuality; fill-rule:evenodd; clip-rule:evenodd"
viewBox="0 0 787 787"
 xmlns:xlink="http://www.w3.org/1999/xlink">
 <defs>
  <style type="text/css">
   <![CDATA[
    .fil0 {fill:#2B2A29}
   ]]>
  </style>
 </defs>
 <g id="Layer_x0020_1">
  <metadata id="CorelCorpID_0Corel-Layer"/>
  <path class="fil0" d="M394 39c195,0 354,159 354,355 0,195 -159,354 -354,354 -196,0 -355,-159 -355,-354 0,-196 159,-355 355,-355zm253 484c-4,-10 -9,-19 -15,-27 -29,-44 -75,-73 -127,-80 -6,-1 -13,0 -18,4 -28,20 -60,30 -93,30 -34,0 -66,-10 -93,-30 -5,-4 -12,-6 -19,-4 -51,7 -98,36 -127,80 -6,8 -11,18 -15,27 0,1 -1,3 -1,5 0,2 1,5 2,7 5,9 12,18 17,26 9,12 19,23 30,33 9,9 19,18 30,26 51,38 112,58 175,58 63,0 125,-20 175,-58 11,-8 21,-17 30,-26 10,-10 21,-21 30,-33 6,-9 12,-17 17,-26 2,-3 3,-5 3,-8 0,-1 0,-3 -1,-4zm-253 -118c81,0 147,-67 147,-148 0,-81 -66,-148 -147,-148 -81,0 -148,67 -148,148 0,81 67,148 148,148z"/>
 </g>
</svg>
