<?xml version="1.0" encoding="UTF-8"?>
<!DOCTYPE svg PUBLIC "-//W3C//DTD SVG 1.1//EN" "http://www.w3.org/Graphics/SVG/1.1/DTD/svg11.dtd">
<!-- Creator: CorelDRAW X7 -->
<svg xmlns="http://www.w3.org/2000/svg" xml:space="preserve" width="0.787402in" height="0.787402in" version="1.1" style="shape-rendering:geometricPrecision; text-rendering:geometricPrecision; image-rendering:optimizeQuality; fill-rule:evenodd; clip-rule:evenodd"
viewBox="0 0 787 787"
 xmlns:xlink="http://www.w3.org/1999/xlink">
 <defs>
  <style type="text/css">
   <![CDATA[
    .fil0 {fill:black}
   ]]>
  </style>
 </defs>
 <g id="Layer_x0020_1">
  <metadata id="CorelCorpID_0Corel-Layer"/>
  <path class="fil0" d="M394 39c195,0 354,159 354,355 0,195 -159,354 -354,354 -196,0 -355,-159 -355,-354 0,-196 159,-355 355,-355zm99 218c17,0 30,13 30,30 0,16 -13,29 -30,29 -16,0 -29,-13 -29,-29 0,-17 13,-30 29,-30zm-236 373l-81 0c-10,0 -18,-9 -18,-19l0 -81c0,-5 2,-9 5,-13l159 -159c-4,-8 -9,-16 -12,-25 -13,-27 -6,-60 15,-82l72 -72c21,-20 52,-27 79,-16 25,9 61,27 91,56 30,30 48,67 58,92 10,27 4,58 -17,79l-73 73c-21,21 -53,27 -81,15 -13,-5 -26,-12 -38,-19 -9,-5 -12,-17 -6,-25 5,-9 16,-12 25,-7 10,7 22,13 33,17 14,6 30,3 41,-8l73 -73c10,-10 14,-25 8,-39 -8,-22 -24,-53 -49,-78 -26,-26 -57,-41 -78,-49 -14,-5 -29,-2 -40,8l-72 72c-11,11 -14,27 -8,41 6,12 11,23 18,34 4,7 3,16 -3,22l-164 164 0 55 45 0 0 -33c0,-11 8,-19 18,-19l33 0 0 -33c0,-10 9,-18 19,-18l51 0c11,0 19,8 19,18 0,10 -8,18 -19,18l-33 0 0 34c0,10 -8,18 -18,18l-33 0 0 33c0,10 -9,19 -19,19z"/>
 </g>
</svg>
