<?xml version="1.0" encoding="UTF-8"?>
<!DOCTYPE svg PUBLIC "-//W3C//DTD SVG 1.1//EN" "http://www.w3.org/Graphics/SVG/1.1/DTD/svg11.dtd">
<!-- Creator: CorelDRAW X7 -->
<svg xmlns="http://www.w3.org/2000/svg" xml:space="preserve" width="0.787402in" height="0.787402in" version="1.1" style="shape-rendering:geometricPrecision; text-rendering:geometricPrecision; image-rendering:optimizeQuality; fill-rule:evenodd; clip-rule:evenodd"
viewBox="0 0 787 787"
 xmlns:xlink="http://www.w3.org/1999/xlink">
 <defs>
  <style type="text/css">
   <![CDATA[
    .fil0 {fill:black}
   ]]>
  </style>
 </defs>
 <g id="Layer_x0020_1">
  <metadata id="CorelCorpID_0Corel-Layer"/>
  <path class="fil0" d="M572 395l-175 292 -180 -289c-20,-33 -31,-71 -31,-109 0,-115 93,-208 208,-208 114,0 207,93 207,208 0,37 -10,74 -29,106zm-178 -23c-46,0 -84,-38 -84,-83 0,-46 38,-84 84,-84 45,0 83,38 83,84 0,45 -37,83 -83,83zm0 -208c-69,0 -125,56 -125,125 0,68 55,124 125,124 70,0 124,-57 124,-124 0,-69 -56,-125 -124,-125zm0 -125c-138,0 -249,112 -249,250 0,46 12,91 37,131l198 318c3,6 10,10 17,10 0,0 0,0 0,0 8,0 14,-4 18,-10l193 -322c23,-38 35,-82 35,-127 0,-138 -112,-250 -249,-250z"/>
 </g>
</svg>
