<?xml version="1.0" encoding="UTF-8"?>
<!DOCTYPE svg PUBLIC "-//W3C//DTD SVG 1.1//EN" "http://www.w3.org/Graphics/SVG/1.1/DTD/svg11.dtd">
<!-- Creator: CorelDRAW X7 -->
<svg xmlns="http://www.w3.org/2000/svg" xml:space="preserve" width="0.787402in" height="0.787402in" version="1.1" style="shape-rendering:geometricPrecision; text-rendering:geometricPrecision; image-rendering:optimizeQuality; fill-rule:evenodd; clip-rule:evenodd"
viewBox="0 0 787 787"
 xmlns:xlink="http://www.w3.org/1999/xlink">
 <defs>
  <style type="text/css">
   <![CDATA[
    .fil0 {fill:black}
   ]]>
  </style>
 </defs>
 <g id="Layer_x0020_1">
  <metadata id="CorelCorpID_0Corel-Layer"/>
  <path class="fil0" d="M145 372c16,0 32,-7 43,-18l61 31c0,2 -1,5 -1,7 0,35 28,63 63,63 34,0 62,-28 62,-63 0,-9 -2,-18 -6,-27l83 -83c8,4 17,7 27,7 34,0 62,-28 62,-63 0,-6 -1,-12 -3,-18l72 -54c10,6 22,10 35,10 34,0 62,-28 62,-62 0,-35 -28,-63 -62,-63 -35,0 -63,28 -63,63 0,6 2,12 3,18l-72 54c-10,-6 -22,-10 -34,-10 -35,0 -63,28 -63,62 0,10 3,19 7,27l-83 83c-9,-4 -18,-6 -27,-6 -17,0 -32,7 -44,18l-61 -31c1,-3 1,-5 1,-8 0,-34 -28,-62 -62,-62 -35,0 -63,28 -63,62 0,35 28,63 63,63zm582 334l-22 0 0 -438c0,-12 -9,-21 -21,-21l-83 0c-11,0 -21,9 -21,21l0 438 -41 0 0 -314c0,-11 -9,-20 -21,-20l-83 0c-11,0 -21,9 -21,20l0 314 -41 0 0 -148c0,-11 -9,-20 -21,-20l-83 0c-11,0 -21,9 -21,20l0 148 -41 0 0 -231c0,-11 -9,-20 -21,-20l-83 0c-11,0 -21,9 -21,20l0 231 -22 0c-11,0 -21,10 -21,21 0,12 10,21 21,21l667 0c12,0 21,-9 21,-21 0,-11 -9,-21 -21,-21zm-105 -417l42 0 0 417 -42 0 0 -417zm-166 124l41 0 0 293 -41 0 0 -293zm-166 166l41 0 0 127 -41 0 0 -127zm-166 -83l41 0 0 210 -41 0 0 -210zm519 -415c11,0 21,9 21,21 0,11 -10,20 -21,20 -12,0 -21,-9 -21,-20 0,-12 9,-21 21,-21zm-166 125c11,0 20,9 20,20 0,12 -9,21 -20,21 -12,0 -21,-9 -21,-21 0,-11 9,-20 21,-20zm-166 166c11,0 20,9 20,20 0,12 -9,21 -20,21 -12,0 -21,-9 -21,-21 0,-11 9,-20 21,-20zm-166 -83c11,0 20,9 20,20 0,12 -9,21 -20,21 -12,0 -21,-9 -21,-21 0,-11 9,-20 21,-20z"/>
 </g>
</svg>
