<?xml version="1.0" encoding="UTF-8"?>
<!DOCTYPE svg PUBLIC "-//W3C//DTD SVG 1.1//EN" "http://www.w3.org/Graphics/SVG/1.1/DTD/svg11.dtd">
<!-- Creator: CorelDRAW X7 -->
<svg xmlns="http://www.w3.org/2000/svg" xml:space="preserve" width="0.787402in" height="0.787402in" version="1.1" style="shape-rendering:geometricPrecision; text-rendering:geometricPrecision; image-rendering:optimizeQuality; fill-rule:evenodd; clip-rule:evenodd"
viewBox="0 0 787 787"
 xmlns:xlink="http://www.w3.org/1999/xlink">
 <defs>
  <style type="text/css">
   <![CDATA[
    .fil0 {fill:black}
   ]]>
  </style>
 </defs>
 <g id="Layer_x0020_1">
  <metadata id="CorelCorpID_0Corel-Layer"/>
  <path class="fil0" d="M696 357c-12,0 -22,-10 -22,-22 0,-85 -33,-165 -93,-225 -8,-8 -8,-22 0,-31 9,-9 23,-9 32,0 68,68 105,159 105,256 0,12 -9,22 -22,22zm-324 -228l0 -67c0,-13 9,-23 22,-23 12,0 22,10 22,23l0 67c103,11 184,99 184,206l0 82c0,58 26,114 71,151 11,10 18,25 18,40 0,28 -23,51 -52,51l-135 0c-10,51 -55,89 -108,89 -54,0 -98,-38 -109,-89l-135 0c-28,0 -51,-23 -51,-51 0,-15 6,-30 18,-40 44,-37 70,-93 70,-151l0 -82c0,-107 81,-195 185,-206zm84 530l-125 0c9,26 34,45 63,45 29,0 53,-19 62,-45zm-62 -487c-90,0 -163,73 -163,163l0 82c0,71 -31,139 -86,185 -1,1 -2,3 -2,6 0,4 3,7 7,7l155 0 177 0 155 0c4,0 8,-3 8,-7 0,-3 -2,-5 -3,-6 -55,-46 -86,-114 -86,-185l0 -82c0,-90 -73,-163 -162,-163zm-303 185c-12,0 -22,-10 -22,-22 0,-97 38,-188 106,-256 9,-9 23,-9 31,0 9,9 9,23 0,31 -60,60 -93,140 -93,225 0,12 -10,22 -22,22z"/>
 </g>
</svg>
