<?xml version="1.0" encoding="UTF-8"?>
<!DOCTYPE svg PUBLIC "-//W3C//DTD SVG 1.1//EN" "http://www.w3.org/Graphics/SVG/1.1/DTD/svg11.dtd">
<!-- Creator: CorelDRAW X7 -->
<svg xmlns="http://www.w3.org/2000/svg" xml:space="preserve" width="0.787402in" height="0.787402in" version="1.1" style="shape-rendering:geometricPrecision; text-rendering:geometricPrecision; image-rendering:optimizeQuality; fill-rule:evenodd; clip-rule:evenodd"
viewBox="0 0 787 787"
 xmlns:xlink="http://www.w3.org/1999/xlink">
 <defs>
  <style type="text/css">
   <![CDATA[
    .fil0 {fill:black}
   ]]>
  </style>
 </defs>
 <g id="Layer_x0020_1">
  <metadata id="CorelCorpID_0Corel-Layer"/>
  <path class="fil0" d="M394 39c195,0 354,159 354,355 0,195 -159,354 -354,354 -196,0 -355,-159 -355,-354 0,-196 159,-355 355,-355zm0 531l-184 -85c1,1 -16,-7 -28,-14l0 1c0,10 3,28 12,33l180 81c16,7 22,7 40,0l179 -81c9,-4 12,-23 12,-34 -11,6 -28,14 -28,14l-183 85zm0 -352c1,2 1,0 0,0zm-200 203l180 81c16,7 22,7 40,0l179 -81c9,-4 12,-24 12,-34 -11,6 -28,14 -28,14l-183 84 -184 -84c1,0 -16,-7 -28,-14l0 0c0,11 3,29 12,34zm0 -85l180 81c16,8 22,8 40,0l179 -81c13,-6 14,-32 0,-39l-179 -95c-15,-8 -24,-8 -40,0l-180 95c-13,8 -14,32 0,39zm200 -118l183 98 -183 78 -184 -78 184 -98z"/>
 </g>
</svg>
