<?xml version="1.0" encoding="UTF-8"?>
<!DOCTYPE svg PUBLIC "-//W3C//DTD SVG 1.1//EN" "http://www.w3.org/Graphics/SVG/1.1/DTD/svg11.dtd">
<!-- Creator: CorelDRAW X7 -->
<svg xmlns="http://www.w3.org/2000/svg" xml:space="preserve" width="0.787402in" height="0.787402in" version="1.1" style="shape-rendering:geometricPrecision; text-rendering:geometricPrecision; image-rendering:optimizeQuality; fill-rule:evenodd; clip-rule:evenodd"
viewBox="0 0 787 787"
 xmlns:xlink="http://www.w3.org/1999/xlink">
 <defs>
  <style type="text/css">
   <![CDATA[
    .fil0 {fill:black}
   ]]>
  </style>
 </defs>
 <g id="Layer_x0020_1">
  <metadata id="CorelCorpID_0Corel-Layer"/>
  <path class="fil0" d="M394 39c195,0 354,159 354,355 0,195 -159,354 -354,354 -196,0 -355,-159 -355,-354 0,-196 159,-355 355,-355zm194 345l-184 -184c-6,-6 -15,-6 -20,0l-184 184c-3,2 -4,6 -4,10 0,3 1,7 4,10l184 184c3,2 6,4 10,4 3,0 7,-2 10,-4l184 -184c2,-3 4,-7 4,-10 0,-4 -2,-8 -4,-10zm-129 -5l-36 36c-3,3 -7,4 -10,4 -4,0 -7,-1 -10,-4 -6,-6 -6,-14 0,-20l12 -12 -62 0 0 74c0,8 -7,14 -14,14 -8,0 -14,-6 -14,-14l0 -88c0,-8 6,-14 14,-14l76 0 -15 -15c-6,-5 -6,-14 0,-20 5,-5 14,-5 20,0l39 39c5,6 5,14 0,20z"/>
 </g>
</svg>
