<?xml version="1.0" encoding="UTF-8"?>
<!DOCTYPE svg PUBLIC "-//W3C//DTD SVG 1.1//EN" "http://www.w3.org/Graphics/SVG/1.1/DTD/svg11.dtd">
<!-- Creator: CorelDRAW X7 -->
<svg xmlns="http://www.w3.org/2000/svg" xml:space="preserve" width="0.787402in" height="0.787402in" version="1.1" style="shape-rendering:geometricPrecision; text-rendering:geometricPrecision; image-rendering:optimizeQuality; fill-rule:evenodd; clip-rule:evenodd"
viewBox="0 0 787 787"
 xmlns:xlink="http://www.w3.org/1999/xlink">
 <defs>
  <style type="text/css">
   <![CDATA[
    .fil0 {fill:black}
   ]]>
  </style>
 </defs>
 <g id="Layer_x0020_1">
  <metadata id="CorelCorpID_0Corel-Layer"/>
  <path class="fil0" d="M556 748c-106,0 -192,-86 -192,-192 0,-106 86,-192 192,-192 106,0 192,86 192,192 0,106 -86,192 -192,192zm-236 -89l-148 0c-24,0 -44,-19 -44,-44l0 -148c0,-24 20,-44 44,-44l148 0c8,0 15,7 15,15 0,8 -7,15 -15,15l-148 0c-8,0 -14,6 -14,14l0 148c0,8 6,15 14,15l148 0c8,0 15,6 15,15 0,8 -7,14 -15,14zm88 -472c-8,0 -14,-7 -14,-15l0 -103 -89 0 0 103c0,8 -6,15 -15,15 -8,0 -14,-7 -14,-15l0 -103 -89 0 0 103c0,8 -7,15 -15,15 -8,0 -14,-7 -14,-15l0 -103 -45 0c-24,0 -44,20 -44,44l0 118c0,8 7,15 15,15 24,0 44,20 44,44l0 59c0,25 -20,45 -44,45 -8,0 -15,6 -15,14l0 266c0,25 20,44 44,44l207 0c8,0 15,7 15,15 0,8 -7,15 -15,15l-207 0c-40,0 -74,-33 -74,-74l0 -266c0,-24 20,-44 45,-44 8,0 15,-6 15,-15l0 -59c0,-8 -7,-14 -15,-14 -25,0 -45,-20 -45,-45l0 -118c0,-40 34,-74 74,-74l59 0 1 0 117 0 1 0 117 0 1 0 5 0c19,0 38,8 52,22l113 113c14,14 21,33 21,52l0 64c0,9 -6,15 -14,15 -9,0 -15,-6 -15,-15l0 -64c0,-12 -5,-23 -13,-31l-113 -113c-6,-6 -14,-10 -22,-12l0 102c0,8 -6,15 -15,15zm207 458c-4,0 -7,-2 -10,-5l-59 -59c-3,-2 -5,-6 -5,-10l0 -104c0,-8 7,-14 15,-14 8,0 15,6 15,14l0 98 55 54c5,6 5,16 0,21 -3,3 -7,5 -11,5zm-59 -251c-89,0 -162,73 -162,162 0,90 73,162 162,162 90,0 162,-72 162,-162 0,-89 -72,-162 -162,-162z"/>
 </g>
</svg>
