<?xml version="1.0" encoding="UTF-8"?>
<!DOCTYPE svg PUBLIC "-//W3C//DTD SVG 1.1//EN" "http://www.w3.org/Graphics/SVG/1.1/DTD/svg11.dtd">
<!-- Creator: CorelDRAW X7 -->
<svg xmlns="http://www.w3.org/2000/svg" xml:space="preserve" width="0.787402in" height="0.787402in" version="1.1" style="shape-rendering:geometricPrecision; text-rendering:geometricPrecision; image-rendering:optimizeQuality; fill-rule:evenodd; clip-rule:evenodd"
viewBox="0 0 787 787"
 xmlns:xlink="http://www.w3.org/1999/xlink">
 <defs>
  <style type="text/css">
   <![CDATA[
    .fil0 {fill:black}
   ]]>
  </style>
 </defs>
 <g id="Layer_x0020_1">
  <metadata id="CorelCorpID_0Corel-Layer"/>
  <path class="fil0" d="M303 473l61 0 0 109c0,8 5,14 12,16 1,0 2,0 4,0 5,0 11,-3 14,-8l105 -179c3,-5 3,-11 0,-16 -3,-5 -8,-8 -14,-8l-61 0 0 -109c0,-7 -5,-14 -12,-16 -7,-2 -15,1 -18,8l-105 179c-3,5 -3,11 0,16 2,5 8,8 14,8zm76 -339c3,6 9,10 15,10 7,0 13,-4 15,-11 2,-6 0,-13 -5,-17 -5,-5 -13,-5 -19,-1 -6,4 -9,12 -6,19zm410 94c9,0 16,-7 16,-16l0 -84c0,-9 -7,-16 -16,-16l-76 0 0 -56c0,-9 -7,-17 -16,-17l-160 0c-8,0 -16,8 -16,17l0 56 -55 0c-9,0 -16,7 -16,16 0,9 7,16 16,16l307 0 0 52 -758 0 0 -52 306 0c9,0 16,-7 16,-16 0,-9 -7,-16 -16,-16l-55 0 0 -56c0,-9 -7,-17 -16,-17l-160 0c-9,0 -16,8 -16,17l0 56 -75 0c-9,0 -16,7 -16,16l0 84c0,9 7,16 16,16l31 0 0 404 -31 0c-9,0 -16,7 -16,16l0 84c0,9 7,16 16,16l790 0c9,0 16,-7 16,-16l0 -84c0,-9 -7,-16 -16,-16l-32 0 0 -404 32 0zm-236 -116l0 -40 128 0 0 40 -128 0zm-447 -40l128 0 0 40 -128 0 0 -40zm667 644l-758 0 0 -52 758 0 0 52zm-48 -84l-663 0 0 -404 663 0 0 404zm-588 -186l66 0c9,0 16,-7 16,-16 0,-9 -7,-16 -16,-16l-66 0c-9,0 -16,7 -16,16 0,9 7,16 16,16zm447 0l17 0 0 17c0,9 8,16 16,16 9,0 16,-7 16,-16l0 -17 17 0c9,0 17,-7 17,-16 0,-9 -8,-16 -17,-16l-17 0 0 -17c0,-9 -7,-16 -16,-16 -8,0 -16,7 -16,16l0 17 -17 0c-9,0 -16,7 -16,16 0,9 7,16 16,16zm-192 -109l0 66c0,9 7,16 16,16l49 0 -61 104 0 -66c0,-9 -7,-16 -16,-16l-49 0 61 -104z"/>
 </g>
</svg>
