<?xml version="1.0" encoding="UTF-8"?>
<!DOCTYPE svg PUBLIC "-//W3C//DTD SVG 1.1//EN" "http://www.w3.org/Graphics/SVG/1.1/DTD/svg11.dtd">
<!-- Creator: CorelDRAW X7 -->
<svg xmlns="http://www.w3.org/2000/svg" xml:space="preserve" width="0.787402in" height="0.787402in" version="1.1" style="shape-rendering:geometricPrecision; text-rendering:geometricPrecision; image-rendering:optimizeQuality; fill-rule:evenodd; clip-rule:evenodd"
viewBox="0 0 787 787"
 xmlns:xlink="http://www.w3.org/1999/xlink">
 <defs>
  <style type="text/css">
   <![CDATA[
    .fil0 {fill:black}
   ]]>
  </style>
 </defs>
 <g id="Layer_x0020_1">
  <metadata id="CorelCorpID_0Corel-Layer"/>
  <path class="fil0" d="M890 652l-25 25 -29 0 0 -319 29 0 25 25 0 269zm-780 -294l36 0 0 36 -36 0 0 -36zm0 71l36 0 0 142 -36 0 0 -142zm242 162l24 -105c2,-9 -4,-19 -14,-21 -1,0 -2,0 -4,0l-60 0 137 -126 -23 104c-2,10 4,19 13,21 2,0 3,1 4,1l61 0 -138 126zm183 -162l-84 0 31 -138c2,-9 -4,-19 -14,-21 -5,-1 -11,0 -15,4l-213 195c-7,7 -8,18 -1,25 3,4 8,6 13,6l84 0 -30 138c-3,9 3,19 13,21 6,1 12,0 16,-4l212 -195c8,-7 8,-18 1,-25 -3,-4 -8,-6 -13,-6zm266 106l-35 0 0 -70 35 0 0 70zm-71 -88l0 266 -35 0 0 -390 35 0 0 124zm-71 266l-415 0 -66 -99c-3,-5 -9,-8 -15,-8l-88 0 0 -283 88 0c6,0 12,-3 15,-8l66 -98 300 0 65 98c3,5 9,8 15,8l35 0 0 390zm-248 -567l0 35 -35 0 0 -35 35 0zm-177 -36l0 -35 319 0 0 35 -319 0zm-195 372l-35 0 0 -35 35 0 0 35zm-70 -53l0 177 -36 0 0 -141c0,-4 -1,-7 -3,-10l-32 -49 0 -42 27 -41 44 0 0 106zm915 -101c-3,-3 -7,-5 -12,-5l-53 0c-10,0 -18,8 -18,18l0 88 -35 0 0 -124c0,-10 -8,-18 -18,-18l-115 0 -65 -98c-3,-5 -9,-8 -15,-8l-106 0 0 -35 124 0c10,0 18,-8 18,-18l0 -71c0,-10 -8,-18 -18,-18l-354 0c-10,0 -18,8 -18,18l0 71c0,10 8,18 18,18l124 0 0 35 -107 0c-6,0 -11,3 -14,8l-66 98 -97 0c-10,0 -18,8 -18,18l0 106 -35 0 0 -106c0,-10 -8,-18 -18,-18l-71 0c-5,0 -11,3 -14,8l-36 53c-2,3 -3,7 -3,10l0 53c0,4 1,7 3,10l33 49 0 154c0,10 8,18 17,18l71 0c10,0 18,-8 18,-18l0 -106 35 0 0 106c0,10 8,18 18,18l97 0 66 98c3,5 8,8 14,8l514 0c10,0 18,-8 18,-18l0 -159 35 0 0 124c0,10 8,18 18,18l53 0c5,0 9,-2 12,-6l36 -35c3,-3 5,-8 5,-13l0 -283c0,-5 -2,-9 -5,-13l-36 -35z"/>
 </g>
</svg>
