<?xml version="1.0" encoding="UTF-8"?>
<!DOCTYPE svg PUBLIC "-//W3C//DTD SVG 1.1//EN" "http://www.w3.org/Graphics/SVG/1.1/DTD/svg11.dtd">
<!-- Creator: CorelDRAW X7 -->
<svg xmlns="http://www.w3.org/2000/svg" xml:space="preserve" width="0.787402in" height="0.787402in" version="1.1" style="shape-rendering:geometricPrecision; text-rendering:geometricPrecision; image-rendering:optimizeQuality; fill-rule:evenodd; clip-rule:evenodd"
viewBox="0 0 787 787"
 xmlns:xlink="http://www.w3.org/1999/xlink">
 <defs>
  <style type="text/css">
   <![CDATA[
    .fil0 {fill:black}
   ]]>
  </style>
 </defs>
 <g id="Layer_x0020_1">
  <metadata id="CorelCorpID_0Corel-Layer"/>
  <path class="fil0" d="M308 608c0,47 38,85 85,85 47,0 85,-38 85,-85 0,-47 -85,-264 -85,-264 0,0 -85,217 -85,264zm-309 -357l115 67c23,-34 53,-63 86,-86l-66 -115c-54,35 -100,81 -135,134zm-77 288c4,76 26,147 62,209l115 -66c-24,-43 -40,-91 -44,-143l-133 0zm732 -422l-67 115c34,23 63,52 86,86l116 -67c-36,-53 -82,-99 -135,-134zm79 422c-5,52 -20,100 -45,143l115 66c36,-62 58,-133 63,-209l-133 0zm-647 -173l-115 -67c-28,56 -46,119 -49,185l133 0c3,-42 14,-82 31,-118zm280 -327c-66,4 -128,22 -184,50l66 115c36,-17 76,-28 118,-31l0 -134zm367 445l133 0c-4,-66 -21,-129 -50,-185l-115 67c17,36 28,76 32,118zm-312 -445l0 134c42,3 82,14 118,31l67 -115c-56,-28 -119,-46 -185,-50z"/>
 </g>
</svg>
