<?xml version="1.0" encoding="UTF-8"?>
<!DOCTYPE svg PUBLIC "-//W3C//DTD SVG 1.1//EN" "http://www.w3.org/Graphics/SVG/1.1/DTD/svg11.dtd">
<!-- Creator: CorelDRAW X7 -->
<svg xmlns="http://www.w3.org/2000/svg" xml:space="preserve" width="0.787402in" height="0.787402in" version="1.1" style="shape-rendering:geometricPrecision; text-rendering:geometricPrecision; image-rendering:optimizeQuality; fill-rule:evenodd; clip-rule:evenodd"
viewBox="0 0 787 787"
 xmlns:xlink="http://www.w3.org/1999/xlink">
 <defs>
  <style type="text/css">
   <![CDATA[
    .fil0 {fill:black}
   ]]>
  </style>
 </defs>
 <g id="Layer_x0020_1">
  <metadata id="CorelCorpID_0Corel-Layer"/>
  <path class="fil0" d="M457 661c1,8 6,15 14,19 7,4 16,5 23,1l113 -50c6,-2 9,-8 7,-14l-57 -169c-9,-26 -36,-42 -64,-37l-18 3c-30,5 -50,34 -46,64l28 183zm-69 -324l17 70c1,6 6,10 11,10 1,0 2,-1 3,-1 6,-1 10,-8 9,-14l-17 -71c-1,-4 -4,-7 -8,-8 -4,-2 -8,-1 -12,2 -3,3 -4,8 -3,12l0 0zm-10 -76c-3,0 -6,2 -7,5 -2,3 -2,6 -2,9l6 23c2,5 6,9 12,9 1,0 2,0 3,0 6,-2 10,-8 8,-15l-6 -23c0,-3 -2,-6 -5,-7 -3,-2 -6,-2 -9,-1zm-256 185c22,1 44,-8 59,-24 16,-15 24,-36 24,-59 0,-37 -46,-105 -65,-127 -5,-5 -11,-8 -18,-8 -7,0 -13,3 -18,8 -19,22 -65,90 -65,127 0,23 9,44 24,59 16,16 37,25 59,24zm0 -195c21,24 59,85 59,112 1,16 -5,32 -17,43 -11,11 -26,17 -42,16 -16,1 -31,-5 -42,-16 -11,-11 -17,-27 -17,-43 0,-27 38,-88 59,-112zm-52 -100l176 52c2,1 5,2 7,3l62 52 10 9 81 422c4,21 18,40 37,50 19,10 42,11 62,2l114 -50c11,13 29,17 45,11l59 -25c21,-8 30,-31 22,-51l-109 -266 8 -9c15,-17 13,-44 -4,-59l-124 -108c-9,-7 -20,-11 -31,-10 -11,1 -21,6 -28,15l-21 23 -45 -38 0 0 -84 -68c-4,-3 -9,-6 -14,-8l-191 -56c-22,-6 -46,6 -52,28l-9 29c-3,11 -1,22 4,32 5,10 14,17 25,20zm377 85l27 -32c4,-4 8,-6 13,-6 5,-1 9,1 13,4l125 108c7,7 8,18 1,26l-12 14c-3,4 -4,9 -2,13l111 272c3,8 0,17 -8,20l-60 25c-4,2 -8,2 -12,0 -4,-2 -7,-5 -9,-9 -1,-3 -3,-5 -6,-6 -3,-1 -7,-1 -9,0l-123 54c-14,6 -29,6 -42,-1 -13,-7 -22,-19 -25,-34l-82 -426c0,-3 -2,-5 -4,-7l-4 -3 46 -49 45 38c5,5 13,4 17,-1l0 0zm-383 -130l9 -29c1,-5 4,-9 8,-11 5,-2 9,-3 14,-1l191 56c2,1 4,2 6,3l74 60 -45 49 -53 -45c-5,-4 -10,-6 -15,-8l-177 -52c-9,-3 -15,-13 -12,-22zm421 554c-1,0 -2,0 -3,0 -1,-1 -2,-2 -2,-3l-27 -182c-1,-4 -1,-8 0,-12l20 16c10,7 17,17 21,29l43 129 -52 23zm-5 -223l17 -3c2,0 4,0 6,0 14,0 27,9 31,22l54 158 -29 13 -43 -126c-5,-16 -15,-30 -28,-41l-22 -17c4,-3 9,-5 14,-6z"/>
 </g>
</svg>
