<?xml version="1.0" encoding="UTF-8"?>
<!DOCTYPE svg PUBLIC "-//W3C//DTD SVG 1.1//EN" "http://www.w3.org/Graphics/SVG/1.1/DTD/svg11.dtd">
<!-- Creator: CorelDRAW X7 -->
<svg xmlns="http://www.w3.org/2000/svg" xml:space="preserve" width="0.787402in" height="0.787402in" version="1.1" style="shape-rendering:geometricPrecision; text-rendering:geometricPrecision; image-rendering:optimizeQuality; fill-rule:evenodd; clip-rule:evenodd"
viewBox="0 0 787 787"
 xmlns:xlink="http://www.w3.org/1999/xlink">
 <defs>
  <style type="text/css">
   <![CDATA[
    .fil0 {fill:black}
   ]]>
  </style>
 </defs>
 <g id="Layer_x0020_1">
  <metadata id="CorelCorpID_0Corel-Layer"/>
  <path class="fil0" d="M64 477l0 -302c0,-17 14,-30 31,-30l301 0c17,0 30,13 30,30l0 302c0,5 -4,10 -10,10l-342 0c-5,0 -10,-5 -10,-10zm244 103c0,35 -29,63 -63,63 -35,0 -63,-28 -63,-63 0,-35 28,-63 63,-63 34,0 63,28 63,63zm-32 0c0,-18 -14,-32 -31,-32 -18,0 -32,14 -32,32 0,17 14,31 32,31 17,0 31,-14 31,-31zm-85 -63l-141 0c-6,0 -11,4 -11,10l0 31c0,5 5,10 11,10l113 0c3,-20 13,-38 28,-51zm446 63c0,35 -28,63 -63,63 -35,0 -63,-28 -63,-63 0,-35 28,-63 63,-63 35,0 63,28 63,63zm-32 0c0,-18 -14,-32 -31,-32 -18,0 -32,14 -32,32 0,17 14,31 32,31 17,0 31,-14 31,-31zm143 -53l0 31c0,5 -5,10 -10,10l-82 0c-6,-40 -40,-71 -82,-71 -42,0 -76,31 -82,71l-165 0c-3,-20 -13,-38 -28,-51l156 0 0 -289c0,-11 9,-21 20,-21l96 0c27,0 52,14 67,36l61 91c9,14 14,29 14,45l0 138 25 0c5,0 10,4 10,10zm-103 -190l-49 -70c-2,-3 -5,-5 -8,-5l-77 0c-5,0 -10,5 -10,10l0 70c0,6 5,10 10,10l126 0c8,0 13,-9 8,-15z"/>
 </g>
</svg>
