<?xml version="1.0" encoding="UTF-8"?>
<!DOCTYPE svg PUBLIC "-//W3C//DTD SVG 1.1//EN" "http://www.w3.org/Graphics/SVG/1.1/DTD/svg11.dtd">
<!-- Creator: CorelDRAW X7 -->
<svg xmlns="http://www.w3.org/2000/svg" xml:space="preserve" width="0.787402in" height="0.787402in" version="1.1" style="shape-rendering:geometricPrecision; text-rendering:geometricPrecision; image-rendering:optimizeQuality; fill-rule:evenodd; clip-rule:evenodd"
viewBox="0 0 787 787"
 xmlns:xlink="http://www.w3.org/1999/xlink">
 <defs>
  <style type="text/css">
   <![CDATA[
    .fil0 {fill:black}
   ]]>
  </style>
 </defs>
 <g id="Layer_x0020_1">
  <metadata id="CorelCorpID_0Corel-Layer"/>
  <path class="fil0" d="M39 138l48 0 0 512 -48 0 0 -512zm587 490c0,-10 6,-17 16,-22l0 0c-9,-4 -13,-11 -13,-18 0,-12 11,-21 25,-21 15,0 23,10 23,20 0,6 -4,14 -13,18l0 1c9,3 16,10 16,20 0,14 -12,23 -27,23 -17,0 -27,-10 -27,-21zm43 -1c0,-9 -7,-14 -18,-17 -9,3 -14,9 -14,16 0,8 6,15 16,15 9,0 16,-6 16,-14zm-30 -39c0,7 6,12 15,14 7,-2 12,-7 12,-14 0,-7 -3,-13 -13,-13 -9,0 -14,6 -14,13zm-24 -19l0 7 -35 72 -11 0 34 -70 0 -1 -38 0 0 -8 50 0zm-70 7c-3,0 -5,0 -8,1 -17,2 -26,15 -28,28l0 0c4,-5 11,-9 20,-9 14,0 23,10 23,25 0,15 -9,28 -26,28 -17,0 -28,-13 -28,-34 0,-15 6,-28 13,-35 7,-7 16,-11 26,-12 3,-1 6,-1 8,-1l0 9 0 0zm-3 46c0,-12 -7,-18 -17,-18 -6,0 -12,4 -15,9 -1,2 -1,3 -1,5 0,13 6,23 17,23 9,0 16,-8 16,-19zm-59 -44l-30 0 -3 20c1,0 3,-1 6,-1 6,0 12,2 17,5 6,3 11,10 11,20 0,16 -12,27 -29,27 -9,0 -16,-2 -20,-5l3 -8c3,2 10,4 17,4 10,0 19,-6 19,-17 -1,-10 -7,-17 -23,-17 -5,0 -8,0 -11,1l5 -38 38 0 0 9 0 0zm-78 70l0 -22 -37 0 0 -7 35 -51 12 0 0 50 11 0 0 8 -11 0 0 22 -10 0zm0 -30l0 -27c0,-4 0,-8 0,-12l0 0c-2,5 -4,8 -7,12l-19 27 0 0 26 0zm-94 17c3,2 10,5 17,5 14,0 18,-8 18,-15 0,-11 -10,-16 -20,-16l-6 0 0 -8 6 0c7,0 17,-4 17,-13 0,-7 -4,-12 -14,-12 -6,0 -12,3 -16,5l-2 -8c4,-3 12,-6 20,-6 16,0 23,9 23,19 0,8 -5,15 -15,19l0 0c10,2 18,9 18,20 0,13 -10,24 -29,24 -9,0 -16,-3 -20,-5l3 -9zm-67 13l0 -7 9 -8c20,-19 29,-30 29,-41 0,-9 -4,-16 -16,-16 -7,0 -13,4 -16,7l-4 -8c6,-4 13,-8 23,-8 17,0 24,12 24,23 0,15 -11,27 -27,43l-7 6 0 0 36 0 0 9 -51 0zm-40 -70l-1 0 -13 8 -2 -8 17 -9 9 0 0 79 -10 0 0 -70zm-35 29c0,27 -10,42 -27,42 -16,0 -26,-14 -26,-41 0,-26 11,-41 27,-41 17,0 26,15 26,40zm-43 1c0,21 7,33 16,33 11,0 17,-13 17,-33 0,-20 -5,-33 -17,-33 -9,0 -16,12 -16,33zm583 -470l39 0 0 512 -39 0 0 -512zm-116 0l-42 0 0 378 71 0 0 -378 -21 0 -8 0zm53 0l47 0 0 378 -47 0 0 -378zm-292 0l40 0 0 378 -40 0 0 -378zm121 0l-50 0 0 378 95 0 0 -378 -31 0 -14 0zm-160 0l24 0 0 378 -24 0 0 -378zm-157 0l23 0 0 378 -23 0 0 -378zm94 0l47 0 0 378 -47 0 0 -378zm-55 0l31 0 0 378 -31 0 0 -378zm-87 0l32 0 0 378 -32 0 0 -378z"/>
 </g>
</svg>
