<?xml version="1.0" encoding="UTF-8"?>
<!DOCTYPE svg PUBLIC "-//W3C//DTD SVG 1.1//EN" "http://www.w3.org/Graphics/SVG/1.1/DTD/svg11.dtd">
<!-- Creator: CorelDRAW X7 -->
<svg xmlns="http://www.w3.org/2000/svg" xml:space="preserve" width="0.787402in" height="0.787402in" version="1.1" style="shape-rendering:geometricPrecision; text-rendering:geometricPrecision; image-rendering:optimizeQuality; fill-rule:evenodd; clip-rule:evenodd"
viewBox="0 0 787 787"
 xmlns:xlink="http://www.w3.org/1999/xlink">
 <defs>
  <style type="text/css">
   <![CDATA[
    .fil0 {fill:black}
   ]]>
  </style>
 </defs>
 <g id="Layer_x0020_1">
  <metadata id="CorelCorpID_0Corel-Layer"/>
  <path class="fil0" d="M172 208l0 466c0,25 20,44 45,44l354 0c24,0 44,-19 44,-44l0 -561c0,-24 -20,-44 -44,-44l-260 0 -139 139zm281 363c-8,0 -15,-7 -15,-15l0 -74 -44 0 -1 0 -44 0 0 74c0,8 -6,15 -14,15 -8,0 -15,-7 -15,-15l0 -74 -59 0 0 133c0,8 6,15 15,15l103 0 0 -74c0,-8 7,-15 15,-15 8,0 14,7 14,15l0 74 104 0c8,0 15,-7 15,-15l0 -133 -59 0 0 74c0,8 -7,15 -15,15zm0 -177c-8,0 -15,-7 -15,-15l0 -74 -89 0 0 74c0,8 -6,15 -14,15 -8,0 -15,-7 -15,-15l0 -74 -44 0c-9,0 -15,7 -15,15l0 133 73 0 1 0 44 0 0 -74c0,-8 7,-15 15,-15 8,0 14,7 14,15l0 74 44 0 1 0 74 0 0 -133c0,-8 -7,-15 -15,-15l-44 0 0 74c0,8 -7,15 -15,15zm59 265l-118 0 -1 0 -117 0c-25,0 -45,-19 -45,-44l0 -147 0 -1 0 -147c0,-25 20,-44 45,-44l58 0 1 0 117 0 1 0 59 0c24,0 44,19 44,44l0 147 0 1 0 147c0,25 -20,44 -44,44zm59 89l-354 0c-41,0 -74,-33 -74,-74l0 -472c0,-4 1,-8 4,-11l148 -147c2,-3 6,-5 10,-5l266 0c40,0 74,34 74,74l0 561c0,41 -34,74 -74,74z"/>
 </g>
</svg>
