<?xml version="1.0" encoding="UTF-8"?>
<!DOCTYPE svg PUBLIC "-//W3C//DTD SVG 1.1//EN" "http://www.w3.org/Graphics/SVG/1.1/DTD/svg11.dtd">
<!-- Creator: CorelDRAW X7 -->
<svg xmlns="http://www.w3.org/2000/svg" xml:space="preserve" width="0.787402in" height="0.787402in" version="1.1" style="shape-rendering:geometricPrecision; text-rendering:geometricPrecision; image-rendering:optimizeQuality; fill-rule:evenodd; clip-rule:evenodd"
viewBox="0 0 787 787"
 xmlns:xlink="http://www.w3.org/1999/xlink">
 <defs>
  <style type="text/css">
   <![CDATA[
    .fil0 {fill:black}
   ]]>
  </style>
 </defs>
 <g id="Layer_x0020_1">
  <metadata id="CorelCorpID_0Corel-Layer"/>
  <g id="_2232524106400">
   <path class="fil0" d="M52 430l63 0c17,126 116,226 242,242l0 64c0,6 6,12 12,12l49 0c7,0 12,-6 12,-12l0 -64c126,-16 226,-116 242,-242l64 0c6,0 12,-5 12,-12l0 -49c0,-6 -6,-12 -12,-12l-64 0c-16,-126 -116,-225 -242,-242l0 -63c0,-7 -5,-13 -12,-13l-49 0c-6,0 -12,6 -12,13l0 63c-126,17 -225,116 -242,242l-63 0c-7,0 -13,6 -13,12l0 49c0,7 6,12 13,12zm342 -244c114,0 207,93 207,208 0,114 -93,207 -207,207 -115,0 -208,-93 -208,-207 0,-115 93,-208 208,-208z"/>
   <path class="fil0" d="M491 394c0,54 -43,97 -97,97 -54,0 -98,-43 -98,-97 0,-54 44,-98 98,-98 54,0 97,44 97,98z"/>
  </g>
 </g>
</svg>
