<?xml version="1.0" encoding="UTF-8"?>
<!DOCTYPE svg PUBLIC "-//W3C//DTD SVG 1.1//EN" "http://www.w3.org/Graphics/SVG/1.1/DTD/svg11.dtd">
<!-- Creator: CorelDRAW X7 -->
<svg xmlns="http://www.w3.org/2000/svg" xml:space="preserve" width="0.787402in" height="0.787402in" version="1.1" style="shape-rendering:geometricPrecision; text-rendering:geometricPrecision; image-rendering:optimizeQuality; fill-rule:evenodd; clip-rule:evenodd"
viewBox="0 0 787 787"
 xmlns:xlink="http://www.w3.org/1999/xlink">
 <defs>
  <style type="text/css">
   <![CDATA[
    .fil0 {fill:black}
   ]]>
  </style>
 </defs>
 <g id="Layer_x0020_1">
  <metadata id="CorelCorpID_0Corel-Layer"/>
  <path class="fil0" d="M521 395l29 29c5,6 12,8 19,8 8,0 15,-2 20,-8l147 -146c8,-8 12,-19 12,-30 0,-11 -4,-21 -12,-29l-118 -118c-16,-16 -42,-16 -58,0l-147 147c-11,11 -11,29 0,39l29 30c4,3 9,4 13,3l-61 59 -62 -59c1,1 2,1 3,1 4,0 8,-2 10,-4l29 -30c11,-10 11,-28 0,-39l-146 -147c-8,-7 -19,-12 -30,-12 -11,0 -21,5 -29,12l-117 118c-17,16 -17,42 0,59l146 146c6,6 13,8 20,8 7,0 14,-2 20,-8l29 -29c2,-3 4,-6 4,-10 0,-1 0,-2 -1,-3l58 60 -109 104c-21,-1 -42,6 -58,22 -14,15 -22,34 -22,54 0,20 8,39 22,54 15,15 35,22 54,22 20,0 39,-7 54,-22 14,-15 22,-34 22,-54 0,-1 0,-3 0,-4l103 -107 102 107c0,1 0,3 0,4 0,20 8,39 22,54 15,15 35,22 54,22 20,0 39,-7 54,-22 14,-15 22,-34 22,-54 0,-20 -8,-39 -22,-54 -16,-16 -37,-23 -58,-22l-109 -104 58 -60c0,1 0,2 0,3 0,4 1,7 4,10zm-323 -161l0 0c-7,0 -13,7 -13,14 0,8 6,14 13,14 8,0 14,-6 14,-14 0,-7 -6,-14 -14,-14zm352 -84l137 137 -20 20 -137 -137 20 -20zm49 -29l117 117c3,3 4,7 4,10 0,4 -1,7 -4,10l-10 10 -137 -137 10 -10c6,-5 14,-5 20,0zm-167 147l79 -78 137 137 -79 78 -20 -21c20,-27 17,-61 -9,-87 -26,-26 -59,-29 -87,-9l-21 -20zm-361 -30l118 -117c2,-3 6,-4 9,-4 4,0 8,1 10,4l10 10 -137 137 -10 -10c-5,-5 -5,-14 0,-20zm147 167l-78 -78 24 -25c6,-5 6,-14 0,-20 -5,-5 -14,-5 -19,0l-25 25 -19 -20 137 -137 19 20 -24 24c-6,6 -6,15 0,20 2,3 6,4 9,4 4,0 7,-1 10,-4l25 -24 78 78 -20 20c-12,-8 -24,-12 -36,-13 -18,-1 -36,7 -52,22 -26,26 -29,60 -9,87l-20 21zm32 251c-19,19 -50,19 -69,0 -9,-9 -14,-21 -14,-34 0,-13 5,-25 14,-34 9,-10 22,-14 34,-14 13,0 25,4 35,14 9,9 14,21 14,34 0,13 -5,25 -14,34zm33 -69c-4,-7 -8,-13 -14,-19 -6,-5 -12,-10 -19,-14l97 -92 28 29 -92 96zm338 35c0,13 -5,25 -15,34 -19,19 -49,19 -68,0 -9,-9 -14,-21 -14,-34 0,-13 5,-25 14,-34 19,-19 49,-19 68,0 10,9 15,21 15,34zm-103 -54c-5,6 -10,12 -13,19l-247 -259c2,-3 5,-7 9,-11 4,-4 8,-7 11,-9l259 246c-7,4 -13,9 -19,14zm-104 -170l95 -90c4,2 8,5 12,9 4,4 7,8 9,11l-91 95 -25 -25z"/>
 </g>
</svg>
