<?xml version="1.0" encoding="UTF-8"?>
<!DOCTYPE svg PUBLIC "-//W3C//DTD SVG 1.1//EN" "http://www.w3.org/Graphics/SVG/1.1/DTD/svg11.dtd">
<!-- Creator: CorelDRAW X7 -->
<svg xmlns="http://www.w3.org/2000/svg" xml:space="preserve" width="0.787402in" height="0.787402in" version="1.1" style="shape-rendering:geometricPrecision; text-rendering:geometricPrecision; image-rendering:optimizeQuality; fill-rule:evenodd; clip-rule:evenodd"
viewBox="0 0 787 787"
 xmlns:xlink="http://www.w3.org/1999/xlink">
 <defs>
  <style type="text/css">
   <![CDATA[
    .fil0 {fill:black}
   ]]>
  </style>
 </defs>
 <g id="Layer_x0020_1">
  <metadata id="CorelCorpID_0Corel-Layer"/>
  <path class="fil0" d="M724 400l0 72 -32 0 -20 -21c-3,-2 -6,-3 -9,-3l-61 0 0 -49 122 0c0,0 0,0 0,1zm-7 -25l-127 0c-6,0 -12,5 -12,12l0 73c0,6 6,12 12,12l68 0 21 21c2,2 5,3 8,3l37 0 0 24 -25 0 0 25 25 0 0 24 -43 0c-14,-23 -43,-31 -66,-18 -7,4 -14,10 -18,18l-43 0 0 -195c0,-13 10,-23 23,-23l0 0 98 0c17,0 33,9 42,24zm-201 -24l-54 97 -53 0c-17,0 -33,-2 -50,-5l98 -174c9,9 17,19 24,30l35 52zm-77 -100l-104 186c-46,-12 -87,-36 -120,-70l0 -33 93 -156c28,7 55,18 80,34l11 7c15,9 28,20 40,32zm-199 -82c14,0 29,1 43,3l-71 118c-6,-19 -26,-29 -45,-22 -6,2 -12,5 -16,10l-7 -12 53 -97 43 0zm-98 49l-48 87 -29 -7 9 -97 68 17zm0 205l0 25 -49 0 0 -25 49 0zm-49 73l0 -24 49 0 0 24 -49 0zm146 0l-73 0 0 -194c0,-6 6,-12 12,-12 7,0 12,6 12,12l0 134c0,20 17,36 37,36 6,0 12,5 12,12l0 12zm291 0l-267 0 0 -12c0,-20 -16,-36 -36,-36 -7,0 -12,-6 -12,-12l0 -36c37,32 81,54 129,65l2 1 1 -1c20,5 41,7 62,7l60 0c5,0 9,-2 11,-6l50 -90 0 120zm85 97c0,-13 10,-24 24,-24 13,0 24,11 24,24 0,14 -11,24 -24,24 -14,0 -24,-10 -24,-24zm-497 0c0,-13 10,-24 24,-24 13,0 24,11 24,24 0,14 -11,24 -24,24 -14,0 -24,-10 -24,-24zm145 0c0,14 -11,24 -24,24 -14,0 -24,-10 -24,-24 0,-13 10,-24 24,-24 13,0 24,11 24,24zm485 -12l0 -181c0,-41 -33,-73 -73,-74l-98 0c-14,1 -28,7 -37,19 0,-1 0,-1 0,-1l-39 -58c-23,-35 -54,-65 -89,-87l-11 -7c-48,-31 -104,-47 -161,-47l-50 0c-4,0 -8,2 -10,6l-25 45 -88 -22c-7,-2 -13,2 -15,9 0,0 0,1 0,2l-12 121c-1,6 3,11 9,13l48 12c1,0 2,0 3,0 4,0 9,-2 11,-6l19 -35 12 20 0 89 -61 0c-6,0 -12,6 -12,12l0 85 -12 0c-7,0 -12,6 -12,12l0 73c0,7 5,12 12,12l36 0c0,27 22,49 49,50 27,0 49,-22 49,-49 1,-27 -21,-49 -48,-49 -18,-1 -34,9 -43,24l-31 0 0 -49 461 0 0 49 -249 0c-14,-23 -44,-31 -66,-17 -23,14 -31,43 -17,66 13,23 43,30 66,17 14,-9 23,-25 23,-42l303 0c0,27 22,49 49,49 27,0 48,-22 48,-49l49 0c7,0 12,-5 12,-12z"/>
 </g>
</svg>
