<?xml version="1.0" encoding="UTF-8"?>
<!DOCTYPE svg PUBLIC "-//W3C//DTD SVG 1.1//EN" "http://www.w3.org/Graphics/SVG/1.1/DTD/svg11.dtd">
<!-- Creator: CorelDRAW X7 -->
<svg xmlns="http://www.w3.org/2000/svg" xml:space="preserve" width="0.787402in" height="0.787402in" version="1.1" style="shape-rendering:geometricPrecision; text-rendering:geometricPrecision; image-rendering:optimizeQuality; fill-rule:evenodd; clip-rule:evenodd"
viewBox="0 0 787 787"
 xmlns:xlink="http://www.w3.org/1999/xlink">
 <defs>
  <style type="text/css">
   <![CDATA[
    .fil0 {fill:black}
   ]]>
  </style>
 </defs>
 <g id="Layer_x0020_1">
  <metadata id="CorelCorpID_0Corel-Layer"/>
  <path class="fil0" d="M394 39c195,0 354,159 354,355 0,195 -159,354 -354,354 -196,0 -355,-159 -355,-354 0,-196 159,-355 355,-355zm68 253l-136 0c-19,0 -34,15 -34,34l0 136c0,18 15,34 34,34l136 0c18,0 34,-16 34,-34l0 -136c0,-19 -16,-34 -34,-34zm146 70c8,0 15,-6 15,-14 0,-8 -7,-15 -15,-15l-46 0 0 -29 46 0c8,0 15,-7 15,-15 0,-8 -7,-14 -15,-14l-47 0c-3,-26 -23,-45 -48,-49l0 -47c0,-8 -7,-14 -15,-14 -8,0 -14,6 -14,14l0 47 -30 0 0 -47c0,-8 -7,-14 -15,-14 -8,0 -14,6 -14,14l0 47 -63 0 0 -47c0,-8 -6,-14 -14,-14 -8,0 -15,6 -15,14l0 47 -29 0 0 -47c0,-8 -7,-14 -15,-14 -8,0 -14,6 -14,14l0 47c-26,4 -45,23 -49,49l-47 0c-8,0 -14,6 -14,14 0,8 6,15 14,15l47 0 0 29 -47 0c-8,0 -14,7 -14,15 0,8 6,14 14,14l47 0 0 63 -47 0c-8,0 -14,6 -14,14 0,8 6,15 14,15l47 0 0 30 -47 0c-8,0 -14,6 -14,14 0,8 6,15 14,15l47 0c4,25 23,45 49,48l0 47c0,8 6,15 14,15 8,0 15,-7 15,-15l0 -46 29 0 0 46c0,8 7,15 15,15 8,0 14,-7 14,-15l0 -46 63 0 0 46c0,8 6,15 14,15 8,0 15,-7 15,-15l0 -46 30 0 0 46c0,8 6,15 14,15 8,0 15,-7 15,-15l0 -47c25,-3 45,-23 48,-48l47 0c8,0 15,-7 15,-15 0,-8 -7,-14 -15,-14l-46 0 0 -30 46 0c8,0 15,-7 15,-15 0,-8 -7,-14 -15,-14l-46 0 0 -63 46 0zm-75 143c0,15 -13,28 -28,28l-223 0c-15,0 -27,-13 -27,-28l0 -223c0,-15 12,-27 27,-27l223 0c15,0 28,12 28,27l0 223zm-66 -43c0,2 -3,5 -5,5l-136 0c-3,0 -5,-3 -5,-5l0 -136c0,-3 2,-5 5,-5l136 0c2,0 5,2 5,5l0 136z"/>
 </g>
</svg>
