<?xml version="1.0" encoding="UTF-8"?>
<!DOCTYPE svg PUBLIC "-//W3C//DTD SVG 1.1//EN" "http://www.w3.org/Graphics/SVG/1.1/DTD/svg11.dtd">
<!-- Creator: CorelDRAW X7 -->
<svg xmlns="http://www.w3.org/2000/svg" xml:space="preserve" width="0.787402in" height="0.787402in" version="1.1" style="shape-rendering:geometricPrecision; text-rendering:geometricPrecision; image-rendering:optimizeQuality; fill-rule:evenodd; clip-rule:evenodd"
viewBox="0 0 787 787"
 xmlns:xlink="http://www.w3.org/1999/xlink">
 <defs>
  <style type="text/css">
   <![CDATA[
    .fil0 {fill:black}
   ]]>
  </style>
 </defs>
 <g id="Layer_x0020_1">
  <metadata id="CorelCorpID_0Corel-Layer"/>
  <path class="fil0" d="M394 292c-18,0 -30,8 -30,19l0 149c0,9 12,19 30,19 17,0 30,-10 30,-19l0 -149c0,-11 -13,-19 -30,-19zm0 -253c-169,0 -305,137 -305,305 0,137 91,251 213,290l69 102c5,7 14,12 23,12 9,0 17,-5 23,-12l69 -102c122,-39 212,-153 212,-290 0,-169 -136,-305 -304,-305zm67 544c-6,2 -12,6 -15,12l-52 76 -52 -76c-4,-6 -9,-10 -16,-12 -103,-29 -181,-124 -181,-239 0,-138 111,-249 249,-249 137,0 249,111 249,249 0,115 -78,210 -182,239zm-67 -383c-18,0 -32,13 -32,28 0,15 14,28 32,28 17,0 31,-13 31,-28 0,-15 -14,-28 -31,-28z"/>
 </g>
</svg>
