<?xml version="1.0" encoding="UTF-8"?>
<!DOCTYPE svg PUBLIC "-//W3C//DTD SVG 1.1//EN" "http://www.w3.org/Graphics/SVG/1.1/DTD/svg11.dtd">
<!-- Creator: CorelDRAW X7 -->
<svg xmlns="http://www.w3.org/2000/svg" xml:space="preserve" width="0.787402in" height="0.787402in" version="1.1" style="shape-rendering:geometricPrecision; text-rendering:geometricPrecision; image-rendering:optimizeQuality; fill-rule:evenodd; clip-rule:evenodd"
viewBox="0 0 787 787"
 xmlns:xlink="http://www.w3.org/1999/xlink">
 <defs>
  <style type="text/css">
   <![CDATA[
    .fil0 {fill:black}
   ]]>
  </style>
 </defs>
 <g id="Layer_x0020_1">
  <metadata id="CorelCorpID_0Corel-Layer"/>
  <path class="fil0" d="M726 39l-177 0c-13,0 -22,10 -22,23l0 132 0 89c0,12 9,22 22,22 12,0 22,-10 22,-22l0 -66 155 0c12,0 22,-10 22,-23l0 -132c0,-13 -10,-23 -22,-23zm-598 288c0,-36 30,-66 66,-66 37,0 67,30 67,66 0,37 -30,67 -67,67 -36,0 -66,-30 -66,-67zm66 244c7,0 13,-3 17,-8 14,-15 138,-156 138,-236 0,-85 -69,-155 -155,-155 -85,0 -155,70 -155,155 0,80 125,221 139,236 4,5 10,8 16,8zm465 -44l-221 0c-24,0 -44,-20 -44,-45 0,-24 20,-44 44,-44l48 0c9,26 34,44 63,44 36,0 66,-29 66,-66 0,-37 -30,-67 -66,-67 -29,0 -54,19 -63,45l-48 0c-49,0 -89,39 -89,88 0,49 40,89 89,89l221 0c25,0 45,20 45,44 0,25 -20,44 -45,44l-402 0c-9,-25 -34,-44 -63,-44 -36,0 -66,30 -66,67 0,36 30,66 66,66 29,0 54,-19 63,-44l402 0c49,0 89,-40 89,-89 0,-49 -40,-88 -89,-88z"/>
 </g>
</svg>
