<?xml version="1.0" encoding="UTF-8"?>
<!DOCTYPE svg PUBLIC "-//W3C//DTD SVG 1.1//EN" "http://www.w3.org/Graphics/SVG/1.1/DTD/svg11.dtd">
<!-- Creator: CorelDRAW X7 -->
<svg xmlns="http://www.w3.org/2000/svg" xml:space="preserve" width="0.787402in" height="0.787402in" version="1.1" style="shape-rendering:geometricPrecision; text-rendering:geometricPrecision; image-rendering:optimizeQuality; fill-rule:evenodd; clip-rule:evenodd"
viewBox="0 0 787 787"
 xmlns:xlink="http://www.w3.org/1999/xlink">
 <defs>
  <style type="text/css">
   <![CDATA[
    .fil0 {fill:black}
   ]]>
  </style>
 </defs>
 <g id="Layer_x0020_1">
  <metadata id="CorelCorpID_0Corel-Layer"/>
  <path class="fil0" d="M626 349c-67,0 -122,55 -122,123 0,37 19,79 55,125 26,33 52,56 53,57 8,7 21,7 29,0 1,-1 27,-24 53,-57 27,-35 54,-80 54,-125 0,-68 -54,-123 -122,-123zm34 366c0,30 -38,45 -58,22l-463 0c-55,0 -100,-45 -100,-100 0,-55 45,-99 100,-99l222 0c30,0 55,-25 55,-55 0,-30 -25,-55 -55,-55l-175 0c-21,23 -58,8 -58,-22 0,-30 37,-45 58,-22l175 0c55,0 99,44 99,99 0,55 -44,99 -99,99l-222 0c-30,0 -55,25 -55,55 0,31 25,56 55,56l463 0c20,-23 58,-8 58,22zm-466 -554c0,19 -14,33 -33,33 -18,0 -33,-14 -33,-33 0,-18 15,-33 33,-33 19,0 33,15 33,33zm-47 183c8,7 21,7 29,0 1,-1 27,-24 52,-57 37,-46 55,-88 55,-125 0,-68 -55,-123 -122,-123 -67,0 -122,55 -122,123 0,37 19,79 55,125 26,33 51,56 53,57zm14 -260c43,0 78,35 78,78 0,46 -48,104 -78,135 -30,-31 -77,-89 -77,-135 0,-43 35,-78 77,-78zm465 354c-29,0 -44,36 -23,57 16,16 45,11 54,-11 9,-22 -7,-46 -31,-46zm0 169c-30,-31 -77,-89 -77,-135 0,-43 34,-78 77,-78 43,0 78,35 78,78 0,46 -48,104 -78,135z"/>
 </g>
</svg>
