<?xml version="1.0" encoding="UTF-8"?>
<!DOCTYPE svg PUBLIC "-//W3C//DTD SVG 1.1//EN" "http://www.w3.org/Graphics/SVG/1.1/DTD/svg11.dtd">
<!-- Creator: CorelDRAW X7 -->
<svg xmlns="http://www.w3.org/2000/svg" xml:space="preserve" width="0.787402in" height="0.787402in" version="1.1" style="shape-rendering:geometricPrecision; text-rendering:geometricPrecision; image-rendering:optimizeQuality; fill-rule:evenodd; clip-rule:evenodd"
viewBox="0 0 787 787"
 xmlns:xlink="http://www.w3.org/1999/xlink">
 <defs>
  <style type="text/css">
   <![CDATA[
    .fil0 {fill:black}
   ]]>
  </style>
 </defs>
 <g id="Layer_x0020_1">
  <metadata id="CorelCorpID_0Corel-Layer"/>
  <path class="fil0" d="M313 248c-5,2 -8,7 -8,13l0 266c0,5 3,10 8,12 2,2 4,2 7,2 3,0 5,0 8,-2l207 -133c4,-3 6,-7 6,-12 0,-5 -2,-10 -6,-13l-207 -133c-5,-3 -10,-3 -15,0zm13 394c-3,-3 -6,-4 -10,-4 -2,0 -3,0 -5,1 -5,1 -9,6 -10,11l-4 22c-143,-49 -232,-205 -187,-361 29,-101 112,-177 213,-204l8 -2c8,-2 12,-10 10,-18l-7 -28c-2,-8 -11,-13 -18,-11l-4 1c-132,36 -239,141 -266,275 -36,184 77,361 251,411 0,0 2,0 3,0 30,9 62,13 94,13 6,0 11,-4 13,-9 3,-6 1,-12 -3,-16l-78 -81zm164 -589c0,0 -2,-1 -2,-1 -31,-8 -62,-13 -94,-13 -6,0 -12,4 -14,9 -2,6 -1,12 3,17l78 80c3,3 7,5 11,5 1,0 3,-1 4,-1 5,-2 9,-6 10,-12l4 -22c144,50 232,205 187,362 -29,100 -112,176 -213,203l-8 2c-7,2 -12,10 -10,18l8 29c2,8 10,12 18,10l3 -1c133,-36 239,-140 266,-275 37,-184 -77,-361 -251,-410z"/>
 </g>
</svg>
