<?xml version="1.0" encoding="UTF-8"?>
<!DOCTYPE svg PUBLIC "-//W3C//DTD SVG 1.1//EN" "http://www.w3.org/Graphics/SVG/1.1/DTD/svg11.dtd">
<!-- Creator: CorelDRAW X7 -->
<svg xmlns="http://www.w3.org/2000/svg" xml:space="preserve" width="0.787402in" height="0.787402in" version="1.1" style="shape-rendering:geometricPrecision; text-rendering:geometricPrecision; image-rendering:optimizeQuality; fill-rule:evenodd; clip-rule:evenodd"
viewBox="0 0 787 787"
 xmlns:xlink="http://www.w3.org/1999/xlink">
 <defs>
  <style type="text/css">
   <![CDATA[
    .fil0 {fill:black}
   ]]>
  </style>
 </defs>
 <g id="Layer_x0020_1">
  <metadata id="CorelCorpID_0Corel-Layer"/>
  <path class="fil0" d="M542 346c-2,0 -5,1 -7,1l-27 8 -27 -67c-8,-19 -31,-35 -51,-35l-257 0c-21,0 -44,16 -51,35l-28 67 -26 -8c-2,0 -5,-1 -7,-1 -12,0 -22,10 -22,23l0 16c0,15 13,28 28,28l3 0 -4 10c-7,18 -13,48 -13,67l0 133c0,15 12,27 28,27l36 0c15,0 28,-12 28,-27l0 -34 313 0 0 34c0,15 12,27 28,27l36 0c15,0 28,-12 28,-27l0 -133c0,-19 -6,-49 -13,-67l-5 -10 4 0c15,0 27,-13 27,-28l0 -16c0,-13 -9,-23 -21,-23zm121 -143c-4,-3 -10,-4 -19,-4l-13 0c-2,0 -4,2 -4,4l0 26c0,3 2,5 4,5l8 0c3,0 7,-1 10,-1 3,0 11,-1 14,-3 3,-3 5,-8 5,-14 0,-6 -2,-11 -5,-13zm50 -66l-132 0c-19,0 -35,16 -35,35l0 132c0,19 16,34 35,34l53 0 0 297c0,7 6,13 13,13 7,0 13,-6 13,-13l0 -297 53 0c19,0 35,-15 35,-34l0 -132c0,-19 -16,-35 -35,-35zm-30 109c-7,7 -19,11 -33,11l-19 0c-2,0 -4,1 -4,4l0 32c0,3 -3,6 -7,6l-14 0c-4,0 -6,-3 -6,-6l0 -111c0,-3 2,-6 6,-6l36 0c25,0 34,4 41,10 8,7 12,17 12,30 0,13 -4,23 -12,30zm-569 151l42 -101c4,-11 18,-20 30,-20l230 0c12,0 26,9 31,20l41 101c5,12 -1,21 -13,21l-347 0c-12,0 -19,-9 -14,-21zm93 128c0,6 -5,12 -11,12l-79 0c-6,0 -11,-6 -11,-12l0 -37c0,-7 5,-12 11,-12l79 0c6,0 11,5 11,12l0 37zm289 0c0,6 -5,12 -11,12l-79 0c-6,0 -11,-6 -11,-12l0 -37c0,-7 5,-12 11,-12l79 0c6,0 11,5 11,12l0 37z"/>
 </g>
</svg>
