<?xml version="1.0" encoding="UTF-8"?>
<!DOCTYPE svg PUBLIC "-//W3C//DTD SVG 1.1//EN" "http://www.w3.org/Graphics/SVG/1.1/DTD/svg11.dtd">
<!-- Creator: CorelDRAW X7 -->
<svg xmlns="http://www.w3.org/2000/svg" xml:space="preserve" width="0.787402in" height="0.787402in" version="1.1" style="shape-rendering:geometricPrecision; text-rendering:geometricPrecision; image-rendering:optimizeQuality; fill-rule:evenodd; clip-rule:evenodd"
viewBox="0 0 787 787"
 xmlns:xlink="http://www.w3.org/1999/xlink">
 <defs>
  <style type="text/css">
   <![CDATA[
    .fil0 {fill:black}
   ]]>
  </style>
 </defs>
 <g id="Layer_x0020_1">
  <metadata id="CorelCorpID_0Corel-Layer"/>
  <path class="fil0" d="M644 143c-67,-67 -156,-104 -250,-104 -72,0 -142,22 -201,63 -6,4 -8,13 -3,19 4,6 13,8 19,3 54,-37 118,-57 185,-57 180,0 326,147 326,327 0,180 -146,326 -326,326 -180,0 -327,-146 -327,-326 0,-67 20,-131 57,-185 5,-6 3,-15 -3,-19 -6,-5 -15,-3 -19,3 -41,59 -63,129 -63,201 0,94 37,183 104,250 67,67 156,104 251,104 94,0 183,-37 250,-104 67,-67 104,-156 104,-250 0,-95 -37,-184 -104,-251zm-491 265c4,0 7,-2 10,-5 5,-5 5,-14 0,-19 -6,-5 -14,-5 -20,0l0 0c-5,5 -5,14 0,19 3,3 6,5 10,5zm172 -14c0,38 31,69 69,69 38,0 69,-31 69,-69 0,-38 -31,-69 -69,-69 -38,0 -69,31 -69,69zm69 -42c23,0 41,19 41,42 0,23 -18,41 -41,41 -23,0 -42,-18 -42,-41 0,-23 19,-42 42,-42zm0 327c157,0 285,-128 285,-285 0,-33 -6,-64 -16,-94 0,0 0,0 0,0 -39,-111 -145,-191 -269,-191 -157,0 -285,128 -285,285 0,157 128,285 285,285zm257 -285c0,6 0,13 -1,19 -14,1 -28,3 -42,7 4,-38 -1,-77 -16,-112 16,3 32,6 47,9 8,24 12,50 12,77zm-93 -91c22,38 29,83 21,126 -64,26 -113,79 -132,145 -35,10 -72,10 -107,0 -19,-66 -68,-119 -131,-145 -8,-43 -1,-88 20,-126 54,-8 110,-12 165,-12 55,0 110,4 164,12zm-379 117c-13,-4 -27,-6 -42,-7 0,-6 -1,-13 -1,-19 0,-27 4,-53 12,-77 16,-3 32,-6 48,-9 -15,35 -21,74 -17,112zm-38 21c101,8 181,93 181,196 0,1 0,3 0,4 -92,-27 -163,-104 -181,-200zm208 206c0,-3 0,-6 0,-10 0,-11 0,-22 -2,-33 15,4 31,6 47,6 15,0 31,-2 46,-6 -1,11 -2,22 -2,33 0,4 0,7 0,10 -14,3 -29,4 -44,4 -15,0 -30,-1 -45,-4zm117 -6c0,-1 0,-3 0,-4 0,-103 80,-188 181,-196 -18,96 -89,173 -181,200zm-72 -505c103,0 193,62 234,150 -77,-15 -156,-23 -234,-23 -79,0 -157,8 -234,23 40,-88 130,-150 234,-150z"/>
 </g>
</svg>
