<?xml version="1.0" encoding="UTF-8"?>
<!DOCTYPE svg PUBLIC "-//W3C//DTD SVG 1.1//EN" "http://www.w3.org/Graphics/SVG/1.1/DTD/svg11.dtd">
<!-- Creator: CorelDRAW X7 -->
<svg xmlns="http://www.w3.org/2000/svg" xml:space="preserve" width="0.787402in" height="0.787402in" version="1.1" style="shape-rendering:geometricPrecision; text-rendering:geometricPrecision; image-rendering:optimizeQuality; fill-rule:evenodd; clip-rule:evenodd"
viewBox="0 0 787 787"
 xmlns:xlink="http://www.w3.org/1999/xlink">
 <defs>
  <style type="text/css">
   <![CDATA[
    .fil0 {fill:black}
   ]]>
  </style>
 </defs>
 <g id="Layer_x0020_1">
  <metadata id="CorelCorpID_0Corel-Layer"/>
  <path class="fil0" d="M394 39c195,0 354,159 354,355 0,195 -159,354 -354,354 -196,0 -355,-159 -355,-354 0,-196 159,-355 355,-355zm239 192l-317 -68c-14,-2 -27,6 -30,20l-6 38 366 78 6 -39c3,-13 -6,-27 -19,-29zm-366 288c-1,-6 -7,-9 -13,-8l-36 11c-6,1 -9,7 -8,12l11 37c1,5 7,9 12,7l37 -10c6,-2 9,-7 7,-13l-10 -36zm232 -212c-3,-13 -17,-21 -30,-18l-61 17 -142 -30 -15 74 -98 27c-13,4 -21,18 -17,31l55 198c3,13 17,21 31,18l315 -88c13,-4 21,-18 17,-31l-9 -34 35 8c14,2 27,-6 30,-20l22 -105 -127 -27 -6 -20zm37 101l8 -37c1,-6 6,-9 12,-8l37 8c5,1 9,6 8,12l-8 37c-1,5 -7,9 -12,8l-37 -8c-6,-1 -9,-7 -8,-12zm-377 -11l87 -24 206 -58 22 -6c0,0 1,0 1,0 2,0 4,1 5,4l2 9 8 29 -324 90 -11 -38c0,-3 1,-6 4,-6zm376 114c0,1 0,2 -1,3 0,1 -1,2 -3,2l-315 88c0,0 -1,0 -1,0 -2,0 -4,-1 -5,-3l-32 -116 325 -90 19 71 13 45z"/>
 </g>
</svg>
