<?xml version="1.0" encoding="UTF-8"?>
<!DOCTYPE svg PUBLIC "-//W3C//DTD SVG 1.1//EN" "http://www.w3.org/Graphics/SVG/1.1/DTD/svg11.dtd">
<!-- Creator: CorelDRAW X7 -->
<svg xmlns="http://www.w3.org/2000/svg" xml:space="preserve" width="0.5in" height="0.5in" version="1.1" style="shape-rendering:geometricPrecision; text-rendering:geometricPrecision; image-rendering:optimizeQuality; fill-rule:evenodd; clip-rule:evenodd"
viewBox="0 0 500 500"
 xmlns:xlink="http://www.w3.org/1999/xlink">
 <defs>
  <style type="text/css">
   <![CDATA[
    .fil0 {fill:#1F1B20}
   ]]>
  </style>
 </defs>
 <g id="Layer_x0020_1">
  <metadata id="CorelCorpID_0Corel-Layer"/>
  <path class="fil0" d="M139 303l111 51 111 -51 7 -3 10 -6 6 -2 0 6c0,4 -1,10 -3,15l0 0c-1,4 -3,8 -7,9l0 0 -110 50 0 0c-6,2 -10,4 -14,4 -5,0 -8,-2 -14,-4l0 0 -110 -50 -1 0c-3,-2 -5,-5 -7,-9l0 0c-1,-5 -2,-11 -2,-15l0 0 0 0 0 -7 6 4c5,2 11,6 15,7l1 1 1 0 -1 1 1 -1zm111 -157l0 0 -104 56 104 44 104 -44 -104 -56zm-14 174l-110 -50 -1 0c-3,-2 -5,-5 -7,-9 -1,-5 -2,-11 -2,-15l0 0 0 0 0 -7 6 3c5,3 11,7 15,8l1 1 1 0 -1 1 1 -1 111 51 111 -51 6 -3 11 -6 6 -2 0 6c0,4 -1,10 -3,15l0 0c-1,4 -3,8 -7,9l0 0 -110 50 0 0c-6,2 -10,4 -14,4 -5,0 -8,-2 -14,-4l0 0zm0 -52l-110 -50 -1 0c-2,-1 -4,-3 -5,-5 -2,-3 -3,-6 -3,-10 0,-3 1,-7 2,-10l0 0c2,-2 4,-4 6,-6l1 0 110 -58 0 0c5,-3 10,-5 14,-5 5,0 9,2 14,5l110 58 0 0c3,1 5,4 7,7l0 0c1,3 2,6 2,9 0,3 -1,7 -3,9l0 0c-1,3 -3,5 -6,6l0 0 -110 50 0 0c-6,2 -10,4 -14,4 -5,0 -8,-2 -14,-4l0 0z"/>
 </g>
</svg>
