<?xml version="1.0" encoding="UTF-8"?>
<!DOCTYPE svg PUBLIC "-//W3C//DTD SVG 1.1//EN" "http://www.w3.org/Graphics/SVG/1.1/DTD/svg11.dtd">
<!-- Creator: CorelDRAW X7 -->
<svg xmlns="http://www.w3.org/2000/svg" xml:space="preserve" width="0.5in" height="0.5in" version="1.1" style="shape-rendering:geometricPrecision; text-rendering:geometricPrecision; image-rendering:optimizeQuality; fill-rule:evenodd; clip-rule:evenodd"
viewBox="0 0 500 500"
 xmlns:xlink="http://www.w3.org/1999/xlink">
 <defs>
  <style type="text/css">
   <![CDATA[
    .fil0 {fill:#1F1B20}
   ]]>
  </style>
 </defs>
 <g id="Layer_x0020_1">
  <metadata id="CorelCorpID_0Corel-Layer"/>
  <path class="fil0" d="M322 235c-47,-64 -97,-64 -144,0 -2,3 -2,6 0,9 24,32 48,48 72,48 24,0 48,-16 72,-48 2,-3 2,-6 0,-9zm44 -59l-17 4c-21,-33 -58,-55 -99,-55 -26,0 -51,8 -71,24 -4,3 -4,8 -1,11 2,4 7,4 11,2 17,-14 38,-22 61,-22 34,0 65,18 83,45l-9 2c-7,2 -8,11 -2,15l26 15c2,1 4,1 6,1 2,-1 4,-2 5,-4l15 -27c1,-1 1,-2 1,-3l0 -1c0,-5 -4,-8 -9,-7zm-149 158c-40,-14 -67,-52 -67,-94 0,-12 3,-24 7,-35l9 6c6,3 13,-2 12,-9l-8 -30c-2,-4 -6,-6 -10,-5l-30 8c-6,1 -8,11 -2,14l15 8c-5,14 -8,28 -8,43 0,49 31,92 77,108 4,2 8,0 10,-4 1,-5 -1,-9 -5,-10zm140 -102c-4,0 -7,3 -7,8 0,47 -33,86 -77,97l0 -10c0,-7 -8,-11 -13,-6l-21 21c-3,3 -3,8 0,11l21 20c1,2 3,2 5,3l0 0c4,-1 8,-4 8,-8l0 -15c53,-11 92,-58 92,-113 0,-5 -3,-8 -8,-8zm-107 28c-12,0 -21,-9 -21,-20 0,-12 9,-21 21,-21 12,0 21,9 21,21 0,11 -9,20 -21,20z"/>
 </g>
</svg>
