<?xml version="1.0" encoding="UTF-8"?>
<!DOCTYPE svg PUBLIC "-//W3C//DTD SVG 1.1//EN" "http://www.w3.org/Graphics/SVG/1.1/DTD/svg11.dtd">
<!-- Creator: CorelDRAW X7 -->
<svg xmlns="http://www.w3.org/2000/svg" xml:space="preserve" width="0.5in" height="0.5in" version="1.1" style="shape-rendering:geometricPrecision; text-rendering:geometricPrecision; image-rendering:optimizeQuality; fill-rule:evenodd; clip-rule:evenodd"
viewBox="0 0 500 500"
 xmlns:xlink="http://www.w3.org/1999/xlink">
 <defs>
  <style type="text/css">
   <![CDATA[
    .fil0 {fill:#1F1B20}
   ]]>
  </style>
 </defs>
 <g id="Layer_x0020_1">
  <metadata id="CorelCorpID_0Corel-Layer"/>
  <path class="fil0" d="M168 298l17 0 0 60 -17 0 0 -60zm52 0l17 0 0 60 -17 0 0 -60zm26 0l17 0 0 60 -17 0 0 -60zm39 0l-13 0 0 60 13 0c2,0 4,-2 4,-4l0 -52c0,-2 -2,-4 -4,-4zm8 -18l-156 0c-7,0 -12,6 -12,13l0 70c0,7 5,13 12,13l156 0c7,0 13,-6 13,-13l0 -70c0,-7 -6,-13 -13,-13zm5 74c0,7 -6,13 -13,13l-139 0c-7,0 -13,-6 -13,-13l0 -52c0,-7 6,-13 13,-13l139 0c7,0 13,6 13,13l0 52zm34 -108l-65 0c-7,0 -13,-6 -13,-13l0 -5 -8 0 0 9c0,10 7,17 17,17l69 0c19,0 35,16 35,35 0,19 -16,35 -35,35l0 8c24,0 44,-19 44,-43 0,-24 -20,-43 -44,-43zm-13 52l-4 0 0 60 4 0c3,0 5,-2 5,-4l0 -52c0,-2 -2,-4 -5,-4zm-125 0l17 0 0 60 -17 0 0 -60zm13 -139l86 0c3,0 5,-2 5,-4 0,-3 -2,-5 -5,-5l-86 0c-3,0 -5,2 -5,5 0,2 2,4 5,4zm26 -30c0,-3 -2,-4 -5,-4 -2,0 -4,1 -4,4l0 13 9 0 0 -13zm43 0c0,-3 -2,-4 -4,-4 -3,0 -5,1 -5,4l0 13 9 0 0 -13zm-35 91l18 0c2,0 4,-2 4,-5l0 -4c0,-1 1,-3 2,-4 12,-5 20,-17 20,-31l0 -8 -70 0 0 8c0,14 8,26 20,31 1,1 2,3 2,4l0 4c0,2 0,3 1,3 1,1 2,2 3,2zm-99 82l0 52c0,2 2,4 4,4l13 0 0 -60 -13 0c-2,0 -4,2 -4,4z"/>
 </g>
</svg>
