<?xml version="1.0" encoding="UTF-8"?>
<!DOCTYPE svg PUBLIC "-//W3C//DTD SVG 1.1//EN" "http://www.w3.org/Graphics/SVG/1.1/DTD/svg11.dtd">
<!-- Creator: CorelDRAW X7 -->
<svg xmlns="http://www.w3.org/2000/svg" xml:space="preserve" width="0.5in" height="0.5in" version="1.1" style="shape-rendering:geometricPrecision; text-rendering:geometricPrecision; image-rendering:optimizeQuality; fill-rule:evenodd; clip-rule:evenodd"
viewBox="0 0 500 500"
 xmlns:xlink="http://www.w3.org/1999/xlink">
 <defs>
  <style type="text/css">
   <![CDATA[
    .fil0 {fill:#1F1B20}
   ]]>
  </style>
 </defs>
 <g id="Layer_x0020_1">
  <metadata id="CorelCorpID_0Corel-Layer"/>
  <path class="fil0" d="M250 308c12,0 21,10 21,22 0,11 -9,21 -21,21 -12,0 -21,-10 -21,-21 0,-12 9,-22 21,-22zm0 -80c12,0 21,10 21,22 0,11 -9,21 -21,21 -12,0 -21,-10 -21,-21 0,-12 9,-22 21,-22zm65 77l0 34 39 -34 -39 0zm-65 -103c-18,0 -32,-15 -32,-32 0,-18 14,-32 32,-32 18,0 32,14 32,32 0,17 -14,32 -32,32l0 0zm0 80c-18,0 -32,-15 -32,-32 0,-18 14,-32 32,-32 18,0 32,14 32,32l0 0c0,17 -14,32 -32,32l0 0zm0 79c-18,0 -32,-14 -32,-31 0,-18 14,-32 32,-32 18,0 32,14 32,32 0,0 0,0 0,0 0,17 -14,31 -32,31zm54 -216c0,-9 -7,-17 -16,-17 0,0 0,0 0,0l-77 0c-9,0 -16,8 -16,17 0,0 0,0 0,0l0 210c0,9 7,17 16,17 0,0 0,0 0,0l77 0c9,0 16,-8 16,-17 0,0 0,0 0,0l0 -210zm-54 3c12,0 21,10 21,22 0,12 -9,21 -21,21 -12,0 -21,-9 -21,-21 0,-12 9,-22 21,-22zm-66 191l0 -34 -38 0 38 34zm131 -110l0 33 39 -33 -39 0zm0 -76l0 33 39 -33 -39 0zm-131 109l0 -33 -38 0 38 33zm0 -76l0 -33 -38 0 38 33z"/>
 </g>
</svg>
