<?xml version="1.0" encoding="UTF-8"?>
<!DOCTYPE svg PUBLIC "-//W3C//DTD SVG 1.1//EN" "http://www.w3.org/Graphics/SVG/1.1/DTD/svg11.dtd">
<!-- Creator: CorelDRAW X7 -->
<svg xmlns="http://www.w3.org/2000/svg" xml:space="preserve" width="0.5in" height="0.5in" version="1.1" style="shape-rendering:geometricPrecision; text-rendering:geometricPrecision; image-rendering:optimizeQuality; fill-rule:evenodd; clip-rule:evenodd"
viewBox="0 0 500 500"
 xmlns:xlink="http://www.w3.org/1999/xlink">
 <defs>
  <style type="text/css">
   <![CDATA[
    .fil0 {fill:#1F1B20}
   ]]>
  </style>
 </defs>
 <g id="Layer_x0020_1">
  <metadata id="CorelCorpID_0Corel-Layer"/>
  <path class="fil0" d="M332 234c-23,0 -43,20 -43,44 0,13 7,28 20,44 9,12 18,20 18,20 3,3 8,3 11,0 0,0 9,-8 18,-20 10,-13 19,-28 19,-44 0,-24 -19,-44 -43,-44zm12 130c0,10 -13,16 -20,8l-164 0c-20,0 -35,-16 -35,-36 0,-19 15,-35 35,-35l78 0c11,0 20,-9 20,-19 0,-11 -9,-20 -20,-20l-62 0c-7,8 -20,3 -20,-8 0,-10 13,-15 20,-7l62 0c20,0 36,15 36,35 0,19 -16,35 -36,35l-78 0c-11,0 -20,8 -20,19 0,11 9,20 20,20l164 0c7,-8 20,-3 20,8zm-165 -196c0,6 -5,11 -11,11 -7,0 -12,-5 -12,-11 0,-7 5,-12 12,-12 6,0 11,5 11,12zm-17 64c3,3 8,3 11,0 0,0 9,-8 18,-20 13,-16 20,-31 20,-44 0,-24 -20,-43 -43,-43 -24,0 -43,19 -43,43 0,13 6,28 19,44 9,12 18,20 18,20zm6 -92c15,0 27,13 27,28 0,16 -17,37 -27,48 -11,-11 -28,-32 -28,-48 0,-15 13,-28 28,-28zm164 126c-10,0 -15,12 -8,20 6,6 16,4 19,-4 3,-8 -2,-16 -11,-16zm0 59c-10,-10 -27,-31 -27,-47 0,-16 12,-28 27,-28 16,0 28,12 28,28 0,16 -17,37 -28,47z"/>
 </g>
</svg>
