<?xml version="1.0" encoding="UTF-8"?>
<!DOCTYPE svg PUBLIC "-//W3C//DTD SVG 1.1//EN" "http://www.w3.org/Graphics/SVG/1.1/DTD/svg11.dtd">
<!-- Creator: CorelDRAW X7 -->
<svg xmlns="http://www.w3.org/2000/svg" xml:space="preserve" width="0.5in" height="0.5in" version="1.1" style="shape-rendering:geometricPrecision; text-rendering:geometricPrecision; image-rendering:optimizeQuality; fill-rule:evenodd; clip-rule:evenodd"
viewBox="0 0 500 500"
 xmlns:xlink="http://www.w3.org/1999/xlink">
 <defs>
  <style type="text/css">
   <![CDATA[
    .fil0 {fill:#1F1B20}
   ]]>
  </style>
 </defs>
 <g id="Layer_x0020_1">
  <metadata id="CorelCorpID_0Corel-Layer"/>
  <g>
   <path fill="white" d="M221 208l0 0 0 0zm-5 90l0 0 0 0zm-1 0l0 0 0 0 0 0zm1 -48l0 0 0 0zm5 -42l-22 26c-1,1 -1,1 -2,2l0 0c-1,1 -3,1 -4,1l0 0c-1,0 -3,-1 -4,-2l0 0c-1,0 -1,-1 -1,-1l-7 -11c-1,-2 -1,-4 -1,-6l0 0c0,-1 1,-3 3,-4l0 0c2,-1 3,-1 5,-1l0 0c2,1 3,2 4,3l2 3 16 -19 0 0 0 0c2,-2 3,-2 5,-3 2,0 4,1 5,2l0 0 0 0 0 0 0 0c2,1 2,3 2,5 1,1 0,3 -1,5l0 0zm88 125l-75 0c-4,0 -8,-1 -11,-4l0 0c-2,-3 -4,-6 -4,-10 0,-4 2,-8 4,-10l0 0c3,-3 7,-5 11,-5l75 0c4,0 8,2 10,5l0 0c3,2 5,6 5,10 0,4 -2,7 -5,10l0 0c-2,3 -6,4 -10,4zm0 -15l-75 0c-1,0 -1,0 -1,0l0 0c0,0 0,1 0,1 0,0 0,0 0,0l0 0c0,1 0,1 1,1l75 0c0,0 1,0 1,-1 0,0 0,0 0,0 0,0 0,-1 0,-1 0,0 -1,0 -1,0zm0 -32l-75 0c-4,0 -8,-2 -11,-4l0 0c-2,-3 -4,-7 -4,-11 0,-4 2,-7 4,-10l0 0c3,-2 7,-4 11,-4l75 0c4,0 8,2 10,4l0 0c3,3 5,6 5,10 0,4 -2,8 -5,11l0 0c-2,2 -6,4 -10,4zm0 -15l-75 0c-1,0 -1,0 -1,0 0,0 0,0 0,0 0,1 0,1 0,1l0 0c0,0 0,0 1,0l75 0c0,0 1,0 1,0 0,0 0,0 0,-1 0,0 0,0 0,0 0,0 -1,0 -1,0zm0 -32l-75 0c-4,0 -8,-2 -11,-5l0 0c-2,-2 -4,-6 -4,-10 0,-4 2,-8 4,-10l0 0c3,-3 7,-4 11,-4l75 0c4,0 8,1 10,4l0 0 0 0c3,2 5,6 5,10 0,4 -2,8 -5,10l0 0c-2,3 -6,5 -10,5zm0 -16l-75 0c-1,0 -1,0 -1,0l0 0c0,1 0,1 0,1 0,0 0,0 0,1l0 0c0,0 0,0 1,0l75 0c0,0 1,0 1,0 0,-1 0,-1 0,-1 0,0 0,0 0,-1 0,0 -1,0 -1,0zm10 -71l14 0c4,0 8,2 11,5l0 0c3,3 5,7 5,11l0 149c0,2 -1,3 -2,5 -1,1 -3,2 -5,2 -2,0 -4,-1 -5,-2l0 0c-1,-2 -2,-3 -2,-5l0 -149c0,-1 0,-1 -1,-2l0 0c0,0 -1,0 -1,0l-14 0 0 2c0,5 -2,9 -5,12l0 0c-3,2 -7,4 -11,4 -5,0 -9,-2 -12,-4l0 0c-3,-3 -5,-7 -5,-12l0 -2 -20 0 0 2c0,5 -2,9 -5,12 -3,2 -7,4 -11,4 -4,0 -8,-2 -11,-4 -3,-3 -5,-7 -5,-12l0 -2 -20 0 0 2c0,5 -2,9 -5,12l0 0c-3,2 -7,4 -12,4 -4,0 -8,-2 -11,-4l0 0c-3,-3 -5,-7 -5,-12l0 -2 -14 0c0,0 -1,0 -1,0l0 0c-1,1 -1,1 -1,2l0 18c0,2 -1,4 -2,5 -1,1 -3,2 -5,2 -2,0 -4,-1 -5,-2 -1,-1 -2,-3 -2,-5l0 -18c0,-4 2,-8 5,-11l0 0c3,-3 7,-5 11,-5l14 0 0 -11c0,-5 2,-9 5,-12l0 0c3,-3 7,-4 11,-4 5,0 9,1 12,4l0 0c3,3 5,7 5,12l0 11 20 0 0 -11c0,-5 2,-9 5,-12 3,-3 7,-4 11,-4 4,0 8,1 11,4 3,3 5,7 5,12l0 11 20 0 0 -11c0,-5 2,-9 5,-12l0 0c3,-3 7,-4 12,-4 4,0 8,1 11,4l0 0c3,3 5,7 5,12l0 11zm-120 18c1,-1 1,-1 1,-2l0 -27c0,-1 0,-2 -1,-2 0,-1 -1,-1 -2,-1 0,0 -1,0 -1,1 -1,0 -1,1 -1,2l0 27c0,1 0,1 1,2l0 0c0,0 1,1 1,1 1,0 2,-1 2,-1zm53 0l0 0c0,-1 0,-1 0,-2l0 -27c0,-1 0,-2 0,-2l0 0c-1,-1 -1,-1 -2,-1 -1,0 -1,0 -2,1l0 0c0,0 0,1 0,2l0 27c0,1 0,1 0,2l0 0c1,0 1,1 2,1 1,0 1,-1 2,-1zm52 0c1,-1 1,-1 1,-2l0 -27c0,-1 0,-2 -1,-2 0,-1 -1,-1 -1,-1 -1,0 -2,0 -2,1 -1,0 -1,1 -1,2l0 27c0,1 0,1 1,2 0,0 1,1 2,1 0,0 1,-1 1,-1zm33 159c1,-2 3,-2 5,-2 2,0 4,0 5,2 1,1 2,3 2,5l0 26c0,4 -2,8 -5,11 -3,3 -7,5 -11,5l-166 0c-4,0 -8,-2 -11,-5l0 0c-3,-3 -5,-7 -5,-11l0 -157c0,-2 1,-4 2,-5 1,-1 3,-2 5,-2 2,0 4,1 5,2l0 0c1,1 2,3 2,5l0 157c0,0 0,1 1,1 0,1 1,1 1,1l166 0c0,0 1,0 1,-1l0 0c1,0 1,-1 1,-1l0 -26c0,-2 1,-4 2,-5zm-149 -1l-7 -11c-1,-1 -1,-3 -1,-5l0 0c0,-1 1,-3 3,-4l0 0c2,-1 3,-1 5,-1l0 0c2,1 3,2 4,3l0 0 2 3 16 -19 0 0 0 0c2,-2 3,-3 5,-3 2,0 4,1 5,2l0 0 0 0 0 0 0 0c2,1 2,3 2,4 1,2 0,4 -1,5l0 1 -22 26c-1,1 -1,1 -2,2 -1,0 -3,1 -4,1l0 0c-1,0 -3,-1 -4,-2l0 0c-1,0 -1,-1 -1,-2zm0 -47l-7 -11 0 0c-1,-2 -1,-4 -1,-5l0 0c0,-2 1,-4 3,-5 2,-1 3,-1 5,0l0 0c2,0 3,1 4,3l2 3 16 -20 0 0 0 0c2,-1 3,-2 5,-2 2,0 4,0 5,1l0 0 0 0 0 0c2,2 2,3 2,5 1,2 0,3 -1,5l-22 27c-1,0 -1,1 -2,1 -1,1 -3,1 -4,1l0 0c-1,0 -3,-1 -4,-1l0 0c-1,-1 -1,-1 -1,-2l0 0z"/>
  </g>
 </g>
</svg>
