<?xml version="1.0" encoding="UTF-8"?>
<!DOCTYPE svg PUBLIC "-//W3C//DTD SVG 1.1//EN" "http://www.w3.org/Graphics/SVG/1.1/DTD/svg11.dtd">
<!-- Creator: CorelDRAW X7 -->
<svg xmlns="http://www.w3.org/2000/svg" xml:space="preserve" width="0.5in" height="0.5in" version="1.1" style="shape-rendering:geometricPrecision; text-rendering:geometricPrecision; image-rendering:optimizeQuality; fill-rule:evenodd; clip-rule:evenodd"
viewBox="0 0 500 500"
 xmlns:xlink="http://www.w3.org/1999/xlink">
 <defs>
  <style type="text/css">
   <![CDATA[
    .fil0 {fill:#1F1B20}
   ]]>
  </style>
 </defs>
 <g id="Layer_x0020_1">
  <metadata id="CorelCorpID_0Corel-Layer"/>
  <path class="fil0" d="M373 244l-117 -117c-3,-3 -9,-3 -12,0l-117 117c-2,1 -2,4 -2,6 0,2 0,5 2,6l117 117c1,2 4,3 6,3 2,0 5,-1 6,-3l117 -117c2,-1 2,-4 2,-6 0,-2 0,-5 -2,-6zm-82 -3l-23 22c-1,2 -4,3 -6,3 -2,0 -5,-1 -6,-3 -4,-3 -4,-9 0,-12l8 -8 -40 0 0 47c0,5 -4,9 -9,9 -5,0 -9,-4 -9,-9l0 -56c0,-5 4,-9 9,-9l48 0 -9 -9c-4,-3 -4,-9 0,-13 3,-3 9,-3 12,0l25 25c4,4 4,9 0,13z"/>
 </g>
</svg>
