<?xml version="1.0" encoding="UTF-8"?>
<!DOCTYPE svg PUBLIC "-//W3C//DTD SVG 1.1//EN" "http://www.w3.org/Graphics/SVG/1.1/DTD/svg11.dtd">
<!-- Creator: CorelDRAW X7 -->
<svg xmlns="http://www.w3.org/2000/svg" xml:space="preserve" width="0.5in" height="0.5in" version="1.1" style="shape-rendering:geometricPrecision; text-rendering:geometricPrecision; image-rendering:optimizeQuality; fill-rule:evenodd; clip-rule:evenodd"
viewBox="0 0 500 500"
 xmlns:xlink="http://www.w3.org/1999/xlink">
 <defs>
  <style type="text/css">
   <![CDATA[
    .fil0 {fill:#292525}
   ]]>
  </style>
 </defs>
 <g id="Layer_x0020_1">
  <metadata id="CorelCorpID_0Corel-Layer"/>
  <path class="fil0" d="M413 335l-8 8 -9 0 0 -105 9 0 8 9 0 88zm-177 -20l8 -35c1,-3 -1,-6 -4,-7 -1,0 -1,0 -2,0l-20 0 46 -41 -8 34c-1,3 1,7 4,7 1,0 1,0 2,0l20 0 -46 42zm61 -53l-28 0 10 -46c1,-3 -1,-6 -4,-7 -2,0 -4,0 -6,2l-70 64c-2,2 -2,6 0,8 1,1 3,2 4,2l28 0 -10 45c-1,4 1,7 4,7 2,1 4,0 6,-1l70 -64c2,-2 2,-6 0,-8 -1,-2 -3,-2 -4,-2zm87 35l-11 0 0 -24 11 0 0 24zm-23 -29l0 87 -12 0 0 -128 12 0 0 41zm-23 87l-137 0 -22 -32c-1,-2 -3,-3 -5,-3l-29 0 0 -93 29 0c2,0 4,-1 5,-3l22 -32 98 0 22 32c1,2 3,3 5,3l12 0 0 128zm-82 -187l0 12 -12 0 0 -12 12 0zm-59 -11l0 -12 106 0 0 12 -106 0zm-64 122l-11 0 0 -11 11 0 0 11zm-23 -17l0 58 -12 0 0 -47c0,-1 0,-2 -1,-3l-10 -16 0 -14 9 -13 14 0 0 35zm302 -34c-1,-1 -3,-1 -4,-1l-18 0c-3,0 -6,2 -6,5l0 30 -11 0 0 -41c0,-3 -3,-6 -6,-6l-38 0 -22 -32c-1,-2 -3,-3 -4,-3l-35 0 0 -12 40 0c4,0 6,-2 6,-6l0 -23c0,-3 -2,-6 -6,-6l-116 0c-4,0 -6,3 -6,6l0 23c0,4 2,6 6,6l41 0 0 12 -36 0c-1,0 -3,1 -4,3l-22 32 -32 0c-3,0 -6,3 -6,6l0 35 -11 0 0 -35c0,-3 -3,-6 -6,-6l-24 0c-2,0 -3,1 -4,3l-12 17c-1,1 -1,2 -1,3l0 18c0,1 0,2 1,3l11 16 0 51c0,3 2,6 5,6l24 0c3,0 6,-3 6,-6l0 -35 11 0 0 35c0,3 3,6 6,6l32 0 22 32c1,2 3,3 4,3l170 0c3,0 6,-3 6,-6l0 -53 11 0 0 41c0,3 3,6 6,6l18 0c1,0 3,-1 4,-2l11 -11c1,-1 2,-3 2,-4l0 -94c0,-1 -1,-3 -2,-4l-11 -12z"/>
 </g>
</svg>
