<?xml version="1.0" encoding="UTF-8"?>
<!DOCTYPE svg PUBLIC "-//W3C//DTD SVG 1.1//EN" "http://www.w3.org/Graphics/SVG/1.1/DTD/svg11.dtd">
<!-- Creator: CorelDRAW X7 -->
<svg xmlns="http://www.w3.org/2000/svg" xml:space="preserve" width="0.5in" height="0.5in" version="1.1" style="shape-rendering:geometricPrecision; text-rendering:geometricPrecision; image-rendering:optimizeQuality; fill-rule:evenodd; clip-rule:evenodd"
viewBox="0 0 500 500"
 xmlns:xlink="http://www.w3.org/1999/xlink">
 <defs>
  <style type="text/css">
   <![CDATA[
    .fil0 {fill:#1F1B20}
   ]]>
  </style>
 </defs>
 <g id="Layer_x0020_1">
  <metadata id="CorelCorpID_0Corel-Layer"/>
  <path class="fil0" d="M309 227c-6,-6 -14,-6 -19,0l-39 38c-2,0 -4,-1 -6,-1 -14,0 -25,12 -25,26 0,14 11,26 25,26 14,0 26,-12 26,-26 0,-2 0,-4 -1,-6l39 -38c5,-6 5,-14 0,-19zm2 122l-122 0c-7,0 -13,6 -13,13 0,7 6,14 13,14l122 0c7,0 13,-7 13,-14 0,-7 -6,-13 -13,-13zm44 -181c-29,-29 -67,-43 -105,-43l0 0c-38,0 -76,14 -105,43 -49,50 -57,128 -18,186 4,7 13,8 19,4 6,-4 8,-12 3,-18 -11,-17 -17,-35 -19,-54l12 0c8,0 14,-6 14,-13 0,-8 -6,-14 -14,-14l-12 0c2,-22 11,-44 25,-62l9 9c3,3 7,4 10,4 3,0 7,-1 9,-4 6,-5 6,-14 0,-19l-9 -9c19,-15 41,-24 63,-26l0 13c0,7 6,13 14,13 7,0 13,-6 13,-13l0 -13c22,3 44,11 62,26l-9 9c-6,5 -6,14 0,19 2,3 6,4 9,4 3,0 7,-1 10,-4l9 -9c14,18 23,40 25,62l-12 0c-8,0 -14,6 -14,14 0,7 6,13 14,13l12 0c-2,19 -8,37 -19,54 -5,6 -3,14 3,18 3,2 5,2 8,2 4,0 8,-2 11,-6 39,-58 31,-136 -18,-186z"/>
 </g>
</svg>
