<?xml version="1.0" encoding="UTF-8"?>
<!DOCTYPE svg PUBLIC "-//W3C//DTD SVG 1.1//EN" "http://www.w3.org/Graphics/SVG/1.1/DTD/svg11.dtd">
<!-- Creator: CorelDRAW X7 -->
<svg xmlns="http://www.w3.org/2000/svg" xml:space="preserve" width="0.5in" height="0.5in" version="1.1" style="shape-rendering:geometricPrecision; text-rendering:geometricPrecision; image-rendering:optimizeQuality; fill-rule:evenodd; clip-rule:evenodd"
viewBox="0 0 500 500"
 xmlns:xlink="http://www.w3.org/1999/xlink">
 <defs>
  <style type="text/css">
   <![CDATA[
    .fil0 {fill:#1F1B20}
   ]]>
  </style>
 </defs>
 <g id="Layer_x0020_1">
  <metadata id="CorelCorpID_0Corel-Layer"/>
  <path class="fil0" d="M220 326c0,17 13,30 30,30 16,0 30,-13 30,-30 0,-17 -30,-94 -30,-94 0,0 -30,77 -30,94zm-110 -126l41 23c8,-12 19,-22 30,-30l-23 -41c-19,12 -35,29 -48,48zm-27 102c1,26 9,52 22,74l41 -24c-9,-15 -15,-32 -16,-50l-47 0zm259 -150l-23 41c11,8 22,18 30,30l41 -23c-13,-19 -29,-36 -48,-48zm28 150c-1,18 -7,35 -16,50l41 24c13,-22 21,-48 22,-74l-47 0zm-229 -62l-41 -23c-10,19 -16,42 -17,65l47 0c1,-15 5,-29 11,-42zm99 -115c-23,1 -45,7 -65,17l23 41c13,-6 27,-10 42,-11l0 -47zm130 157l47 0c-1,-23 -7,-46 -17,-65l-41 23c6,13 10,27 11,42zm-110 -157l0 47c15,1 29,5 42,11l23 -41c-20,-10 -42,-16 -65,-17z"/>
 </g>
</svg>
