<?xml version="1.0" encoding="UTF-8"?>
<!DOCTYPE svg PUBLIC "-//W3C//DTD SVG 1.1//EN" "http://www.w3.org/Graphics/SVG/1.1/DTD/svg11.dtd">
<!-- Creator: CorelDRAW X7 -->
<svg xmlns="http://www.w3.org/2000/svg" xml:space="preserve" width="0.5in" height="0.5in" version="1.1" style="shape-rendering:geometricPrecision; text-rendering:geometricPrecision; image-rendering:optimizeQuality; fill-rule:evenodd; clip-rule:evenodd"
viewBox="0 0 500 500"
 xmlns:xlink="http://www.w3.org/1999/xlink">
 <defs>
  <style type="text/css">
   <![CDATA[
    .fil0 {fill:#1F1B20}
   ]]>
  </style>
 </defs>
 <g id="Layer_x0020_1">
  <metadata id="CorelCorpID_0Corel-Layer"/>
  <path class="fil0" d="M356 337c0,26 -55,39 -106,39 -51,0 -106,-13 -106,-39 0,-21 30,-30 56,-35 5,-1 10,3 11,8 1,5 -3,10 -8,11 -31,6 -39,14 -40,16 2,5 31,19 87,19 56,0 85,-14 87,-19 -1,-2 -9,-10 -40,-16 -6,-1 -9,-6 -8,-11 1,-5 6,-9 11,-8 26,5 56,14 56,35zm-145 -58l10 0 0 58c0,5 4,10 10,10l38 0c6,0 10,-5 10,-10l0 -58 10 0c5,0 9,-4 9,-10l0 -58c0,-5 -7,-15 -21,-17 -5,-1 -16,-2 -27,-2 -11,0 -21,1 -27,2 -13,2 -21,12 -21,17l0 58c0,6 4,10 9,10zm39 -97c16,0 29,-13 29,-29 0,-16 -13,-28 -29,-28 -16,0 -29,12 -29,28 0,16 13,29 29,29z"/>
 </g>
</svg>
