<?xml version="1.0" encoding="UTF-8"?>
<!DOCTYPE svg PUBLIC "-//W3C//DTD SVG 1.1//EN" "http://www.w3.org/Graphics/SVG/1.1/DTD/svg11.dtd">
<!-- Creator: CorelDRAW X7 -->
<svg xmlns="http://www.w3.org/2000/svg" xml:space="preserve" width="0.5in" height="0.5in" version="1.1" style="shape-rendering:geometricPrecision; text-rendering:geometricPrecision; image-rendering:optimizeQuality; fill-rule:evenodd; clip-rule:evenodd"
viewBox="0 0 500 500"
 xmlns:xlink="http://www.w3.org/1999/xlink">
 <defs>
  <style type="text/css">
   <![CDATA[
    .fil0 {fill:#1F1B20}
   ]]>
  </style>
 </defs>
 <g id="Layer_x0020_1">
  <metadata id="CorelCorpID_0Corel-Layer"/>
  <path class="fil0" d="M205 222c-2,0 -5,-1 -6,-3 -8,-11 -12,-24 -12,-37 0,-13 4,-26 12,-37 2,-3 7,-4 11,-2 3,2 4,7 2,11 -6,8 -9,18 -9,28 0,10 3,20 9,28 2,4 1,9 -2,11 -2,1 -3,1 -5,1zm-6 128l76 -32 -57 -22 -19 54zm29 -80l37 -21 -14 -41 -1 0 -1 0 -21 62zm42 -6l-37 21 52 20 -15 -41zm23 63l-76 33 84 0c1,0 1,-1 2,-1 0,-1 0,-2 0,-3l-10 -29zm8 48l-102 0c-5,0 -11,-2 -14,-7 -4,-5 -5,-11 -3,-17l53 -148c-7,-5 -11,-12 -11,-21 0,-14 12,-26 26,-26 14,0 26,12 26,26 0,9 -4,16 -11,21l53 148c2,6 1,12 -3,17 -3,5 -9,7 -14,7zm-51 -203c-6,0 -10,4 -10,10 0,6 4,10 10,10 6,0 10,-4 10,-10 0,-6 -4,-10 -10,-10zm71 68c-2,0 -3,-1 -5,-2 -3,-2 -4,-7 -2,-11 10,-13 14,-29 14,-45 0,-16 -4,-32 -14,-45 -2,-4 -1,-9 2,-11 4,-3 9,-2 11,2 11,16 17,35 17,54 0,19 -6,38 -17,54 -1,2 -4,4 -6,4zm-26 -18c-2,0 -3,0 -5,-1 -3,-2 -4,-7 -2,-11 6,-8 9,-18 9,-28 0,-10 -3,-20 -9,-28 -2,-4 -1,-9 2,-11 4,-2 9,-1 11,2 8,11 12,24 12,37 0,13 -4,26 -12,37 -1,2 -4,3 -6,3zm-116 18c-2,0 -5,-2 -6,-4 -11,-16 -17,-35 -17,-54 0,-19 6,-38 17,-54 2,-4 7,-5 11,-2 3,2 4,7 2,11 -10,13 -14,29 -14,45 0,16 4,32 14,45 2,4 1,9 -2,11 -2,1 -3,2 -5,2z"/>
 </g>
</svg>
