<?xml version="1.0" encoding="UTF-8"?>
<!DOCTYPE svg PUBLIC "-//W3C//DTD SVG 1.1//EN" "http://www.w3.org/Graphics/SVG/1.1/DTD/svg11.dtd">
<!-- Creator: CorelDRAW X7 -->
<svg xmlns="http://www.w3.org/2000/svg" xml:space="preserve" width="0.5in" height="0.5in" version="1.1" style="shape-rendering:geometricPrecision; text-rendering:geometricPrecision; image-rendering:optimizeQuality; fill-rule:evenodd; clip-rule:evenodd"
viewBox="0 0 500 500"
 xmlns:xlink="http://www.w3.org/1999/xlink">
 <defs>
  <style type="text/css">
   <![CDATA[
    .fil0 {fill:#1F1B20}
   ]]>
  </style>
 </defs>
 <g id="Layer_x0020_1">
  <metadata id="CorelCorpID_0Corel-Layer"/>
  <path class="fil0" d="M350 317c-12,0 -21,10 -21,22l0 21 14 0 0 15 14 0 0 -15 15 0 0 -21c0,-12 -10,-22 -22,-22zm-125 -163l-9 0 0 -29 -14 0 0 29 -43 0 0 -29 -15 0 0 29 -8 0 0 39 89 0 0 -39zm118 19l0 130c2,0 5,0 7,0 3,0 5,0 7,0l0 -130c0,-27 -22,-48 -48,-48 -27,0 -49,21 -49,48l0 152c0,20 -17,36 -36,36 -20,0 -36,-16 -36,-36l0 -45 29 0c8,0 15,-6 15,-14l0 -58 -104 0 0 58c0,8 7,14 15,14l30 0 0 45c0,28 23,50 51,50 28,0 50,-22 50,-50l0 -152c0,-18 16,-34 35,-34 18,0 34,16 34,34z"/>
 </g>
</svg>
