<?xml version="1.0" encoding="UTF-8"?>
<!DOCTYPE svg PUBLIC "-//W3C//DTD SVG 1.1//EN" "http://www.w3.org/Graphics/SVG/1.1/DTD/svg11.dtd">
<!-- Creator: CorelDRAW X7 -->
<svg xmlns="http://www.w3.org/2000/svg" xml:space="preserve" width="0.5in" height="0.5in" version="1.1" style="shape-rendering:geometricPrecision; text-rendering:geometricPrecision; image-rendering:optimizeQuality; fill-rule:evenodd; clip-rule:evenodd"
viewBox="0 0 500 500"
 xmlns:xlink="http://www.w3.org/1999/xlink">
 <defs>
  <style type="text/css">
   <![CDATA[
    .fil0 {fill:#1F1B20}
   ]]>
  </style>
 </defs>
 <g id="Layer_x0020_1">
  <metadata id="CorelCorpID_0Corel-Layer"/>
  <path class="fil0" d="M236 265c-32,10 -18,36 14,36 31,0 -4,-12 57,12 2,1 6,1 7,3 -1,4 -8,4 -16,6l-107 21c-11,2 -9,3 -18,-1 -25,-12 -64,6 -46,24 14,14 56,13 59,-8l118 -23c6,-2 15,-5 20,-2 6,3 10,5 19,5 39,2 48,-31 11,-37 -20,-3 -22,5 -30,2l-42 -17c2,-14 -9,-16 -18,-21 1,-2 0,0 1,-2 15,-22 41,-48 43,-76 4,-59 -68,-82 -101,-44 -15,18 -21,44 -8,68 5,10 23,35 31,45 2,3 5,7 6,9zm1 0c1,3 11,14 13,16l13 -16c-8,-2 -17,-2 -26,0zm7 -111c-37,7 -26,64 12,57 14,-3 26,-17 22,-34 -2,-14 -16,-26 -34,-23z"/>
 </g>
</svg>
