<?xml version="1.0" encoding="UTF-8"?>
<!DOCTYPE svg PUBLIC "-//W3C//DTD SVG 1.1//EN" "http://www.w3.org/Graphics/SVG/1.1/DTD/svg11.dtd">
<!-- Creator: CorelDRAW X7 -->
<svg xmlns="http://www.w3.org/2000/svg" xml:space="preserve" width="0.5in" height="0.5in" version="1.1" style="shape-rendering:geometricPrecision; text-rendering:geometricPrecision; image-rendering:optimizeQuality; fill-rule:evenodd; clip-rule:evenodd"
viewBox="0 0 500 500"
 xmlns:xlink="http://www.w3.org/1999/xlink">
 <defs>
  <style type="text/css">
   <![CDATA[
    .fil6 {fill:#FEFEFE}
    .fil4 {fill:#F7A806}
    .fil0 {fill:#EF7F1A}
    .fil1 {fill:#E31E24}
    .fil7 {fill:#DFE2E4}
    .fil2 {fill:#1971B8}
    .fil3 {fill:#00A0E3}
    .fil5 {fill:black}
   ]]>
  </style>
 </defs>
 <g id="Layer_x0020_1">
  <metadata id="CorelCorpID_0Corel-Layer"/>
  <g id="_1950584948016">
   <path class="fil0" d="M366 258l-45 0c0,-14 -3,-25 -9,-36 -6,-11 -16,-20 -26,-26l22 -39c18,10 33,25 43,42 9,18 15,38 15,59z"/>
   <path class="fil1" d="M366 258c0,21 -5,40 -15,58 -10,17 -25,32 -43,42l-22 -39c11,-6 20,-16 26,-26 6,-10 9,-23 9,-36l45 0 0 1z"/>
   <path class="fil2" d="M214 196c-11,6 -20,15 -26,26 -6,10 -9,22 -9,36l-45 0c0,-21 5,-41 15,-58 10,-18 25,-33 43,-43l22 39z"/>
   <path class="fil3" d="M214 319l-22 40c-18,-10 -33,-25 -43,-43 -9,-18 -15,-37 -15,-58l45 0c0,13 3,25 9,36 7,10 16,19 26,25z"/>
   <path class="fil4" d="M308 157l-23 40c-10,-7 -22,-10 -36,-10 -13,0 -24,3 -35,10l-23 -40c18,-9 38,-16 59,-16 21,0 41,7 58,16z"/>
   <path class="fil5" d="M259 244c6,5 8,15 4,21 -5,7 -15,9 -21,4 -7,-5 -45,-49 -45,-49 0,0 55,20 62,24z"/>
   <path class="fil6" d="M250 248c5,0 9,4 9,9 0,4 -4,8 -9,8 -5,0 -9,-4 -9,-8 0,-5 4,-9 9,-9z"/>
   <path class="fil7" d="M366 257l0 0c0,-17 -4,-34 -11,-50 7,15 11,32 11,50zm-63 -91c0,-1 0,-1 0,-1l5 -8c-17,-9 -37,-16 -58,-16 21,0 41,6 58,16l-5 9z"/>
   <path class="fil7" d="M134 259c0,0 0,-1 0,-1l0 0c0,0 0,1 0,1zm0 -1c0,0 0,0 0,0 0,0 0,0 0,0zm0 0c0,0 0,0 0,0 0,0 0,0 0,0zm0 0c0,0 0,0 0,0 0,0 0,0 0,0zm0 0c0,0 0,-1 0,-1 0,0 0,1 0,1zm0 -1c0,0 0,0 0,0 0,0 0,0 0,0zm0 0l0 0c0,0 0,0 0,0zm14 -54c0,-2 1,-3 2,-4 0,0 -1,0 -1,1 0,1 -1,2 -1,3zm26 -34c6,-4 11,-8 17,-12l0 1c-6,3 -11,7 -17,11z"/>
   <path class="fil7" d="M192 157c17,-10 37,-16 58,-16 -20,0 -40,6 -58,16zm58 -16c0,0 0,0 0,0 0,0 0,0 0,0zm0 0c0,0 0,0 0,0 0,0 0,0 0,0z"/>
  </g>
 </g>
</svg>
