<?xml version="1.0" encoding="UTF-8"?>
<!DOCTYPE svg PUBLIC "-//W3C//DTD SVG 1.1//EN" "http://www.w3.org/Graphics/SVG/1.1/DTD/svg11.dtd">
<!-- Creator: CorelDRAW X7 -->
<svg xmlns="http://www.w3.org/2000/svg" xml:space="preserve" width="0.5in" height="0.5in" version="1.1" style="shape-rendering:geometricPrecision; text-rendering:geometricPrecision; image-rendering:optimizeQuality; fill-rule:evenodd; clip-rule:evenodd"
viewBox="0 0 500 500"
 xmlns:xlink="http://www.w3.org/1999/xlink">
 <defs>
  <style type="text/css">
   <![CDATA[
    .fil0 {fill:#1F1B20}
   ]]>
  </style>
 </defs>
 <g id="Layer_x0020_1">
  <metadata id="CorelCorpID_0Corel-Layer"/>
  <path class="fil0" d="M298 273c31,-42 20,-101 -22,-131 -43,-30 -102,-20 -132,22 -30,43 -20,102 23,132 30,21 70,23 102,4l70 69c4,4 9,6 14,7l0 0c5,-1 10,-2 14,-6 8,-7 8,-20 1,-28 -1,0 -1,0 -1,-1l-69 -68zm-77 7c-33,0 -61,-27 -61,-61 0,-34 28,-61 61,-61 34,0 61,27 61,61 0,34 -27,61 -61,61l0 0z"/>
 </g>
</svg>
