<?xml version="1.0" encoding="UTF-8"?>
<!DOCTYPE svg PUBLIC "-//W3C//DTD SVG 1.1//EN" "http://www.w3.org/Graphics/SVG/1.1/DTD/svg11.dtd">
<!-- Creator: CorelDRAW X7 -->
<svg xmlns="http://www.w3.org/2000/svg" xml:space="preserve" width="0.5in" height="0.5in" version="1.1" style="shape-rendering:geometricPrecision; text-rendering:geometricPrecision; image-rendering:optimizeQuality; fill-rule:evenodd; clip-rule:evenodd"
viewBox="0 0 500 500"
 xmlns:xlink="http://www.w3.org/1999/xlink">
 <defs>
  <style type="text/css">
   <![CDATA[
    .fil0 {fill:#1F1B20}
   ]]>
  </style>
 </defs>
 <g id="Layer_x0020_1">
  <metadata id="CorelCorpID_0Corel-Layer"/>
  <path class="fil0" d="M368 231l-99 -99c-11,-10 -27,-10 -38,0l-99 99c-5,5 -7,12 -7,19l0 0c0,7 2,14 7,19l99 99c11,10 27,10 38,0l99 -99c5,-5 7,-12 7,-19l0 0c0,-7 -2,-14 -7,-19zm-60 -5c-1,-1 1,1 -28,-29 -3,-3 -8,-3 -11,0 -3,3 -3,8 0,11l14 15 -76 0c-4,0 -8,3 -8,7l0 51c0,5 4,8 8,8 4,0 8,-3 8,-8l0 -43 67 0 -14 14c-5,5 -1,14 6,14 2,0 4,-1 5,-3l26 -26c4,-2 5,-8 3,-11zm49 32l-99 99c-4,4 -12,4 -16,0l-99 -99c-4,-4 -4,-12 0,-16l99 -99c4,-4 12,-4 16,0l99 99c0,0 3,3 3,8 0,3 -1,6 -3,8z"/>
 </g>
</svg>
